<svg xmlns="http://www.w3.org/2000/svg" viewBox="0 0 168.52 164.72"><defs><style>.cls-1,.cls-2{fill:none;}.cls-1,.cls-2,.cls-3{stroke:#333;stroke-miterlimit:10;}.cls-1,.cls-3{stroke-width:4px;}.cls-2{stroke-width:3px;}.cls-3{fill:#333;}</style></defs><title>Risorsa 15</title><g id="Livello_2" data-name="Livello 2"><g id="Livello_1-2" data-name="Livello 1"><path class="cls-1" d="M101.36,16.13H67.27S80.8,1.8,85.19,2C90.3,2.24,101.36,16.13,101.36,16.13Z"/><path class="cls-1" d="M164,66.07c1.26,2.56,5.06,88,0,89-28,5.86-119.84,13.71-159.15,0-2.24-.78-5-71.35,0-89.7,2-7.38,24-19,24-19l-.29,35.77,39.06,27.63,16.76,11.87,17-11.87,37.32-26.09V41.2S159.82,57.63,164,66.07Z"/><polygon class="cls-1" points="138.68 16.13 138.68 83.75 101.36 109.84 84.39 121.71 67.61 109.84 28.55 82.21 28.84 46.44 29.09 16.13 138.68 16.13"/><line class="cls-1" x1="28.55" y1="82.21" x2="4.8" y2="65.4"/><line class="cls-1" x1="163.96" y1="66.07" x2="138.67" y2="83.75"/><line class="cls-1" x1="4.8" y1="155.1" x2="67.61" y2="109.85"/><line class="cls-1" x1="163.96" y1="155.1" x2="101.36" y2="109.85"/><line class="cls-2" x1="43.53" y1="44.67" x2="125.04" y2="44.67"/><line class="cls-2" x1="43.89" y1="56.79" x2="125.4" y2="56.79"/><line class="cls-2" x1="43.53" y1="68.92" x2="125.04" y2="68.92"/><rect class="cls-3" x="79.08" y="138.74" width="14.04" height="11.03"/><circle class="cls-2" cx="86.1" cy="136.3" r="4.56"/></g></g></svg>