<svg xmlns="http://www.w3.org/2000/svg" viewBox="0 0 199.51 157.75"><defs><style>.cls-1,.cls-2,.cls-3,.cls-4{fill:#fff;stroke:#333;stroke-miterlimit:10;}.cls-1{stroke-width:5px;}.cls-2{stroke-width:4px;}.cls-3{stroke-width:2px;}.cls-4{stroke-width:3px;}</style></defs><title>Risorsa 8</title><g id="Livello_2" data-name="Livello 2"><g id="Livello_4" data-name="Livello 4"><path class="cls-1" d="M74.37,139.94a15.31,15.31,0,1,1-15.32-15.31A15.31,15.31,0,0,1,74.37,139.94Z"/><path class="cls-2" d="M158.22,140.71a1,1,0,0,1-1-1,15.09,15.09,0,0,0-30.17,0,1,1,0,0,1-1,1H74.92a1,1,0,0,1-1-1,15.09,15.09,0,0,0-30.17,0,1,1,0,0,1-1,1H37.39a1,1,0,0,1-.91-.57L2.09,66.7A1,1,0,0,1,3,65.27H196.51a1,1,0,0,1,.84.46,1,1,0,0,1,.08.94l-31.67,73.44a1,1,0,0,1-.92.6Z"/><polygon class="cls-1" points="15.96 64.6 35.32 39.3 59.2 39.3 72.37 30.1 81.42 12.36 101.6 2.5 133.29 2.5 148.93 20.9 148.93 28.78 157.16 39.95 177.74 47.84 182.68 57.69 182.68 64.6 15.96 64.6"/><path class="cls-1" d="M157.44,139.94a15.31,15.31,0,1,1-15.31-15.31A15.3,15.3,0,0,1,157.44,139.94Z"/></g><g id="Livello_3" data-name="Livello 3"><path class="cls-3" d="M106.48,98.5c-4,5.14-12.45,16.22-15.55,20.26-.84,1.1-5.25-2.29-4.39-3.39,3-4,11.57-15.09,15.53-20.24Z"/><path class="cls-3" d="M116.76,106.4l-10.28-7.9-4.41-3.37L92.73,88s5.63-1.56,6.8-.67l16,12.31C116.73,100.5,116.76,106.4,116.76,106.4Z"/><path class="cls-3" d="M109.33,93.93l-2.06-1.58-2.06-1.58a2.6,2.6,0,0,1,4.12,3.16Z"/><line class="cls-4" x1="72.37" y1="31.1" x2="120.71" y2="65.6"/><line class="cls-4" x1="148.93" y1="21.9" x2="96.54" y2="48.35"/><line class="cls-4" x1="133.29" y1="3.5" x2="96.54" y2="48.35"/><line class="cls-4" x1="176.74" y1="48.35" x2="163.07" y2="64.16"/><line class="cls-4" x1="157.89" y1="41.73" x2="163.07" y2="64.16"/><line class="cls-4" x1="120.71" y1="65.6" x2="159.54" y2="40.68"/><line class="cls-4" x1="126.05" y1="33.45" x2="158.88" y2="41.57"/><line class="cls-4" x1="58.83" y1="41.66" x2="15.96" y2="65.6"/><line class="cls-4" x1="76.8" y1="65.89" x2="58.83" y2="41.66"/><line class="cls-4" x1="96.54" y1="48.35" x2="67.82" y2="53.56"/><circle class="cls-3" cx="58.84" cy="139.72" r="2.67"/><circle class="cls-3" cx="142.14" cy="139.71" r="2.67"/></g></g></svg>