<svg xmlns="http://www.w3.org/2000/svg" viewBox="0 0 50.89 37.06"><defs><style>.cls-1,.cls-2{fill:none;stroke:#fff;stroke-miterlimit:10;}.cls-2{stroke-width:0.5px;}</style></defs><title>Risorsa 3</title><g id="Livello_2" data-name="Livello 2"><g id="Livello_2-2" data-name="Livello 2"><path class="cls-1" d="M19.79,28.35a1,1,0,0,1-.49-.13,1,1,0,0,1-.49-.84V9.76a1,1,0,0,1,.49-.84,1.05,1.05,0,0,1,.49-.13,1,1,0,0,1,.48.13l15.26,8.81a1,1,0,0,1,.49.84,1,1,0,0,1-.49.84L20.27,28.22A.91.91,0,0,1,19.79,28.35Z"/><path class="cls-2" d="M23.55,26.33,19.79,8.79"/><line class="cls-2" x1="31.36" y1="15.32" x2="23.55" y2="26.33"/><rect class="cls-1" x="7.42" y="-6.42" width="36.06" height="49.89" rx="3" ry="3" transform="translate(43.97 -6.92) rotate(90)"/></g></g></svg>