<svg xmlns="http://www.w3.org/2000/svg" viewBox="0 0 462.35 462.36"><defs><style>.cls-1,.cls-5{fill:none;stroke:#000;stroke-miterlimit:10;}.cls-1{stroke-width:6px;}.cls-2{font-size:48px;font-family:Ubuntu-BoldItalic, Ubuntu;font-weight:700;font-style:italic;}.cls-3{letter-spacing:-0.02em;}.cls-4{letter-spacing:0em;}.cls-5{stroke-width:8px;}</style></defs><title>Risorsa 10</title><g id="Livello_2" data-name="Livello 2"><g id="Livello_8" data-name="Livello 8"><path class="cls-1" d="M167.59,180.54a1.85,1.85,0,0,1-1.59-2.79L222.57,82a1.86,1.86,0,0,1,1.59-.91,1.66,1.66,0,0,1,.49.07A1.85,1.85,0,0,1,226,83v71.5a1.85,1.85,0,0,1-1.12,1.7l-56.57,24.22A1.91,1.91,0,0,1,167.59,180.54Z"/><path class="cls-1" d="M223.32,233.55a1.85,1.85,0,0,1-1-.26l-57.59-34.55a1.86,1.86,0,0,1-.89-1.71,1.88,1.88,0,0,1,1.11-1.58l58.44-25.24a1.83,1.83,0,0,1,.73-.15,1.91,1.91,0,0,1,1,.31,1.86,1.86,0,0,1,.82,1.57l-.85,59.79a1.85,1.85,0,0,1-.95,1.59A1.79,1.79,0,0,1,223.32,233.55Z"/><path class="cls-1" d="M224.16,307.7a1.85,1.85,0,0,1-1.51-.78L164.22,224.3a1.84,1.84,0,0,1,.14-2.32,1.84,1.84,0,0,1,2.3-.34l58.44,34.21a1.87,1.87,0,0,1,.91,1.6v48.41a1.85,1.85,0,0,1-1.29,1.76A1.77,1.77,0,0,1,224.16,307.7Z"/><path class="cls-1" d="M295.93,180.54a1.87,1.87,0,0,1-.73-.15l-56.57-24.22a1.85,1.85,0,0,1-1.12-1.7V83a1.84,1.84,0,0,1,1.36-1.78,1.59,1.59,0,0,1,.48-.07,1.83,1.83,0,0,1,1.59.91l56.58,95.72a1.85,1.85,0,0,1-1.59,2.79Z"/><path class="cls-1" d="M240.2,233.55a1.8,1.8,0,0,1-.9-.23,1.85,1.85,0,0,1-1-1.59l-.84-59.79a1.86,1.86,0,0,1,.82-1.57,1.88,1.88,0,0,1,1-.31,1.92,1.92,0,0,1,.74.15l58.43,25.24a1.85,1.85,0,0,1,.22,3.29l-57.59,34.55A1.89,1.89,0,0,1,240.2,233.55Z"/><path class="cls-1" d="M239.35,307.7a1.81,1.81,0,0,1-1.84-1.84V257.45a1.85,1.85,0,0,1,.91-1.6l58.44-34.21a1.85,1.85,0,0,1,2.44,2.66l-58.44,82.62A1.84,1.84,0,0,1,239.35,307.7Z"/><text class="cls-2" transform="translate(123.94 373.26)">Ethe<tspan class="cls-3" x="101.04" y="0">r</tspan><tspan class="cls-4" x="120.53" y="0">eum</tspan></text></g><g id="cerchio"><path class="cls-5" d="M231.17,4C105.71,4,4,105.71,4,231.18S105.71,458.36,231.17,458.36,458.35,356.65,458.35,231.18,356.64,4,231.17,4Z"/></g></g></svg>