<svg xmlns="http://www.w3.org/2000/svg" viewBox="0 0 462.35 462.36"><defs><style>.cls-1{fill:none;stroke:#000;stroke-miterlimit:10;stroke-width:8px;}.cls-2{font-size:60px;font-family:Ubuntu-BoldItalic, Ubuntu;font-weight:700;font-style:italic;}.cls-3{letter-spacing:0.02em;}.cls-4{letter-spacing:-0.06em;}.cls-5{letter-spacing:-0.02em;}</style></defs><title>Risorsa 6</title><g id="Livello_2" data-name="Livello 2"><g id="cerchio"><path class="cls-1" d="M231.17,4C105.71,4,4,105.71,4,231.18S105.71,458.36,231.17,458.36,458.35,356.65,458.35,231.18,356.64,4,231.17,4ZM347.51,232.8c.67,29.88-63.56,61.09-64.65,61.09-4.44,0-32.71-13.33-34.62-18.84-2.7-7.77.41-48.68,0-49.89-.75-2.2-14.82-1-19.78-1-8,0-11.58-1.24-12.32,1-.41,1.21,2.7,42.12,0,49.89-1.91,5.51-30.19,18.84-34.62,18.84-1.09,0-65.32-31.21-64.66-61.09.49-21.89-1-73,0-87.57.41-6.07,50.89-36.15,62.62-36.15,14.11,0,30.32,18.14,52.71,19.79,22.39-1.65,38.6-19.79,52.7-19.79,11.73,0,62.22,30.08,62.62,36.15C348.5,159.81,347,210.91,347.51,232.8Zm-63.64-87.06h0c-1.06.49-32.95,15.06-48.65,16.93a25.42,25.42,0,0,1-3,.2c-1,0-2.11-.06-3.24-.17-17.33-1.75-46.44-16-48.35-16.92l-.1,0-31.05,18.33s-6.36,47.52-1,62.11c3.62,9.9,29.29,33.57,31,28.51,2.83-8.1-1.16-69.31,2-73.82,1.65-2.32,29.62,11.19,48.48,11.32.75,0,1.48,0,2.19-.06s1.42.06,2.16.06c18.86-.12,46.86-13.65,48.51-11.32,3.2,4.51-.8,65.72,2,73.82,1.77,5.06,27.44-18.61,31.06-28.51,5.33-14.59-1-62.11-1-62.11Z"/></g><g id="mt_gox"><path class="cls-1" d="M347.51,145.23c-.4-6.07-50.89-36.15-62.62-36.15-14.1,0-30.31,18.14-52.7,19.79-22.39-1.65-38.6-19.79-52.71-19.79-11.73,0-62.21,30.08-62.62,36.15-1,14.58.49,65.68,0,87.57-.66,29.88,63.57,61.09,64.66,61.09,4.43,0,32.71-13.33,34.62-18.84,2.7-7.77-.41-48.68,0-49.89.74-2.2,4.35-1,12.32-1,5,0,19-1.24,19.78,1,.41,1.21-2.7,42.12,0,49.89,1.91,5.51,30.18,18.84,34.62,18.84,1.09,0,65.32-31.21,64.65-61.09C347,210.91,348.5,159.81,347.51,145.23Zm-31.56,81c-3.62,9.9-29.29,33.57-31.06,28.51-2.83-8.1,1.17-69.31-2-73.82-1.65-2.33-29.65,11.2-48.51,11.32-.74,0-1.46,0-2.16-.06s-1.44.06-2.19.06c-18.86-.13-46.83-13.64-48.48-11.32-3.2,4.51.79,65.72-2,73.82-1.76,5.06-27.43-18.61-31-28.51-5.34-14.59,1-62.11,1-62.11l31.05-18.33.1,0c1.91.94,31,15.17,48.35,16.92,1.13.11,2.22.17,3.24.17a25.42,25.42,0,0,0,3-.2c15.7-1.87,47.59-16.44,48.65-16.93h0l31.06,18.33S321.28,211.59,316,226.18Z"/><path class="cls-1" d="M316,226.18c-3.62,9.9-29.29,33.57-31.06,28.51-2.83-8.1,1.17-69.31-2-73.82-1.65-2.33-29.65,11.2-48.51,11.32-.74,0-1.46,0-2.16-.06s-1.44.06-2.19.06c-18.86-.13-46.83-13.64-48.48-11.32-3.2,4.51.79,65.72-2,73.82-1.76,5.06-27.43-18.61-31-28.51-5.34-14.59,1-62.11,1-62.11l31.05-18.33.1,0c1.91.94,31,15.17,48.35,16.92,1.13.11,2.22.17,3.24.17a25.42,25.42,0,0,0,3-.2c15.7-1.87,47.59-16.44,48.65-16.93h0l31.06,18.33S321.28,211.59,316,226.18Z"/><text class="cls-2" transform="translate(132.33 357.73)">M<tspan class="cls-3" x="52.68" y="0">t</tspan><tspan class="cls-4" x="79.02" y="0">.</tspan><tspan x="90.54" y="0">G</tspan><tspan class="cls-5" x="131.82" y="0">o</tspan><tspan x="164.76" y="0">x</tspan></text></g></g></svg>