<svg xmlns="http://www.w3.org/2000/svg" viewBox="0 0 462.35 462.36"><defs><style>.cls-1,.cls-3{fill:none;}.cls-1,.cls-2,.cls-3,.cls-4{stroke:#000;stroke-miterlimit:10;}.cls-1{stroke-width:8px;}.cls-2{fill:#fff;}.cls-2,.cls-3,.cls-4{stroke-width:6px;}</style></defs><title>Risorsa 5</title><g id="Livello_2" data-name="Livello 2"><g id="cerchio"><path class="cls-1" d="M231.17,4C105.71,4,4,105.71,4,231.18S105.71,458.36,231.17,458.36,458.35,356.65,458.35,231.18,356.64,4,231.17,4Z"/></g><g id="pizze"><circle class="cls-2" cx="225.42" cy="181.46" r="10.8"/><path class="cls-3" d="M274.13,209.08c-1.63,2.59-1.48,7.81-1.74,12.5-.18,3.3-.56,6.34-1.91,8-2,2.53-10.17,4.22-12.77,2.28a5.79,5.79,0,0,1-1.56-3.31c-.9-4.08-.88-10.1-3.45-9.91-8.46.6-31.52,9.09-99,42.41-6.6,3.25-2,19.12-3.47,29.21-.42,2.93-6.69,4.48-8.61,2.48C139,290,142.88,279.1,139.6,277c-2.09-1.32-5.78-.33-6.74,2-2.74,6.49,3.12,26.19-1.47,29.76-7.75,6-13.79,3.2-15-.71-3.43-11.34-4.45-40.63,1.29-51.52,13.61-25.87,52.67-84,92-114,.19-.16.39-.3.58-.45,13.14-9.93,76,31.31,93.49,52C309.14,200.38,278.56,202.05,274.13,209.08Z"/><path class="cls-3" d="M150.23,271s56.11-21.25,105.92-42.38"/><path class="cls-3" d="M272.39,221.58c19.57-8.56,36.91-16.7,47.7-22.94,5.44-3.14,8.38-11.24,7.79-14.18A26.12,26.12,0,0,0,321,172.68c-27.76-24.41-77-55.43-98-55.64-8.84-.08-12.9,3.34-15.76,6.49-6,6.63.24,16.06,2.43,19,.44.56.71.88.71.88"/><path class="cls-3" d="M303.77,194C296.16,169.3,321,172.68,321,172.68"/><path class="cls-2" d="M173.78,324.05s56.11-21.25,105.92-42.38"/><path class="cls-2" d="M295.94,274.68c19.57-8.56,36.91-16.7,47.7-22.94,5.44-3.14,8.38-11.24,7.79-14.18a26.12,26.12,0,0,0-6.87-11.78c-27.76-24.41-77-55.43-98-55.64-8.84-.08-12.9,3.34-15.76,6.49-6,6.63.24,16.06,2.43,19,.44.56.71.88.71.88"/><path class="cls-2" d="M327.32,247.13c-7.6-24.72,17.24-21.35,17.24-21.35"/><path class="cls-2" d="M297.68,262.18c-1.63,2.59-1.48,7.81-1.74,12.5-.18,3.3-.56,6.34-1.91,8-2,2.53-10.17,4.22-12.77,2.28a5.79,5.79,0,0,1-1.56-3.31c-.9-4.08-.88-10.1-3.45-9.91-8.46.6-31.52,9.09-99,42.41-6.6,3.25-2,19.12-3.47,29.21-.42,2.93-6.69,4.48-8.61,2.48-2.69-2.8,1.22-13.66-2.06-15.73-2.09-1.32-5.78-.33-6.74,1.95-2.74,6.49,3.12,26.19-1.47,29.76-7.75,6-13.79,3.2-15-.71-3.43-11.34-4.45-40.63,1.29-51.52,13.61-25.87,52.67-84,92-114,.19-.16.39-.3.58-.45,13.14-9.93,76,31.31,93.49,52C332.69,253.48,302.11,255.15,297.68,262.18Z"/><circle class="cls-2" cx="226.19" cy="230.15" r="8.57"/><circle class="cls-2" cx="205.23" cy="277.43" r="10.61"/><circle class="cls-2" cx="168.73" cy="226.37" r="7.34"/><circle class="cls-2" cx="287.36" cy="243.07" r="6.69"/><rect class="cls-4" x="184.95" y="214.99" width="9.2" height="2.72" rx="1.36" ry="1.36" transform="translate(-94.68 172.19) rotate(-39.95)"/><rect class="cls-4" x="141.76" y="231.91" width="13.13" height="2.72" rx="1.36" ry="1.36" transform="translate(-13.22 457.58) rotate(-111.79)"/><rect class="cls-4" x="196.57" y="168.35" width="13.13" height="2.72" rx="1.36" ry="1.36" transform="translate(120.95 421.33) rotate(-111.79)"/><rect class="cls-4" x="236.86" y="208" width="9.2" height="2.72" rx="1.36" ry="1.36" transform="translate(-78.08 203.89) rotate(-39.95)"/><rect class="cls-4" x="234.4" y="265.38" width="14.42" height="2.72" rx="1.36" ry="1.36" transform="translate(-49.34 478.57) rotate(-83.89)"/><rect class="cls-4" x="265.76" y="253.22" width="12.28" height="2.72" rx="1.36" ry="1.36"/><rect class="cls-4" x="176.88" y="268.98" width="9.2" height="2.72" rx="1.36" ry="1.36" transform="translate(-138.06 332.86) rotate(-67.2)"/></g></g></svg>