<svg xmlns="http://www.w3.org/2000/svg" viewBox="0 0 457.37 457.37"><defs><style>.cls-1,.cls-2{fill:none;}.cls-1,.cls-2,.cls-3{stroke:#000;stroke-miterlimit:10;}.cls-1{stroke-width:8px;}.cls-2{stroke-width:3px;}.cls-3{stroke-width:4px;}</style></defs><title>Risorsa 12</title><g id="Livello_2" data-name="Livello 2"><g id="satoshi"><path d="M305.26,168.24c-2.55,14.87-8.2,44.73-9.21,59.65-.15,2.24-5.22,3.77-7.16,5.45-1.28,1.12-8.31.82-6.81,0,2.21-1.2,2.72-5.45,2.72-5.45s6-24.71,5.46-33.07c-1.79-25.49-6.53-17.26-8.18-23.18-1.42-5.08-1.78-27.45-18.75-36.81,0,0-23.09-15.39-71.86,0-18.48,5.83-17.33,31.73-18.75,36.81-1.65,5.92-6.39-2.31-8.18,23.18-.59,8.36,5.45,33.07,5.45,33.07s.52,4.25,2.73,5.45c1.5.82-5.53,1.12-6.82,0-1.93-1.68-7-3.21-7.15-5.45-1-14.92-6.66-44.78-9.21-59.65-4.87-28.49,8.65-52.71,26.59-63.41,6.77-4,12.63-5,40.12-11.75,2.36-.59-9.81-6.66-7.39-6.37,4.9.59,57.07,6.13,72.26,16.28C298.48,114.6,310.13,139.75,305.26,168.24Z"/><path d="M228.58,339s-1.93-12.84-5.2-14.56c-16.1-8.44-40.78-24.11-47.91-35.14-2.32-3.61-.86,15.68-5,16.68C107.14,321.07,75.29,323.9,82,347.36c20.19,70.45,264.32,67.39,293.13,0,9.59-22.44-25.13-26.29-88.43-41.41-4.17-1-2.7-20.29-5-16.68-7.12,11-31.81,26.7-47.91,35.14-3.27,1.72-5.2,14.56-5.2,14.56"/><rect x="82.02" y="347.36" width="293.13" height="51.69"/><path d="M372.77,390.63c0,23.3-64.8,63.58-144.19,63.58s-143.3-40.28-143.3-63.58,64.36-42.2,143.74-42.2S372.77,367.33,372.77,390.63Z"/><circle class="cls-1" cx="228.68" cy="228.68" r="224.68"/><path class="cls-2" d="M228.65,248.49a.75.75,0,0,1-.74-.75V223.35a.75.75,0,0,1,.74-.75A14.56,14.56,0,1,0,214.09,208a.75.75,0,1,1-1.49,0,16.06,16.06,0,1,1,16.8,16v23.66A.75.75,0,0,1,228.65,248.49Z"/><circle class="cls-3" cx="229.02" cy="261.57" r="2.41"/></g></g></svg>