<svg xmlns="http://www.w3.org/2000/svg" viewBox="0 0 462.36 462.36"><defs><style>.cls-1{font-size:18px;font-family:Ubuntu-BoldItalic, Ubuntu;font-weight:700;font-style:italic;}.cls-2{letter-spacing:-0.02em;}.cls-3{letter-spacing:-0.02em;}.cls-4,.cls-5,.cls-6{fill:none;stroke:#000;stroke-miterlimit:10;}.cls-4{stroke-width:8px;}.cls-5{stroke-width:6px;}.cls-6{stroke-width:5px;}</style></defs><title>Risorsa 4</title><g id="Livello_2" data-name="Livello 2"><g id="Livello_1-2" data-name="Livello 1"><text class="cls-1" transform="translate(185.79 152.37)">bi<tspan class="cls-2" x="15.44" y="0">t</tspan><tspan class="cls-3" x="22.66" y="0">c</tspan><tspan x="30.85" y="0">oin</tspan></text></g><g id="Livello_3" data-name="Livello 3"><circle class="cls-4" cx="231.18" cy="231.18" r="227.18"/></g><g id="Livello_4" data-name="Livello 4"><rect class="cls-4" x="134.34" y="100.78" width="159.39" height="242.55" rx="12" ry="12"/><path class="cls-5" d="M163.33,120.93c0,4.36-2.59,7.93-5.76,7.93h0c-3.16,0-5.75-3.57-5.75-7.93V97c0-4.36,2.59-7.93,5.75-7.93h0c3.17,0,5.76,3.57,5.76,7.93"/><line class="cls-6" x1="163.33" y1="186.13" x2="263.78" y2="186.13"/><line class="cls-6" x1="163.33" y1="207.09" x2="263.78" y2="207.09"/><line class="cls-6" x1="163.81" y1="228.06" x2="264.26" y2="228.06"/><path class="cls-4" d="M301,119.64a12,12,0,0,1,12,12V350.19a12,12,0,0,1-12,12H165.57a12,12,0,0,1-12-12"/><path class="cls-4" d="M320.5,139.43a12,12,0,0,1,12,12V370a12,12,0,0,1-12,12H185.11a12,12,0,0,1-12-12"/></g></g></svg>