<svg xmlns="http://www.w3.org/2000/svg" viewBox="0 0 605.71 399.46"><defs><style>.cls-1{fill:#fff;stroke-width:15px;}.cls-1,.cls-2{stroke:#000;stroke-miterlimit:10;}</style></defs><title>Risorsa 21</title><g id="Livello_2" data-name="Livello 2"><g id="microwave"><rect class="cls-1" x="7.5" y="7.5" width="590.71" height="364.44" rx="12" ry="12"/><rect class="cls-1" x="31.53" y="371.94" width="74.09" height="20.02" rx="10.01" ry="10.01"/><rect class="cls-1" x="492.08" y="371.94" width="74.09" height="20.02" rx="10.01" ry="10.01"/><rect class="cls-1" x="153.68" y="45.55" width="402.48" height="288.35"/><rect class="cls-2" x="451.27" y="30.37" width="5.96" height="82.97" rx="2.98" ry="2.98" transform="translate(526.1 -382.39) rotate(90)"/><rect class="cls-2" x="501" y="68.88" width="17.86" height="5.96" rx="2.98" ry="2.98"/><rect class="cls-2" x="523.17" y="68.88" width="5.96" height="5.96" rx="2.98" ry="2.98"/><circle class="cls-1" cx="68.57" cy="68.88" r="24.43"/><circle class="cls-1" cx="68.57" cy="166.68" r="24.43"/><rect class="cls-2" x="44.15" y="255.49" width="52.27" height="10.16" rx="2.98" ry="2.98"/><rect class="cls-2" x="44.15" y="277.65" width="52.27" height="10.16" rx="2.98" ry="2.98"/><rect class="cls-2" x="44.15" y="299.81" width="52.27" height="10.16" rx="2.98" ry="2.98"/></g></g></svg>