<svg xmlns="http://www.w3.org/2000/svg" viewBox="0 0 720.44 512.13"><defs><style>.cls-1,.cls-3{fill:#fff;}.cls-1,.cls-2,.cls-3,.cls-4{stroke:#000;stroke-miterlimit:10;}.cls-1{stroke-width:15px;}.cls-2{stroke-width:10px;}.cls-3{stroke-width:9px;}</style></defs><title>Risorsa 19</title><g id="Livello_2" data-name="Livello 2"><g id="tv"><rect class="cls-1" x="7.5" y="7.5" width="705.44" height="423.56" rx="12" ry="12"/><rect class="cls-1" x="31.52" y="31.24" width="657.56" height="354.34" rx="12" ry="12"/><rect class="cls-2" x="117.91" y="493.7" width="486.2" height="13.42" rx="6.71" ry="6.71"/><rect class="cls-2" x="252.3" y="453.59" width="13.26" height="46.83" rx="6.63" ry="6.63"/><rect class="cls-2" x="478.68" y="453.59" width="13.26" height="46.83" rx="6.63" ry="6.63"/><circle class="cls-3" cx="660.13" cy="408.85" r="3"/><rect class="cls-4" x="52.81" y="45.31" width="8.77" height="151.45" rx="2.98" ry="2.98" transform="translate(114.4 242.06) rotate(180)"/><rect class="cls-4" x="40.9" y="218.28" width="32.6" height="8.77" rx="2.98" ry="2.98" transform="translate(279.86 165.47) rotate(90)"/><rect class="cls-4" x="51.76" y="247.88" width="10.88" height="8.77" rx="2.98" ry="2.98" transform="translate(309.47 195.07) rotate(90)"/></g></g></svg>