<svg xmlns="http://www.w3.org/2000/svg" viewBox="0 0 467.83 519.66"><defs><style>.cls-1,.cls-4{fill:#fff;}.cls-1,.cls-2,.cls-3,.cls-4{stroke:#000;}.cls-1,.cls-2,.cls-3,.cls-4,.cls-5{stroke-miterlimit:10;}.cls-1,.cls-2{stroke-width:15px;}.cls-2,.cls-3{fill:none;}.cls-3{stroke-width:12px;}.cls-4{stroke-width:10px;}.cls-5{stroke:#fff;}</style></defs><title>Risorsa 17</title><g id="Livello_2" data-name="Livello 2"><g id="wash"><path class="cls-1" d="M450.34,512.16H17.5c-5.5,0-10-6.51-10-14.46V22C7.5,14,12,7.5,17.5,7.5H450.34c5.49,0,10,6.51,10,14.46V497.7C460.33,505.65,455.83,512.16,450.34,512.16Z"/><line class="cls-2" x1="3.46" y1="152.26" x2="456.29" y2="152.26"/><line class="cls-2" x1="138.7" y1="7.5" x2="138.7" y2="152.26"/><circle class="cls-3" cx="76.23" cy="85.28" r="20.61"/><rect class="cls-4" x="209.22" y="55.12" width="72.33" height="9.55" rx="4.77" ry="4.77"/><rect class="cls-4" x="327.42" y="55.12" width="72.33" height="9.55" rx="4.77" ry="4.77"/><rect class="cls-4" x="209.22" y="96.35" width="72.33" height="9.55" rx="4.77" ry="4.77"/><rect class="cls-4" x="327.42" y="96.35" width="72.33" height="9.55" rx="4.77" ry="4.77"/><circle class="cls-1" cx="233.92" cy="338.84" r="154.34"/><circle class="cls-5" cx="424.14" cy="197.72" r="13.22"/><circle class="cls-1" cx="233.92" cy="338.84" r="89.84"/><rect class="cls-1" x="55.62" y="282.95" width="41.23" height="100.74"/></g></g></svg>