<?xml version="1.0" encoding="utf-8"?>
<!-- Generator: Adobe Illustrator 22.0.1, SVG Export Plug-In . SVG Version: 6.00 Build 0)  -->
<svg version="1.1" xmlns="http://www.w3.org/2000/svg" xmlns:xlink="http://www.w3.org/1999/xlink" x="0px" y="0px"
	 viewBox="0 0 74.8 83.6" style="enable-background:new 0 0 74.8 83.6;" xml:space="preserve">
<style type="text/css">
	.st0{fill:#328C49;stroke:#328C49;stroke-width:5;stroke-miterlimit:10;}
	.st1{display:none;}
	.st2{display:inline;fill:#B33E25;}
	.st3{display:inline;fill:#EA3518;stroke:#FFFFFF;stroke-miterlimit:10;}
	.st4{display:inline;fill:none;}
	.st5{display:inline;fill:#FFFFFF;}
	.st6{font-family:'LaoMN-Bold';}
	.st7{font-size:14px;}
	.st8{display:inline;fill:none;stroke:#333333;stroke-miterlimit:10;}
</style>
<g id="Livello_1">
	<title>Risorsa 1</title>
	<g id="Livello_2_1_">
		<g id="Livello_1-2">
			<g id="Livello_2-2">
				<g id="Livello_6">
					<path class="st0" d="M37.4,2.3L8,15.7l-3.9,1.8l-1.6,0.8v43.2l13.1,7.2L36,80l0,0l1.4,0.8l1.4-0.8l0,0l20.4-11.3l13.1-7.2V18.2
						l-1.6-0.8l-3.9-1.8L37.4,2.3 M66.7,58.1L40.2,72.8V39.5l26.5-14.7V58.1z M37.4,8.5l25.8,11.8l-16.5,9.2l-9.3,5.1l-9.3-5.1
						l-16.6-9.2L37.4,8.5 M8.2,24.8l26.4,14.7v33.3L8.2,58.1V24.8z"/>
				</g>
			</g>
		</g>
	</g>
</g>
<g id="Livello_2" class="st1">
	<polygon class="st2" points="13,20.2 13,48.9 37.4,58.8 61.8,48.6 61.8,20.2 	"/>
	<path class="st3" d="M28,40.3"/>
	<rect x="21" y="32.2" class="st4" width="32.9" height="12.3"/>
	<text transform="matrix(1 0 0 1 21.0437 42.7839)" class="st5 st6 st7">NEW</text>
</g>
<g id="Livello_3" class="st1">
	<polygon class="st8" points="46.2,28.9 46.2,40.5 34.8,40.5 34.8,51.9 23.1,51.9 23.1,40.5 11.7,40.5 11.7,28.9 23.1,28.9 
		23.1,17.4 34.8,17.4 34.8,28.9 	"/>
	<line class="st8" x1="23.1" y1="28.9" x2="34.8" y2="47.8"/>
	<line class="st8" x1="23.1" y1="51.9" x2="30.2" y2="40.3"/>
	<line class="st8" x1="34.8" y1="17.4" x2="26.7" y2="34.7"/>
</g>
</svg>
