<svg xmlns="http://www.w3.org/2000/svg" viewBox="0 0 336.4 258.8"><defs><style>.cls-1{stroke:#fff;}.cls-1,.cls-2{stroke-miterlimit:10;stroke-width:3px;}.cls-2{fill:none;stroke:#000;}</style></defs><title>Risorsa 2</title><g id="Livello_2" data-name="Livello 2"><g id="Livello_2-2" data-name="Livello 2"><circle class="cls-1" cx="210.62" cy="119.58" r="17.26"/><circle cx="83.33" cy="216.63" r="7.49"/><circle cx="203.14" cy="251.31" r="7.49"/><circle cx="90.54" cy="144.32" r="7.49"/><circle cx="105.51" cy="55.33" r="7.49"/><circle cx="7.49" cy="80.05" r="7.49"/><circle cx="155.22" cy="216.63" r="7.49"/><circle cx="250.27" cy="193.62" r="7.49"/><circle cx="328.92" cy="116.01" r="7.49"/><circle cx="298.08" cy="159.29" r="7.49"/><circle cx="250.27" cy="55.33" r="7.49"/><circle cx="321.43" cy="55.33" r="7.49"/><circle cx="166.57" cy="7.49" r="7.49"/><line class="cls-2" x1="7.49" y1="80.05" x2="210.62" y2="119.58"/><line class="cls-2" x1="105.51" y1="55.33" x2="210.62" y2="119.58"/><line class="cls-2" x1="166.57" y1="7.49" x2="210.62" y2="119.58"/><line class="cls-2" x1="90.54" y1="144.32" x2="210.62" y2="119.58"/><line class="cls-2" x1="79.68" y1="216.63" x2="210.62" y2="119.58"/><line class="cls-2" x1="155.22" y1="216.63" x2="210.62" y2="119.58"/><line class="cls-2" x1="203.14" y1="251.31" x2="210.62" y2="119.58"/><line class="cls-2" x1="250.27" y1="193.62" x2="210.62" y2="119.58"/><line class="cls-2" x1="298.08" y1="159.29" x2="210.62" y2="119.58"/><line class="cls-2" x1="250.27" y1="55.33" x2="210.62" y2="119.58"/><line class="cls-2" x1="321.43" y1="55.33" x2="210.62" y2="119.58"/><line class="cls-2" x1="328.92" y1="116.01" x2="210.62" y2="119.58"/></g></g></svg>