<svg xmlns="http://www.w3.org/2000/svg" viewBox="0 0 428.13 241.63"><defs><style>.cls-1{fill:none;stroke:#333;stroke-miterlimit:10;stroke-width:1.5px;}</style></defs><title>Risorsa 3</title><g id="Livello_2" data-name="Livello 2"><g id="Livello_2-2" data-name="Livello 2"><line class="cls-1" x1="0.72" y1="27.32" x2="45.84" y2="55.78"/><line class="cls-1" x1="23.77" y1="104.62" x2="45.84" y2="55.78"/><line class="cls-1" x1="45.84" y1="55.78" x2="177.12" y2="30.94"/><line class="cls-1" x1="189.72" y1="98.32" x2="177.12" y2="30.94"/><line class="cls-1" x1="209.49" y1="49.64" x2="177.12" y2="30.94"/><line class="cls-1" x1="70.07" y1="160.22" x2="189.72" y2="98.32"/><line class="cls-1" x1="23.77" y1="104.62" x2="0.72" y2="27.32"/><line class="cls-1" x1="70.07" y1="160.22" x2="0.72" y2="27.32"/><line class="cls-1" x1="23.77" y1="104.62" x2="70.07" y2="160.22"/><line class="cls-1" x1="45.84" y1="55.78" x2="189.72" y2="98.32"/><line class="cls-1" x1="177.12" y1="30.94" x2="70.07" y2="160.22"/><line class="cls-1" x1="0.72" y1="27.32" x2="177.12" y2="30.94"/><line class="cls-1" x1="45.84" y1="55.78" x2="70.07" y2="160.22"/><line class="cls-1" x1="177.12" y1="30.94" x2="256.95" y2="35.09"/><line class="cls-1" x1="322.66" y1="0.73" x2="177.12" y2="30.94"/><line class="cls-1" x1="209.49" y1="49.64" x2="244.34" y2="179.35"/><line class="cls-1" x1="189.72" y1="98.32" x2="244.34" y2="179.35"/><line class="cls-1" x1="77.05" y1="240.07" x2="189.72" y2="98.32"/><line class="cls-1" x1="70.07" y1="162.1" x2="77.05" y2="240.07"/><line class="cls-1" x1="244.34" y1="179.35" x2="70.07" y2="160.22"/><line class="cls-1" x1="189.72" y1="98.32" x2="264.61" y2="103.26"/><line class="cls-1" x1="209.49" y1="49.64" x2="189.72" y2="98.32"/><line class="cls-1" x1="256.95" y1="35.09" x2="264.61" y2="103.26"/><line class="cls-1" x1="328.97" y1="51.48" x2="209.49" y2="49.64"/><line class="cls-1" x1="328.97" y1="93.58" x2="328.97" y2="51.48"/><line class="cls-1" x1="264.61" y1="103.26" x2="322.66" y2="0.73"/><line class="cls-1" x1="256.95" y1="35.09" x2="328.97" y2="93.58"/><line class="cls-1" x1="328.97" y1="51.48" x2="386.39" y2="37.25"/><line class="cls-1" x1="322.66" y1="0.73" x2="386.39" y2="37.25"/><line class="cls-1" x1="328.97" y1="51.48" x2="256.95" y2="35.09"/><line class="cls-1" x1="322.66" y1="0.73" x2="427.48" y2="185.65"/><line class="cls-1" x1="244.34" y1="179.35" x2="427.48" y2="185.65"/><line class="cls-1" x1="244.34" y1="179.35" x2="328.97" y2="93.58"/><line class="cls-1" x1="264.61" y1="103.26" x2="328.97" y2="93.58"/><line class="cls-1" x1="427.48" y1="185.65" x2="264.61" y2="103.26"/><line class="cls-1" x1="244.34" y1="179.35" x2="264.61" y2="103.26"/><line class="cls-1" x1="77.33" y1="240.93" x2="244.34" y2="179.35"/><line class="cls-1" x1="328.97" y1="93.58" x2="427.48" y2="185.65"/><line class="cls-1" x1="386.39" y1="37.25" x2="328.97" y2="93.58"/></g></g></svg>