<svg xmlns="http://www.w3.org/2000/svg" viewBox="0 0 391.38 345.11"><defs><style>.cls-1,.cls-5,.cls-6{stroke:#d33535;}.cls-1,.cls-2,.cls-3,.cls-5,.cls-6{stroke-miterlimit:10;stroke-width:3px;}.cls-2{stroke:#fff;}.cls-3,.cls-6{fill:none;}.cls-3{stroke:#000;}.cls-4,.cls-5{fill:#d33535;}</style></defs><title>Risorsa 7</title><g id="Livello_2" data-name="Livello 2"><g id="Livello_1-2" data-name="Livello 1"><line class="cls-1" x1="6.57" y1="41.9" x2="104.29" y2="92.22"/><line class="cls-1" x1="61.56" y1="38.68" x2="104.29" y2="92.22"/><line class="cls-1" x1="5.05" y1="75.54" x2="104.29" y2="92.22"/><line class="cls-1" x1="120.97" y1="54.99" x2="104.29" y2="92.22"/><line class="cls-1" x1="37.46" y1="101.88" x2="104.29" y2="92.22"/><line class="cls-1" x1="71.65" y1="166" x2="104.29" y2="92.22"/><line class="cls-1" x1="79.82" y1="5.05" x2="104.29" y2="92.22"/><line class="cls-1" x1="107.58" y1="26.01" x2="104.29" y2="92.22"/><line class="cls-1" x1="104.29" y1="138.51" x2="104.29" y2="92.22"/><line class="cls-1" x1="104.29" y1="249.72" x2="173.92" y2="274.93"/><line class="cls-1" x1="139.2" y1="240.24" x2="173.92" y2="274.93"/><line class="cls-1" x1="109.33" y1="286.57" x2="173.92" y2="274.93"/><line class="cls-1" x1="97.31" y1="329.59" x2="173.92" y2="274.93"/><line class="cls-1" x1="149.58" y1="312.63" x2="173.92" y2="274.93"/><line class="cls-1" x1="176.17" y1="340.06" x2="173.92" y2="274.93"/><line class="cls-1" x1="207.65" y1="308.96" x2="173.92" y2="274.93"/><line class="cls-1" x1="212.7" y1="269.88" x2="173.92" y2="274.93"/><line class="cls-1" x1="55.43" y1="129.07" x2="104.29" y2="92.22"/><line class="cls-1" x1="104.29" y1="168.45" x2="137.94" y2="181.29"/><line class="cls-1" x1="94.2" y1="192.93" x2="137.94" y2="181.29"/><line class="cls-1" x1="115.93" y1="212.02" x2="137.94" y2="181.29"/><circle class="cls-2" cx="263.76" cy="204.2" r="11.64"/><circle class="cls-2" cx="333.93" cy="147.6" r="11.64"/><line class="cls-1" x1="104.29" y1="92.22" x2="173.92" y2="274.93"/><path class="cls-3" d="M333.93,147.6"/><circle class="cls-4" cx="120.97" cy="53.52" r="5.05"/><circle class="cls-4" cx="134.44" cy="80.58" r="5.05"/><line class="cls-1" x1="134.44" y1="80.58" x2="104.29" y2="92.22"/><circle class="cls-2" cx="199.5" cy="166" r="11.64"/><line class="cls-3" x1="104.29" y1="92.22" x2="199.5" y2="166"/><line class="cls-3" x1="173.92" y1="274.93" x2="199.5" y2="166"/><line class="cls-3" x1="333.93" y1="147.6" x2="199.5" y2="166"/><circle cx="191.38" cy="137.07" r="5.05"/><circle cx="215.81" cy="135.96" r="5.05"/><circle cx="224.16" cy="178.53" r="5.05"/><circle cx="168.87" cy="192.93" r="5.05"/><circle cx="206.09" cy="209.25" r="5.05"/><circle cx="171.12" cy="159.24" r="5.05"/><line class="cls-3" x1="191.38" y1="137.07" x2="199.5" y2="166"/><line class="cls-3" x1="215.81" y1="135.96" x2="199.5" y2="166"/><line class="cls-3" x1="224.16" y1="178.53" x2="199.5" y2="166"/><line class="cls-3" x1="206.09" y1="209.25" x2="199.5" y2="166"/><line class="cls-3" x1="168.87" y1="192.93" x2="199.5" y2="166"/><line class="cls-3" x1="171.12" y1="159.24" x2="199.5" y2="166"/><circle cx="331.54" cy="171.04" r="5.05"/><circle cx="309.33" cy="111.97" r="5.05"/><circle cx="345.57" cy="115.37" r="5.05"/><circle cx="386.33" cy="139.64" r="5.05"/><circle cx="381.28" cy="192.93" r="5.05"/><line class="cls-3" x1="309.33" y1="111.97" x2="333.93" y2="147.6"/><line class="cls-3" x1="345.57" y1="115.37" x2="333.93" y2="147.6"/><line class="cls-3" x1="331.54" y1="171.04" x2="333.93" y2="147.6"/><line class="cls-3" x1="381.28" y1="192.93" x2="333.93" y2="147.6"/><line class="cls-3" x1="386.33" y1="139.64" x2="333.93" y2="147.6"/><circle class="cls-4" cx="6.57" cy="41.9" r="5.05"/><circle class="cls-4" cx="37.46" cy="101.88" r="5.05"/><circle class="cls-4" cx="61.56" cy="38.68" r="5.05"/><circle class="cls-4" cx="71.65" cy="166" r="5.05"/><circle class="cls-4" cx="5.05" cy="75.54" r="5.05"/><circle class="cls-4" cx="55.43" cy="129.07" r="5.05"/><circle class="cls-4" cx="79.82" cy="5.05" r="5.05"/><circle class="cls-4" cx="104.29" cy="138.51" r="5.05"/><circle class="cls-4" cx="107.58" cy="26.01" r="5.05"/><circle class="cls-4" cx="212.7" cy="269.88" r="5.05"/><circle class="cls-4" cx="207.65" cy="308.96" r="5.05"/><circle class="cls-4" cx="176.17" cy="340.06" r="5.05"/><circle class="cls-4" cx="97.31" cy="329.59" r="5.05"/><circle class="cls-4" cx="149.58" cy="312.63" r="5.05"/><circle class="cls-4" cx="109.33" cy="286.57" r="5.05"/><circle class="cls-4" cx="104.29" cy="249.72" r="5.05"/><circle class="cls-4" cx="139.2" cy="240.24" r="5.05"/><circle class="cls-4" cx="115.93" cy="212.02" r="5.05"/><circle class="cls-4" cx="104.29" cy="168.45" r="5.05"/><circle class="cls-4" cx="94.2" cy="192.93" r="5.05"/><line class="cls-3" x1="308.54" y1="210.64" x2="263.76" y2="204.2"/><circle cx="309.33" cy="210.75" r="5.05"/><circle cx="254.94" cy="236.48" r="5.05"/><circle cx="288.55" cy="257.59" r="5.05"/><circle cx="293.6" cy="226.39" r="5.05"/><line class="cls-3" x1="263.76" y1="204.2" x2="254.94" y2="236.48"/><line class="cls-3" x1="288.55" y1="257.59" x2="263.76" y2="204.2"/><line class="cls-3" x1="293.6" y1="226.39" x2="263.76" y2="204.2"/><circle class="cls-4" cx="232.13" cy="105.93" r="5.05"/><circle class="cls-4" cx="254.11" cy="86.4" r="5.05"/><circle class="cls-4" cx="275.4" cy="111.97" r="5.05"/><line class="cls-1" x1="254.11" y1="86.4" x2="249.07" y2="127.48"/><line class="cls-1" x1="275.4" y1="111.97" x2="249.07" y2="127.48"/><line class="cls-1" x1="232.13" y1="105.93" x2="249.07" y2="127.48"/><circle class="cls-5" cx="137.94" cy="181.29" r="11.64"/><circle class="cls-5" cx="104.29" cy="92.22" r="11.64"/><circle class="cls-5" cx="173.92" cy="274.93" r="11.64"/><circle class="cls-5" cx="249.89" cy="127.48" r="11.64"/><line class="cls-3" x1="173.92" y1="274.93" x2="263.76" y2="204.2"/><line class="cls-3" x1="333.93" y1="147.6" x2="263.76" y2="204.2"/><line class="cls-6" x1="104.29" y1="92.22" x2="249.89" y2="127.48"/><line class="cls-3" x1="333.93" y1="147.6" x2="249.89" y2="127.48"/></g></g></svg>