<svg xmlns="http://www.w3.org/2000/svg" viewBox="0 0 363 429.97"><defs><style>.cls-1{fill:none;}.cls-1,.cls-2{stroke:#000;stroke-miterlimit:10;stroke-width:11px;}.cls-2{fill:#fff;}</style></defs><title>Risorsa 26</title><g id="Livello_2" data-name="Livello 2"><g id="Livello_20" data-name="Livello 20"><path class="cls-1" d="M179.07,376.4s-72.93,18.83-77.57,0c-4.54-18.44,64.27-33.72,56.34-51-8.61-18.76-72,9.1-82.09-8.93-6.63-11.88,192.88-60.87,184.11-114.34-6.55-39.93-159.58-27-159.58-27"/><path class="cls-2" d="M228.15,17.5V322.66a12,12,0,0,1-5.49,10.06,10.56,10.56,0,0,1-.78.87L179.07,376.4l-42.82-42.81a10.56,10.56,0,0,1-.78-.87A12,12,0,0,1,130,322.66V17.5a12,12,0,0,1,12-12h74.17A12,12,0,0,1,228.15,17.5Z"/><path class="cls-1" d="M228.15,153.56h75.94a12,12,0,0,1,12,12L357.5,412.47a12,12,0,0,1-12,12H17.5a12,12,0,0,1-12-12L41.91,165.56a12,12,0,0,1,12-12H130"/><line class="cls-1" x1="157.84" y1="5.5" x2="157.84" y2="288.23"/><line class="cls-1" x1="198.94" y1="5.5" x2="198.94" y2="288.23"/><path class="cls-1" d="M198.94,288.23c14.44,0,28.88,37.19,28.88,37.19"/><line class="cls-1" x1="157.84" y1="288.23" x2="198.94" y2="288.23"/><path class="cls-1" d="M130,322.66s13.93-34.43,27.86-34.43"/><line class="cls-1" x1="159.95" y1="357.28" x2="197.12" y2="357.28"/><line class="cls-1" x1="169.77" y1="363.9" x2="188.36" y2="363.9"/></g></g></svg>