<svg xmlns="http://www.w3.org/2000/svg" viewBox="0 0 362.14 319.33"><defs><style>.cls-1{fill:none;}.cls-1,.cls-2{stroke:#000;stroke-miterlimit:10;stroke-width:8px;}.cls-2{fill:#fff;}</style></defs><title>Risorsa 4</title><g id="Livello_2" data-name="Livello 2"><g id="Livello_4" data-name="Livello 4"><circle class="cls-1" cx="159.67" cy="159.67" r="155.67"/><path class="cls-1" d="M25.39,201S4.37,21,152.41,25.38C272.24,28.91,283.17,130,283.17,130"/><path class="cls-1" d="M66,257.66S17.29,65.49,150.63,57.3c95.89-5.89,105,95.9,105,95.9"/><path class="cls-1" d="M100.81,278.56S53.51,90,150.63,90c61.07,0,69.2,34.21,68,56.25-3.22,61.07,18.21,113.58,18.21,113.58"/><path class="cls-1" d="M140.45,291.41S89,126.9,156.47,123.19c48.8-2.67,27.66,72.93,30.05,98.58,1.42,15.16,22,56.79,22,56.79"/><path class="cls-1" d="M179,286.59S157.73,250,156.47,236.23c-1.82-19.81,0-60.52,0-80.7"/><circle class="cls-2" cx="299.85" cy="189.36" r="58.29"/><path class="cls-2" d="M317.62,223.13H282.08a12,12,0,0,1-12-12V183.28a12,12,0,0,1,12-12h35.54a12,12,0,0,1,12,12v27.85A12,12,0,0,1,317.62,223.13Z"/><path class="cls-1" d="M286,151.12s12.51-12.85,27.39,0c3.82,3.3,2.7,20.16,2.7,20.16"/></g></g></svg>