<svg xmlns="http://www.w3.org/2000/svg" viewBox="0 0 171.52 167.72"><defs><style>.cls-1,.cls-3,.cls-5{fill:none;}.cls-1,.cls-3,.cls-4,.cls-5{stroke:#d2644f;stroke-miterlimit:10;}.cls-1,.cls-4{stroke-width:7px;}.cls-2{font-size:12px;fill:#c66;font-family:Silom, Silom;}.cls-3{stroke-width:5px;}.cls-4{fill:#d2644f;}.cls-5{stroke-width:3px;}</style></defs><title>Risorsa 4</title><g id="Livello_2" data-name="Livello 2"><g id="Livello_1-2" data-name="Livello 1"><path class="cls-1" d="M102.86,17.63H68.77S82.3,3.3,86.69,3.5C91.8,3.74,102.86,17.63,102.86,17.63Z"/><path class="cls-1" d="M165.46,67.57c1.26,2.56,5.06,88,0,89-28,5.86-119.84,13.71-159.15,0-2.24-.78-5-71.35,0-89.7,2-7.38,24-19,24-19l-.29,35.77,39.06,27.63,16.76,11.87,17-11.87,37.32-26.09V42.7S161.32,59.13,165.46,67.57Z"/><polygon class="cls-1" points="140.18 17.63 140.18 85.25 102.86 111.34 85.89 123.21 69.11 111.34 30.05 83.71 30.34 47.94 30.59 17.63 140.18 17.63"/><line class="cls-1" x1="30.05" y1="83.71" x2="6.3" y2="66.9"/><line class="cls-1" x1="165.46" y1="67.57" x2="140.17" y2="85.25"/><line class="cls-1" x1="6.3" y1="156.6" x2="69.11" y2="111.35"/><line class="cls-1" x1="165.46" y1="156.6" x2="102.86" y2="111.35"/><text class="cls-2" transform="translate(56.07 33.67)">SHA -256</text><line class="cls-3" x1="45.3" y1="47" x2="126.81" y2="47"/><line class="cls-3" x1="45.66" y1="59.13" x2="127.17" y2="59.13"/><line class="cls-3" x1="45.3" y1="71.26" x2="126.81" y2="71.26"/><rect class="cls-4" x="80.58" y="140.24" width="14.04" height="11.03"/><circle class="cls-5" cx="87.6" cy="134.8" r="4.56"/></g></g></svg>