<svg xmlns="http://www.w3.org/2000/svg" viewBox="0 0 203.51 160.75"><defs><style>.cls-1,.cls-4,.cls-5{fill:#fff;}.cls-1,.cls-2,.cls-3,.cls-4,.cls-5{stroke:#3c9ba6;stroke-miterlimit:10;}.cls-1{stroke-width:8px;}.cls-2{fill:#3c9ba6;}.cls-2,.cls-3{stroke-width:4px;}.cls-3{fill:#1c6399;}.cls-4{stroke-width:3px;}.cls-5{stroke-width:2px;}</style></defs><title>miner</title><g id="Livello_4" data-name="Livello 4"><path class="cls-1" d="M273.81,241.4a15.31,15.31,0,1,1-15.32-15.3A15.31,15.31,0,0,1,273.81,241.4Z" transform="translate(-197.44 -99.97)"/><path class="cls-1" d="M357.66,242.18a1,1,0,0,1-1-1,15.09,15.09,0,0,0-30.17,0,1,1,0,0,1-1,1H274.36a1,1,0,0,1-1-1,15.09,15.09,0,0,0-30.17,0,1,1,0,0,1-1,1h-5.36a1,1,0,0,1-.91-.58l-34.39-73.44a1,1,0,0,1,.07-1,1,1,0,0,1,.84-.46H396a1,1,0,0,1,.84.45,1,1,0,0,1,.08.95L365.2,241.58a1,1,0,0,1-.92.6Z" transform="translate(-197.44 -99.97)"/><polygon class="cls-1" points="17.95 66.1 37.32 40.8 61.2 40.8 74.37 31.6 83.42 13.86 103.6 4 135.29 4 150.93 22.4 150.93 30.28 159.16 41.45 179.74 49.34 184.68 59.19 184.68 66.1 17.95 66.1"/><path class="cls-1" d="M356.88,241.4a15.31,15.31,0,1,1-15.31-15.3A15.31,15.31,0,0,1,356.88,241.4Z" transform="translate(-197.44 -99.97)"/></g><g id="Livello_3" data-name="Livello 3"><path class="cls-2" d="M305.92,200l-15.55,20.26c-.84,1.1-5.25-2.28-4.4-3.38,3.06-4,11.58-15.09,15.54-20.25Z" transform="translate(-197.44 -99.97)"/><path class="cls-2" d="M316.2,207.87,305.92,200l-4.41-3.37-9.34-7.17s5.63-1.55,6.8-.67l16,12.31C316.17,202,316.2,207.87,316.2,207.87Z" transform="translate(-197.44 -99.97)"/><path class="cls-3" d="M308.77,195.39l-2.06-1.58-2.06-1.58a2.6,2.6,0,1,1,4.12,3.16Z" transform="translate(-197.44 -99.97)"/><line class="cls-4" x1="74.37" y1="32.6" x2="122.71" y2="67.1"/><line class="cls-4" x1="150.93" y1="23.4" x2="98.54" y2="49.85"/><line class="cls-4" x1="135.29" y1="5" x2="98.54" y2="49.85"/><line class="cls-4" x1="178.74" y1="49.85" x2="165.07" y2="65.66"/><line class="cls-4" x1="159.89" y1="43.23" x2="165.07" y2="65.66"/><line class="cls-4" x1="122.71" y1="67.1" x2="161.54" y2="42.18"/><line class="cls-4" x1="128.05" y1="34.95" x2="160.88" y2="43.07"/><line class="cls-4" x1="60.83" y1="43.16" x2="17.96" y2="67.1"/><line class="cls-4" x1="78.8" y1="67.39" x2="60.83" y2="43.16"/><line class="cls-4" x1="98.54" y1="49.85" x2="69.82" y2="55.06"/><circle class="cls-5" cx="60.84" cy="141.22" r="2.67"/><circle class="cls-5" cx="144.14" cy="141.21" r="2.67"/></g></svg>