<svg xmlns="http://www.w3.org/2000/svg" viewBox="0 0 203.51 160.75"><defs><style>.cls-1,.cls-4,.cls-5{fill:#fff;}.cls-1,.cls-2,.cls-3,.cls-4,.cls-5{stroke:#000;stroke-miterlimit:10;}.cls-1{stroke-width:8px;}.cls-2,.cls-3{stroke-width:4px;}.cls-3{fill:#1c6399;}.cls-4{stroke-width:3px;}.cls-5{stroke-width:2px;}</style></defs><title>Risorsa 17</title><g id="Livello_2" data-name="Livello 2"><g id="Livello_4" data-name="Livello 4"><path class="cls-1" d="M76.37,141.44a15.31,15.31,0,1,1-15.32-15.31A15.31,15.31,0,0,1,76.37,141.44Z"/><path class="cls-1" d="M160.22,142.21a1,1,0,0,1-1-1,15.09,15.09,0,0,0-30.17,0,1,1,0,0,1-1,1H76.92a1,1,0,0,1-1-1,15.09,15.09,0,0,0-30.17,0,1,1,0,0,1-1,1H39.39a1,1,0,0,1-.91-.57L4.09,68.2A1,1,0,0,1,5,66.77H198.51a1,1,0,0,1,.84.46,1,1,0,0,1,.08.94l-31.67,73.44a1,1,0,0,1-.92.6Z"/><polygon class="cls-1" points="17.95 66.1 37.32 40.8 61.2 40.8 74.37 31.6 83.42 13.86 103.6 4 135.29 4 150.93 22.4 150.93 30.28 159.16 41.45 179.74 49.34 184.68 59.19 184.68 66.1 17.95 66.1"/><path class="cls-1" d="M159.44,141.44a15.31,15.31,0,1,1-15.31-15.31A15.3,15.3,0,0,1,159.44,141.44Z"/></g><g id="Livello_3" data-name="Livello 3"><path class="cls-2" d="M108.48,100c-4,5.14-12.45,16.22-15.55,20.26-.84,1.1-5.25-2.29-4.39-3.39,3-4,11.57-15.09,15.53-20.24Z"/><path class="cls-2" d="M118.76,107.9,108.48,100l-4.41-3.37-9.34-7.17s5.63-1.56,6.8-.67l16,12.31C118.73,102,118.76,107.9,118.76,107.9Z"/><path class="cls-3" d="M111.33,95.43l-2.06-1.58-2.06-1.58a2.6,2.6,0,1,1,4.12,3.16Z"/><line class="cls-4" x1="74.37" y1="32.6" x2="122.71" y2="67.1"/><line class="cls-4" x1="150.93" y1="23.4" x2="98.54" y2="49.85"/><line class="cls-4" x1="135.29" y1="5" x2="98.54" y2="49.85"/><line class="cls-4" x1="178.74" y1="49.85" x2="165.07" y2="65.66"/><line class="cls-4" x1="159.89" y1="43.23" x2="165.07" y2="65.66"/><line class="cls-4" x1="122.71" y1="67.1" x2="161.54" y2="42.18"/><line class="cls-4" x1="128.05" y1="34.95" x2="160.88" y2="43.07"/><line class="cls-4" x1="60.83" y1="43.16" x2="17.96" y2="67.1"/><line class="cls-4" x1="78.8" y1="67.39" x2="60.83" y2="43.16"/><line class="cls-4" x1="98.54" y1="49.85" x2="69.82" y2="55.06"/><circle class="cls-5" cx="60.84" cy="141.22" r="2.67"/><circle class="cls-5" cx="144.14" cy="141.21" r="2.67"/></g></g></svg>