<svg xmlns="http://www.w3.org/2000/svg" viewBox="0 0 300.09 382.64"><defs><style>.cls-1,.cls-5,.cls-7{fill:none;}.cls-1,.cls-5,.cls-6,.cls-7{stroke:#000;stroke-miterlimit:10;}.cls-1{stroke-width:8px;}.cls-2{font-size:12px;font-family:MyriadPro-Regular, Myriad Pro;}.cls-3,.cls-4{font-size:21px;font-family:DINCondensed-Bold, DIN Condensed;font-weight:700;}.cls-3{letter-spacing:-0.01em;}.cls-6{fill:#fff;}.cls-6,.cls-7{stroke-width:2px;}</style></defs><title>Risorsa 5</title><g id="Livello_2" data-name="Livello 2"><g id="Livello_5" data-name="Livello 5"><rect class="cls-1" x="4" y="4" width="292.09" height="374.64" rx="12" ry="12"/><polyline class="cls-1" points="296.09 60.7 266.18 60.84 236.26 60.27 236.26 30.53 236.26 0.8"/><line class="cls-1" x1="47.46" y1="94.49" x2="242.81" y2="94.49"/><line class="cls-1" x1="52.92" y1="147.96" x2="242.81" y2="147.96"/><line class="cls-1" x1="52.92" y1="212.35" x2="242.81" y2="212.35"/><text class="cls-2"><tspan x="27.82" y="295.18" xml:space="preserve">            </tspan><tspan class="cls-3" x="58.34" y="295.18">F</tspan><tspan class="cls-4" x="65.86" y="295.18">irma</tspan><tspan x="55.05" y="323.98" xml:space="preserve">    A   2   X    4    D   G   4   6   A   F   G</tspan></text><line class="cls-5" x1="52.92" y1="334.58" x2="242.81" y2="334.58"/><path class="cls-6" d="M110.45,294.62h-5.7a1.93,1.93,0,0,1-1.92-1.93v-4.46a1.93,1.93,0,0,1,1.92-1.93h5.7a1.94,1.94,0,0,1,1.92,1.93v4.46A1.94,1.94,0,0,1,110.45,294.62Z"/><path class="cls-7" d="M105.37,286.3a11.3,11.3,0,0,1,0-3.23c.41-1,2-2.06,4.39,0,.61.53.44,3.23.44,3.23"/><text class="cls-4" transform="translate(40.62 39.27)">12/12/12</text><path class="cls-6" d="M111.45,36.62h-5.7a1.93,1.93,0,0,1-1.92-1.93V30.23a1.93,1.93,0,0,1,1.92-1.93h5.7a1.94,1.94,0,0,1,1.92,1.93v4.46A1.94,1.94,0,0,1,111.45,36.62Z"/><path class="cls-7" d="M106.37,28.3a11.3,11.3,0,0,1,0-3.23c.41-1,2-2.06,4.39,0,.61.53.44,3.23.44,3.23"/></g></g></svg>