<svg xmlns="http://www.w3.org/2000/svg" viewBox="0 0 710.8 386.66"><defs><style>.cls-1,.cls-5,.cls-7{fill:none;}.cls-1,.cls-5,.cls-6,.cls-7{stroke:#000;stroke-miterlimit:10;}.cls-1{stroke-width:8px;}.cls-2{font-size:12px;font-family:MyriadPro-Regular, Myriad Pro;}.cls-3,.cls-4{font-size:21px;font-family:DINCondensed-Bold, DIN Condensed;font-weight:700;}.cls-3{letter-spacing:-0.01em;}.cls-6{fill:#fff;}.cls-6,.cls-7{stroke-width:2px;}.cls-8{fill:#bc3b3b;}.cls-9{letter-spacing:-0.04em;}</style></defs><title>Risorsa 6</title><g id="Livello_2" data-name="Livello 2"><g id="Livello_5" data-name="Livello 5"><rect class="cls-1" x="4" y="8.02" width="292.09" height="374.64" rx="12" ry="12"/><polyline class="cls-1" points="296.09 64.72 266.18 64.86 236.26 64.29 236.26 34.55 236.26 4.82"/><line class="cls-1" x1="47.46" y1="98.51" x2="159.17" y2="98.51"/><line class="cls-1" x1="50.58" y1="151.99" x2="218.93" y2="151.99"/><line class="cls-1" x1="50.58" y1="216.38" x2="159.17" y2="216.38"/><text class="cls-2"><tspan x="27.82" y="299.21" xml:space="preserve">            </tspan><tspan class="cls-3" x="58.34" y="299.21">F</tspan><tspan class="cls-4" x="65.86" y="299.21">irma</tspan><tspan x="59.99" y="328.01" xml:space="preserve">    B   3   C  5   F   H   5   7   S   G   H</tspan></text><line class="cls-5" x1="52.92" y1="338.61" x2="242.81" y2="338.61"/><path class="cls-6" d="M110.45,298.64h-5.7a1.93,1.93,0,0,1-1.92-1.93v-4.46a1.93,1.93,0,0,1,1.92-1.93h5.7a1.94,1.94,0,0,1,1.92,1.93v4.46A1.94,1.94,0,0,1,110.45,298.64Z"/><path class="cls-7" d="M105.37,290.32a11.3,11.3,0,0,1,0-3.23c.41-1,2-2.06,4.39,0,.61.53.44,3.23.44,3.23"/><text class="cls-4" transform="translate(40.62 43.29)">12/12/12</text><path class="cls-6" d="M111.45,40.64h-5.7a1.93,1.93,0,0,1-1.92-1.93V34.25a1.93,1.93,0,0,1,1.92-1.93h5.7a1.94,1.94,0,0,1,1.92,1.93v4.46A1.94,1.94,0,0,1,111.45,40.64Z"/><path class="cls-7" d="M106.37,32.32a11.3,11.3,0,0,1,0-3.23c.41-1,2-2.06,4.39,0,.61.53.44,3.23.44,3.23"/><rect class="cls-8" x="190.35" y="22.67" width="10.16" height="30.9" rx="5.08" ry="5.08"/><rect class="cls-8" x="190.35" y="22.67" width="10.16" height="30.9" rx="5.08" ry="5.08" transform="translate(233.54 -157.31) rotate(90)"/><rect class="cls-1" x="414.71" y="4" width="292.09" height="374.64" rx="12" ry="12"/><polyline class="cls-1" points="706.8 60.7 676.88 60.84 646.97 60.27 646.97 30.53 646.97 0.8"/><line class="cls-1" x1="458.17" y1="94.49" x2="606.13" y2="94.49"/><line class="cls-1" x1="461.29" y1="147.96" x2="535.72" y2="147.96"/><line class="cls-1" x1="461.29" y1="212.35" x2="569.88" y2="212.35"/><text class="cls-2"><tspan x="438.52" y="295.18" xml:space="preserve">            </tspan><tspan class="cls-3" x="469.05" y="295.18">F</tspan><tspan class="cls-4" x="476.57" y="295.18">irma</tspan><tspan x="472.98" y="323.98" xml:space="preserve">   N   4  </tspan><tspan class="cls-9" x="507.38" y="323.98"> </tspan><tspan x="509.49" y="323.98" xml:space="preserve">V  6   G   J   6   8   D   H   J</tspan></text><line class="cls-5" x1="463.63" y1="334.58" x2="653.52" y2="334.58"/><path class="cls-6" d="M521.15,294.62h-5.69a1.94,1.94,0,0,1-1.93-1.93v-4.46a1.94,1.94,0,0,1,1.93-1.93h5.69a1.94,1.94,0,0,1,1.93,1.93v4.46A1.94,1.94,0,0,1,521.15,294.62Z"/><path class="cls-7" d="M516.08,286.3a11.3,11.3,0,0,1,0-3.23c.41-1,2-2.06,4.39,0,.61.53.43,3.23.43,3.23"/><text class="cls-4" transform="translate(451.33 39.27)">12/12/13</text><path class="cls-6" d="M522.15,36.62h-5.69a1.94,1.94,0,0,1-1.93-1.93V30.23a1.94,1.94,0,0,1,1.93-1.93h5.69a1.94,1.94,0,0,1,1.93,1.93v4.46A1.94,1.94,0,0,1,522.15,36.62Z"/><path class="cls-7" d="M517.08,28.3a11.3,11.3,0,0,1,0-3.23c.41-1,2-2.06,4.39,0,.61.53.43,3.23.43,3.23"/><rect class="cls-8" x="601.05" y="18.64" width="10.16" height="30.9" rx="5.08" ry="5.08"/><rect class="cls-8" x="601.05" y="18.64" width="10.16" height="30.9" rx="5.08" ry="5.08" transform="translate(640.23 -572.04) rotate(90)"/><rect x="308.08" y="169.41" width="27.74" height="7.96" rx="3.98" ry="3.98"/><rect x="340.41" y="169.41" width="27.74" height="7.96" rx="3.98" ry="3.98"/><rect x="372.74" y="169.41" width="27.74" height="7.96" rx="3.98" ry="3.98"/><path class="cls-6" d="M359.75,163.62H346.88a4.37,4.37,0,0,1-4.35-4.35V149.18a4.37,4.37,0,0,1,4.35-4.35h12.87a4.37,4.37,0,0,1,4.35,4.35v10.09A4.37,4.37,0,0,1,359.75,163.62Z"/><path class="cls-7" d="M348.29,144.83s-.62-4.39.07-6.08c.93-2.3,6.23-5.93,10.36-.35,1.09,1.46.47,6.43.47,6.43"/></g></g></svg>