<svg id="Livello_1" data-name="Livello 1" xmlns="http://www.w3.org/2000/svg" viewBox="0 0 559.07 271.59"><defs><style>.cls-1{fill:#333;}.cls-2{fill:none;stroke:#333;stroke-miterlimit:10;stroke-width:0.75px;}</style></defs><title>world</title><path class="cls-1" d="M150.72,438.63a13.74,13.74,0,0,1-5-1.19l-.22-.09-.19-3.09-.51,0a14.28,14.28,0,0,1-1.84-.16c-3.56-.64-6.06-2.84-7.64-6.72a17.3,17.3,0,0,0-2.79-4.57,3.19,3.19,0,0,1-1.08-2.31,2.36,2.36,0,0,1,1.08-1.57c.68-.51.54-.87.25-1.6-.06-.16-.13-.32-.18-.49A11.49,11.49,0,0,0,129,411a2,2,0,0,1-.55-1.51c-.09-1.2-.3-2.41-.5-3.58a20.52,20.52,0,0,1-.34-7.45,16.7,16.7,0,0,0-.43-6c-.17-.89-.35-1.81-.46-2.71-.09-.67-.19-1.33-.28-2-.16-1.08-.33-2.2-.42-3.3-.2-2.25-.4-4.91-.44-7.62a23.24,23.24,0,0,1,.28-3.44c0-.34.09-.69.13-1,.46-3.87-1.11-7.11-4.93-10.21a27.58,27.58,0,0,0-3.4-2.22c-.79-.45-1.6-.93-2.37-1.45a7.8,7.8,0,0,1-2.08-2.09,56.42,56.42,0,0,1-2.94-4.94c-.62-1.18-1.21-2.37-1.8-3.57s-1.35-2.76-2.08-4.1a15.33,15.33,0,0,0-2.28-3.14A6.27,6.27,0,0,1,103,332.8a1.89,1.89,0,0,0,.28-1c-1.74-2.88-.3-5.16,1-7.17.25-.38.49-.77.71-1.15a22.6,22.6,0,0,1,2.44-3.29l.55-.66a5.61,5.61,0,0,0,.75-6.42,7.16,7.16,0,0,1-.4-1.24,6.69,6.69,0,0,0-.32-1.07,4.84,4.84,0,0,0-1.21-1.93,3,3,0,0,0-1.27.81c-1.05,1.51-2.4,1.81-4.11.91-.52-.27-1.06-.52-1.61-.77A12.23,12.23,0,0,1,96,307.52,25.12,25.12,0,0,1,92.25,302l-.41-.72c-.72-1.29-1.34-2-2.69-2A9.24,9.24,0,0,1,82.08,296c-1.37-1.59-2.53-2.66-5.08-1.91-1.82.52-4.1-.38-6.1-1.18l-.47-.19a59.7,59.7,0,0,1-5.86-2.83l-2-1c-2.17-1.11-3-2.92-2.35-4.85.94-2.6-.41-4.31-1.84-6.11l-.39-.5a34.09,34.09,0,0,1-6-12,13,13,0,0,0-.86-2c-.1-.22-.21-.43-.31-.65a1.91,1.91,0,0,0-1.16.77c-.24.47,0,1.11.25,1.79l.1.27q2.14,5.9,4.25,11.8a1.64,1.64,0,0,1,0,.76l0,.24v.31l-.31,0-.32,0v0l-.1,0a3.27,3.27,0,0,1-2.08-.68,3.42,3.42,0,0,1-1.25-2.41l0-.44c0-.48-.08-1.19-.3-1.36-1.7-1.31-2-3-2.29-4.71-.08-.46-.16-.92-.27-1.39a70,70,0,0,1-1.32-7.4,4.32,4.32,0,0,0-1.44-2,11.46,11.46,0,0,1-1.12-1.2,6.77,6.77,0,0,1-1.29-2.28,58,58,0,0,1-1.13-5.9c-.39-2.7-.43-5.61,1.9-8.56a36.69,36.69,0,0,0,3.93-7A49,49,0,0,1,49.71,228a3.81,3.81,0,0,1,1.08-3.43c.52-.58.84-.92.31-2.3l.7-.27c.69,1.81.11,2.45-.45,3.07a3.15,3.15,0,0,0-.89,3l0,.13-.07.11a50.42,50.42,0,0,0-2.86,5.46,36.4,36.4,0,0,1-4,7.12c-2.16,2.74-2.12,5.46-1.75,8,.31,2.15.68,4,1.12,5.83a6,6,0,0,0,1.16,2,11.91,11.91,0,0,0,1,1.12,4.67,4.67,0,0,1,1.66,2.45,71.58,71.58,0,0,0,1.31,7.32c.12.48.2,1,.28,1.43.29,1.67.54,3.11,2,4.24.49.38.55,1.19.59,1.91,0,.14,0,.28,0,.42a2.74,2.74,0,0,0,1,1.9,3,3,0,0,0,.54.32l.14-.11a1.47,1.47,0,0,0,.54.17l.44.11a.94.94,0,0,0,0-.37q-2.1-5.91-4.24-11.79l-.1-.26a3,3,0,0,1-.21-2.4A2.83,2.83,0,0,1,51,261.93l.31-.09.13.3c.13.3.28.61.43.92a13.06,13.06,0,0,1,.91,2.17,33.56,33.56,0,0,0,5.84,11.71l.39.5c1.42,1.79,3,3.83,2,6.82-.8,2.22,1.13,3.49,2,3.93l2,1A58.16,58.16,0,0,0,70.71,292l.47.19c1.89.76,4,1.61,5.61,1.16,3-.87,4.41.46,5.86,2.14a8.48,8.48,0,0,0,6.52,3c1.87.05,2.64,1.14,3.32,2.36l.41.72A24.76,24.76,0,0,0,96.57,307a11.47,11.47,0,0,0,3.53,2.11c.56.25,1.12.51,1.65.79a2.12,2.12,0,0,0,3.15-.68,3.25,3.25,0,0,1,1.76-1.08.68.68,0,0,1,.56.1,5.19,5.19,0,0,1,1.43,2.18,5.88,5.88,0,0,1,.39,1.24,5.9,5.9,0,0,0,.35,1.1,6.3,6.3,0,0,1-.85,7.22l-.56.67a21.91,21.91,0,0,0-2.36,3.17c-.22.39-.47.79-.72,1.18-1.27,2-2.46,3.9-1,6.38.32.52-.07,1.41-.26,1.77a5.53,5.53,0,0,0,1,7,16.16,16.16,0,0,1,2.4,3.3c.74,1.36,1.43,2.77,2.1,4.13.58,1.19,1.16,2.38,1.78,3.55a56.58,56.58,0,0,0,2.91,4.88,7.11,7.11,0,0,0,1.87,1.88c.75.51,1.55,1,2.33,1.43a27.85,27.85,0,0,1,3.49,2.28c4,3.27,5.7,6.73,5.21,10.87,0,.35-.09.7-.13,1.05a22,22,0,0,0-.28,3.33c0,2.69.24,5.33.43,7.56.1,1.09.26,2.19.42,3.26.1.67.2,1.33.28,2,.11.87.28,1.78.45,2.66a17.19,17.19,0,0,1,.44,6.23,20.28,20.28,0,0,0,.34,7.19,36.22,36.22,0,0,1,.51,3.66c.06.78.22.94.26,1a12.16,12.16,0,0,1,3.85,6.22c0,.15.11.3.17.45a1.77,1.77,0,0,1-.5,2.47,1.71,1.71,0,0,0-.79,1.05c-.06.53.4,1.15.91,1.75a17.7,17.7,0,0,1,2.91,4.77c1.5,3.67,3.75,5.66,7.08,6.26a13.74,13.74,0,0,0,1.74.15l.86,0,.33,0,.2,3.27c2.65,1,5,1.66,7.82.23l-1.44-.78c-1.6-.86-3-1.63-4.45-2.44l-.28-.15c-.71-.39-1.51-.83-1.67-1.5q-.1-.45-.24-.9c-.44-1.55-.93-3.31.64-4.95a1.84,1.84,0,0,0,.34-1.5c-.45-1.33-1-2.62-1.58-4l-.69-1.62,0-.12,0-.13a15.57,15.57,0,0,1,.77-1.79c1-2.07,1.92-4-.73-6.19l-.43-.34.48-.27a4.13,4.13,0,0,1,1.94-.38c.63,0,1.18,0,1.44-.34a1.74,1.74,0,0,0,.2-1.29,3.15,3.15,0,0,1,.59-2.56,3.55,3.55,0,0,1,2.82-.87c1.66,0,2.83-.37,3.42-1.17s.61-2.13,0-3.83c-.22-.63-.51-1.26-.81-1.93l-.46-1-.3-.69.74.18c4.7,1.18,5.48.61,7.71-3.16l.31-.52a20.23,20.23,0,0,0,2.83-6.27c.4-1.88.89-3.76,1.38-5.58l.26-1,.12-.53a3.49,3.49,0,0,1,.79-1.86c2.6-2.42,5.59-4.65,9.77-4.68a2.48,2.48,0,0,0,1.55-1.26,34.87,34.87,0,0,0,3.06-16.29,3.11,3.11,0,0,1,.28-1.85c.64-1,1.33-1.9,2-2.82.88-1.2,1.78-2.44,2.58-3.7a15,15,0,0,0,2.27-4.75,9.32,9.32,0,0,0-.48-4.62,3.34,3.34,0,0,0-1.14-.4,6.55,6.55,0,0,1-1.16-.34,10.08,10.08,0,0,1-1.78-1.06c-.46-.33-.9-.7-1.33-1.07a8.25,8.25,0,0,0-2.66-1.76,23.71,23.71,0,0,0-5.35-.85L174,332a7.86,7.86,0,0,0-.85,0c-1.25,0-2.81,0-2.86-2.41a1.66,1.66,0,0,0-.67-.38c-1.37-.16-2.76-.26-4.11-.36l-1.16-.08-.15,0a.88.88,0,0,1-1-.76l-.07-.06h0c0-.08,0-.16,0-.22s0-.1,0-.16h0c-.27-.08-.31-.35-.35-.6v-.06c-.24-.15-.51-.29-.78-.43-.71-.37-1.44-.74-1.69-1.39a21.79,21.79,0,0,1-.79-3,17.61,17.61,0,0,0-.89-3.26,7.88,7.88,0,0,0-2.93-3.34,6.76,6.76,0,0,0-3.67-.57,7.19,7.19,0,0,1-6-2.56l-3.26-3.67c-.69-.78-1.39-1.55-2.08-2.32l-1.09-1.22.05-.19c.05,0,0,0,0,0a2.57,2.57,0,0,0-.52.21,3.25,3.25,0,0,1-.7.26c-4.32,1-7.52.56-10.05-1.41a5.44,5.44,0,0,0-6.16-.72l-.38.17-.12-.4a1.86,1.86,0,0,0-1.17-1.31,2.09,2.09,0,0,0-1.89.56,7.86,7.86,0,0,0-.56.58c-.48.51-1,1.05-1.55,1-1.43-.05-1.9.7-2.55,1.76l-.37.59c-.53.81-2.31,2.46-3.13,2.06-2.33-1.15-4.56-.72-6.92-.27a2.58,2.58,0,0,1-1.54-.17c-2.26-1-4-4.69-3.53-7.22.11-.55.24-1.1.37-1.64s.32-1.34.44-2c.24-1.28.2-2-.12-2.36s-1-.54-2.38-.52a21.77,21.77,0,0,0-2.66.26l-.82.11a2.06,2.06,0,0,1-1.92-.64,2,2,0,0,1-.2-2c.27-.76.61-1.5.94-2.22s.57-1.23.81-1.86.48-1.13.8-1.81a18.93,18.93,0,0,0,1.2-3l-.83-.06c-.54,0-.89-.06-1.25-.06-2.16,0-3.57.2-4.71,2.36s-3.77,4.63-7,3.77a7.49,7.49,0,0,1-4.27-3.67,8.6,8.6,0,0,1-1.19-6.17l.08-.28c1.22-4.55,2.48-9.23,6.69-11.78h0a12.17,12.17,0,0,1,2.87-1.24c1.37-1.19,2.65-1.08,4.29-.54s4,.82,4.76.15c2-1.66,3.74-2.39,6.11-.93a2.35,2.35,0,0,0,1,.22h.11a4.64,4.64,0,0,1,4.6,4.73,24,24,0,0,0,.56,3.48c.09.41.17.81.25,1.21,1,0,1.72,0,2-.26s.25-.72.26-1.65a13.79,13.79,0,0,0-.15-1.78c-.06-.43-.12-.86-.14-1.28s-.09-.91-.15-1.37c-.25-1.93-.53-4.11,1.44-5.74l1.2-1a35.64,35.64,0,0,1,6.54-4.68c1.66-.93,3.3-3,3.2-5.07-.07-1.4-.14-2.84,2.09-3.55a7.75,7.75,0,0,0,2.68-2c.33-.33.64-.65,1-.94a15.64,15.64,0,0,1,7.62-4.24.71.71,0,0,0,.43-.3c1.45-3.21,4.27-4.24,7-5.24a23.14,23.14,0,0,0,3.31-1.4,2.51,2.51,0,0,1,2.82,0,.47.47,0,0,1,.29.42c0,.45-.5.8-1.6,1.47a9.76,9.76,0,0,0-1.17.79l.25.49c.94.14,6.51-1.94,8.06-3.16-.32-.13-.94-.3-1.42-.43a9.86,9.86,0,0,1-3-1.13,2.12,2.12,0,0,1-1-1.47,2.48,2.48,0,0,1,1-1.78c.58-.59.93-1,.81-1.44a3.23,3.23,0,0,0-1.44-.24c-.92,0-2-.08-2.12-.92a.82.82,0,0,1,.2-.82c.88-1.12,4.69-2.53,6.71-2.2,5.12.84,9.5-1,13.46-3.07a3.33,3.33,0,0,0,1-2.43c-4.61-2.12-5.51-2.75-6-7.72,0-.35-.05-.8-.06-1.28a9.75,9.75,0,0,0-.39-3A5.35,5.35,0,0,0,159.3,207a10.19,10.19,0,0,1-1.61,1.18c-.08,0-1.95,1-2.72.43a3.68,3.68,0,0,1-1.38-2.83c.2-1.81-.53-2.83-2.38-3.31a20.24,20.24,0,0,0-3-.45c-.45,0-.9-.08-1.35-.14a2.87,2.87,0,0,0-3.42,2.06,4.28,4.28,0,0,1-.82,1.19,4.5,4.5,0,0,0-.63.82l-.22.4a9.53,9.53,0,0,0-1.15,2.77,7.17,7.17,0,0,1-4.07,5.38c-2.39,1.24-3.81,2.36-4.44,4.71a6,6,0,0,1-2,2.54,10.82,10.82,0,0,0-.9.88l-.2.21-.25-.13c-3.45-1.74-2.59-4-1.83-5.94.15-.38.3-.77.42-1.16-.72-.32-1.43-.66-2.14-1a35.58,35.58,0,0,0-5.54-2.28,6.78,6.78,0,0,1-4.72-4.44,2.22,2.22,0,0,1,.69-2.11c1.88-1.46,4-2.95,6.51-4.7l.38-.26a28.68,28.68,0,0,1,4.36-2.63,10.29,10.29,0,0,1,2.66-.67c.49-.08,1-.16,1.45-.27l.87-.24a14.31,14.31,0,0,1,2-.46l.1.74a13.4,13.4,0,0,0-1.89.44c-.3.09-.6.17-.91.24-.49.12-1,.21-1.5.29a9.41,9.41,0,0,0-2.47.62,28.37,28.37,0,0,0-4.25,2.56l-.38.26c-2.55,1.74-4.6,3.22-6.47,4.67a1.59,1.59,0,0,0-.45,1.24,6,6,0,0,0,4.22,4,35.78,35.78,0,0,1,5.66,2.32c.8.39,1.61.77,2.43,1.13l.29.13-.08.31a14,14,0,0,1-.54,1.54c-.74,1.93-1.34,3.47,1.22,4.87.23-.23.49-.47.76-.72a5.26,5.26,0,0,0,1.73-2.18c.77-2.87,2.72-4.09,4.83-5.18a6.46,6.46,0,0,0,3.67-4.83,9.83,9.83,0,0,1,1.24-3l.21-.4a5.23,5.23,0,0,1,.72-1,3.45,3.45,0,0,0,.69-1,3.61,3.61,0,0,1,4.22-2.53l1.32.13a21.13,21.13,0,0,1,3.13.47c2.19.57,3.18,2,2.93,4.12a3,3,0,0,0,1.1,2.16,3.05,3.05,0,0,0,1.9-.5,9.11,9.11,0,0,0,1.48-1.1,5.68,5.68,0,0,1,2.85-1.61h.13c.77.2.87,1.56,1,3.77,0,.47,0,.91.06,1.24.44,4.78,1.25,5.15,5.75,7.21l.22.1v.24c0,1.07-.44,2.81-1.43,3.33-4.08,2.15-8.59,4-13.93,3.15a9.77,9.77,0,0,0-5.79,1.71c-.24.2-.29.33-.29.36.07.33.89.36,1.44.38.8,0,1.63.07,2,.55l.06.11c.36,1-.37,1.7-1,2.3-.42.42-.82.82-.79,1.2s.26.58.72.91a9.5,9.5,0,0,0,2.72,1c1.36.37,2,.55,2.1,1a.54.54,0,0,1-.14.52c-1.05,1-8.09,4.17-9.26,3.42l-.08,0-.4-.77a.49.49,0,0,1-.09-.35c0-.4.54-.73,1.57-1.36a12.33,12.33,0,0,0,1.1-.72,1.67,1.67,0,0,0-1.78.12,24.5,24.5,0,0,1-3.5,1.49c-2.7,1-5.26,1.91-6.57,4.84a1.49,1.49,0,0,1-1,.73,15,15,0,0,0-7.26,4.06c-.31.28-.62.59-.93.9a8,8,0,0,1-3,2.23c-1.61.52-1.65,1.32-1.58,2.8.12,2.42-1.72,4.73-3.59,5.77l-.18-.32.17.33a34.94,34.94,0,0,0-6.39,4.58l-1.21,1c-1.66,1.36-1.42,3.16-1.18,5.06.06.48.12.95.15,1.42s.09.82.14,1.23a14.6,14.6,0,0,1,.16,1.89c0,1,0,1.74-.49,2.17s-1.34.5-2.81.48h-.31l0-.3c-.09-.49-.2-1-.3-1.5a24.75,24.75,0,0,1-.58-3.58,3.91,3.91,0,0,0-3.91-4h-.11a2.94,2.94,0,0,1-1.35-.32c-2-1.24-3.39-.65-5.23.87-1.52,1.24-5.08.12-5.48,0-1.46-.48-2.45-.56-3.51.36a.94.94,0,0,1-.33.19,11.85,11.85,0,0,0-1.77.67,2.87,2.87,0,0,1-1,.53c-4,2.43-5.16,6.93-6.34,11.3l-.08.29a7.93,7.93,0,0,0,1.12,5.6,6.78,6.78,0,0,0,3.81,3.31c2.85.75,5.12-1.36,6.19-3.4,1.46-2.76,3.52-2.75,5.52-2.74.34,0,.67,0,1.16.06l1,.06h0a.52.52,0,0,1,.43.25c.31.48-.1,1.48-1.17,3.81-.31.67-.6,1.3-.78,1.77-.25.65-.54,1.29-.83,1.9s-.66,1.43-.92,2.17a1.31,1.31,0,0,0,.09,1.27,1.35,1.35,0,0,0,1.24.37l.81-.11a20.82,20.82,0,0,1,2.75-.27c1.61,0,2.48.21,3,.78s.56,1.44.28,3c-.13.69-.29,1.38-.45,2.06s-.25,1.08-.36,1.62c-.44,2.2,1.15,5.49,3.1,6.39a1.9,1.9,0,0,0,1.09.12c2.38-.46,4.84-.93,7.39.33a5.16,5.16,0,0,0,2.18-1.8l.35-.57c.66-1.08,1.36-2.2,3.22-2.12.24,0,.66-.45,1-.78s.43-.46.64-.64a2.85,2.85,0,0,1,2.58-.71,2.48,2.48,0,0,1,1.53,1.42,6.1,6.1,0,0,1,6.55,1c2.34,1.82,5.33,2.23,9.42,1.27a2.68,2.68,0,0,0,.55-.21,3.24,3.24,0,0,1,.66-.26.81.81,0,0,1,.78.16.69.69,0,0,1,.19.53l.85.93,2.08,2.33q1.64,1.83,3.26,3.68a6.39,6.39,0,0,0,5.43,2.3,7.39,7.39,0,0,1,4.11.68,8.7,8.7,0,0,1,3.22,3.69,18.35,18.35,0,0,1,.94,3.39,19,19,0,0,0,.76,2.92c.14.38.74.69,1.33,1,.27.14.54.28.78.43h0c.27.08.32.34.36.6l.08,0a1,1,0,0,1,.34.7,1.7,1.7,0,0,0,.1.37h.16l1.46.11c1.36.1,2.77.2,4.14.36.45.05,1.33.55,1.34,1.11,0,1.67.86,1.67,2.12,1.67.3,0,.61,0,.91,0l1.35.12a24.54,24.54,0,0,1,5.52.88,9,9,0,0,1,2.92,1.91,15.59,15.59,0,0,0,1.28,1,9,9,0,0,0,1.64,1,7.1,7.1,0,0,0,1,.3c.81.2,1.51.36,1.68.9a10.14,10.14,0,0,1,.51,5,15.91,15.91,0,0,1-2.37,5c-.82,1.29-1.73,2.54-2.61,3.74-.66.91-1.35,1.85-2,2.8a2.57,2.57,0,0,0-.15,1.37,35.58,35.58,0,0,1-3.13,16.66,3.11,3.11,0,0,1-2.22,1.7c-3.93,0-6.78,2.17-9.27,4.48a3.06,3.06,0,0,0-.57,1.47c0,.19-.08.38-.13.56l-.26,1c-.48,1.81-1,3.69-1.36,5.55a21,21,0,0,1-2.93,6.49l-.31.52c-2.24,3.79-3.32,4.7-7.8,3.69,0,.11.11.22.15.33.31.68.6,1.33.84,2,.67,1.94.63,3.45-.13,4.5s-2.09,1.54-4,1.49a2.92,2.92,0,0,0-2.25.63,2.43,2.43,0,0,0-.4,2,2.36,2.36,0,0,1-.38,1.86,2.62,2.62,0,0,1-2,.6,6,6,0,0,0-1.05.09c2.5,2.37,1.41,4.65.44,6.66a15.87,15.87,0,0,0-.68,1.57l.63,1.47c.59,1.38,1.15,2.69,1.61,4.06a2.59,2.59,0,0,1-.52,2.25c-1.27,1.33-.88,2.73-.46,4.22.09.32.18.63.25.94s.82.75,1.3,1l.29.16c1.41.81,2.84,1.57,4.43,2.43l2.64,1.43-.57.33A8.42,8.42,0,0,1,150.72,438.63ZM95,282.94h0Zm52.64-48.74h0Zm362.7,172.36H510a31.64,31.64,0,0,1-3.54-.69c-.88-.2-1.78-.42-2.67-.56-1.94-.32-2.75-1.37-2.56-3.31,0-.24.06-.48.09-.72a3.06,3.06,0,0,0-.16-2.24,2.12,2.12,0,0,0-1.5-.68c-.43-.06-.57-.55-.77-1.22-.07-.24-.14-.49-.23-.72l.69-.28a7.3,7.3,0,0,1,.26.79,5.58,5.58,0,0,0,.24.7,2.76,2.76,0,0,1,1.91,1,3.69,3.69,0,0,1,.3,2.8l-.09.68c-.15,1.56.37,2.24,1.94,2.5.92.15,1.83.36,2.72.57a31.08,31.08,0,0,0,3.46.67,4.42,4.42,0,0,0,1.91-.45c.26-.11.53-.21.78-.29L513,405c1.28-.42,2.59-.85,3.84-1.37l.22-.09a6.14,6.14,0,0,0,2.14-1.19c.89-.91,1.75-1.9,2.58-2.85a36.51,36.51,0,0,1,4.82-4.89c2.2-1.74,3.83-3.14,4.85-5.37,2.51-5.53,4.24-10.54-.1-15.82a45.14,45.14,0,0,1-4.39-6.89c-.51-.91-1-1.83-1.55-2.73a1.3,1.3,0,0,1,0-.91,1.18,1.18,0,0,0,0-.43l-.33-1.93a54,54,0,0,0-1.18-5.76,10.77,10.77,0,0,0-1.6-3l-.56-.85c-.29-.46-.71-.82-.88-.82h0a1.37,1.37,0,0,0-.75.78,30.56,30.56,0,0,0-.91,4.71c-.23,2.33-1.65,3.84-3,5.31-.29.31-.59.63-.87,1a1.61,1.61,0,0,1-1.74.06,16.24,16.24,0,0,0-2.4-1.32c-1.79-.87-3.64-1.76-4.19-3.67l.72-.2c.46,1.58,2.08,2.36,3.79,3.19A18.61,18.61,0,0,1,514,361.3a1.11,1.11,0,0,0,.76,0c.26-.3.56-.62.86-.94,1.35-1.44,2.62-2.8,2.82-4.87a33,33,0,0,1,.93-4.83,2,2,0,0,1,1.46-1.34h0c.76,0,1.44,1,1.52,1.16.17.28.36.56.55.84a11.63,11.63,0,0,1,1.69,3.21,52.34,52.34,0,0,1,1.2,5.85l.33,1.92a2.09,2.09,0,0,1,0,.71,1.47,1.47,0,0,0,0,.38c.53.9,1,1.83,1.56,2.75a44.88,44.88,0,0,0,4.31,6.77c4.62,5.61,2.82,10.85.2,16.61-1.17,2.57-3.15,4.14-5.07,5.65a36.15,36.15,0,0,0-4.71,4.79c-.84,1-1.7,2-2.61,2.88a7.12,7.12,0,0,1-2.39,1.37l-.22.09c-1.28.52-2.61,1-3.89,1.38l-.18.06c-.25.08-.49.18-.74.27A5.65,5.65,0,0,1,510.32,406.56ZM460.67,398l-.76-1.15.09-.19c.13-.3.26-.61.38-.92a12.24,12.24,0,0,1,1-2.06c1.08-1.63,1.91-3.14,1.28-5.25a10.81,10.81,0,0,1-.18-3.94l0-.67c.21-3.49.43-7.11.89-10.66a3.57,3.57,0,0,1,2-2.4c1.34-.53,2.73-1,4.07-1.41a44.77,44.77,0,0,0,5.82-2.18,15.4,15.4,0,0,0,3.67-2.84c.54-.52,1.11-1.05,1.69-1.54.28-.23.57-.45.87-.67a12.68,12.68,0,0,0,1.31-1.07l.1-.11a38.89,38.89,0,0,0,3.33-3.59,5.67,5.67,0,0,1,8.72-1.09c2.75-5.72,7.27-7.23,14.6-4.9l-.23.71c-7.07-2.24-11.36-.72-13.89,4.94l-.2.46-.38-.33a5.74,5.74,0,0,0-4.3-1.67,5.52,5.52,0,0,0-3.72,2.34,39.38,39.38,0,0,1-3.4,3.66l-.1.11a13.57,13.57,0,0,1-1.39,1.14c-.29.21-.57.43-.84.65-.56.47-1.12,1-1.65,1.5a16.22,16.22,0,0,1-3.86,3,47.43,47.43,0,0,1-5.92,2.21c-1.33.43-2.71.88-4,1.39a2.94,2.94,0,0,0-1.56,1.81c-.45,3.52-.67,7.12-.88,10.61l0,.68a10.4,10.4,0,0,0,.16,3.67c.72,2.41-.24,4.15-1.37,5.87a10.44,10.44,0,0,0-.93,1.93c-.1.26-.21.51-.32.76l.3.44,1.64-.08a31.56,31.56,0,0,0,4.11-.38,32.58,32.58,0,0,0,3.37-.85,35.35,35.35,0,0,1,3.44-.88,25.45,25.45,0,0,0,7.63-2.44,17.41,17.41,0,0,1,4.85-1.43l.55-.11a8.2,8.2,0,0,1,9,3.95l-.67.34a7.44,7.44,0,0,0-8.2-3.55l-.56.11a16.85,16.85,0,0,0-4.64,1.36,26.55,26.55,0,0,1-7.85,2.51c-1.13.21-2.26.54-3.36.86a35.52,35.52,0,0,1-3.45.87,33.28,33.28,0,0,1-4.21.39c-.61,0-1.23.05-1.84.1Zm-169.38-.7a2.51,2.51,0,0,1-1.41-.35c-.91-.58-1.24-1.87-1.61-3.63a18.11,18.11,0,0,0-3.59-7.24c-1.56-2-1.87-4.06-2.1-6.38a28.3,28.3,0,0,0-3.75-12c-2.49-4.17-2.92-8-1.32-11.8.29-.68.53-1.39.77-2.09a23.23,23.23,0,0,1,1.11-2.82,4.59,4.59,0,0,0,.1-4.05,47.82,47.82,0,0,1-1.41-4.71c-.3-1.15-.61-2.34-1-3.48l-.1-.32a7.34,7.34,0,0,0-1.71-3.36c-3.61-2.95-4.45-6.66-2.66-11.66.47-1.33.57-2.06.33-2.51s-.88-.78-2.28-1.16l-.36-.1.1-.37a1.64,1.64,0,0,0-.09-1.47c-.28-.35-.89-.51-1.82-.45a4.3,4.3,0,0,1-4.25-1.91c-1.48-2.06-3.34-2.55-5.52-1.45l-.52.26c-1.92,1-4.09,2.06-6.12,2a37,37,0,0,0-6.77.51c-1.56.22-3.18.45-4.79.52-4.66.21-8.63-3.81-10.49-7.87a21.18,21.18,0,0,0-3.6-4.89c-.59-.66-1.2-1.34-1.76-2a.86.86,0,0,0-.24-.13A1.25,1.25,0,0,1,224,302c-.82-.84-1-8-.23-9.05,1.68-2.21,2.06-4.31,1.12-6.23-1.46-3-1.17-5.92.91-9.16.45-.7.86-1.47,1.25-2.21a18.92,18.92,0,0,1,2.21-3.52,47,47,0,0,1,4.28-4.19c.72-.64,1.44-1.28,2.13-1.95,1.35-1.28,2.31-2.33,2.47-4.21.1-1.24,1.18-2.4,2.13-3.43l.57-.61a9.11,9.11,0,0,1,1.45-1.25,6.31,6.31,0,0,0,1.62-1.54,3.32,3.32,0,0,1,2-1.61,3.86,3.86,0,0,1,2.89.74c1.66,1.06,2.87.74,4.51-.22,4.12-2.41,8-3.17,12-2.32a8.34,8.34,0,0,0,3.25-.26c.33-.07.65-.14,1-.19,1-.18,2-.44,3.13-.71l1.54-.39.37-.08.08.36c.11.42.21.81.31,1.17a11,11,0,0,1,.46,2.11c.31,3.63,1.49,5,4.85,5.71a7.33,7.33,0,0,1,4.63,2.59,4.68,4.68,0,0,0,3.83,1.66,3,3,0,0,0,2.38-1.14,4.75,4.75,0,0,0,.55-1.68c.07-.33.14-.67.24-1l.07-.26.26,0a12.39,12.39,0,0,1,7.23,1.17c3.86,2.1,7.39,2.74,10.81,2a8.44,8.44,0,0,1,3.29,0c2.58.45,3.77-.24,4.38-2.52A31.81,31.81,0,0,0,319,254c.05-.6,0-1.37-.39-1.66s-1-.17-2,.23a7.23,7.23,0,0,1-3.23.29l-.65,0c-1.81-.07-3.64-.24-5.42-.41l-.36,0a8,8,0,0,1-1.2-.25l-.51-.12-.11-.05a4.8,4.8,0,0,1-2.26-3.33,4.52,4.52,0,0,1,.89-3.71c3.79-4.58,13-5.48,17.32-2.84,2,1.19,3.4,1.12,4.82-.24a1.87,1.87,0,0,0,.73-1.34c0-.41-.38-.84-1.09-1.33a23.4,23.4,0,0,0-4.36-2.49c-2-.81-1.88-2.19-1.54-3.43.05-.18.13-.39.21-.61a2.45,2.45,0,0,0,.26-1.15,3.3,3.3,0,0,0-1.74.12l-.46.11c-.1,0-.12,0-.2.15a1.78,1.78,0,0,1-1.09.65c-.18.25-.11.6,0,1.11s.42,1.54-.71,1.88l-.32.1a3.49,3.49,0,0,1-2.83.08,2.78,2.78,0,0,1-1.09-2.07,1.41,1.41,0,0,0-1.07-1.19,1.71,1.71,0,0,0-1.79.59,55.19,55.19,0,0,0-3.72,5.41l-.13.2a2,2,0,0,0-.27,1.22,2.36,2.36,0,0,1,.78,1.78,3,3,0,0,1-1.41,1.93l-.45.37a2.48,2.48,0,0,1-2.23.28c-1-.42-4,0-4.55.82a2.36,2.36,0,0,0,0,1.27v.1c0,.33.15.66.24,1a5.51,5.51,0,0,1,.29,1.88,3.65,3.65,0,0,1-1.29,2.42,1.93,1.93,0,0,1-1.38.11,1.72,1.72,0,0,1-1.1-.64,4.7,4.7,0,0,1-.34-2.19v-.59a.77.77,0,0,1,.32-.57l.13-.14a1.66,1.66,0,0,0-1-.24h-.28a2.7,2.7,0,0,1-2.78-2.92c-.16-3-1.57-4.58-5-5.8a15,15,0,0,1-4.07-2.55c-.55-.44-1.12-.89-1.69-1.28l-.51-.36-.13.07a1.78,1.78,0,0,1,.12.29,3.38,3.38,0,0,0,.58,1.07l.16.17c2.55,2.64,5.19,5.38,8.74,6.79,0,0,1.28.52,1.16,1.12-.09.38-.52.4-.75.39-2.05.62-2.16,1.5-2.41,3.59,0,.25-.07.51-.1.79l0,.27-.27,0a2,2,0,0,1-2-1.26c-.63-2.75-2.79-4.1-4.95-5.24l-.21-.11c-2-1.05-4-2.13-5-4.57a1.12,1.12,0,0,0-1.11-.76l-2.2.34c-1.82.27-3.71.55-5.53.94a3.08,3.08,0,0,0-2,1.27,6.79,6.79,0,0,1-2.71,3.26l-.51.39a7.76,7.76,0,0,0-3.39,5.2c-.26,2-2.06,2.44-3.51,2.77l-1,.25a17.14,17.14,0,0,1-3.63.63,14.23,14.23,0,0,1-4.2-.56,9.24,9.24,0,0,1-2.16-1c-.37-.22-.78-.46-1.24-.7l-.22-.12,1.36-13,.37,0c.75.07,1.51.13,2.27.18,1.71.12,3.48.25,5.2.52,2.66.43,3.95-.17,4.76-2.21s0-3.91-2.12-5.18a7.36,7.36,0,0,1-2.2-2.09l-.37-.51.62-.08c4.81-.67,8.32-3.11,12.09-6,.52-.39,1-.85,1.49-1.29,1.57-1.44,3.19-2.94,5.91-2.8l0,.75c-2.41-.11-3.84,1.2-5.36,2.6a19.7,19.7,0,0,1-1.54,1.34c-3.56,2.71-7.14,5.22-11.81,6a6.28,6.28,0,0,0,1.59,1.4c2.43,1.45,3.36,3.78,2.44,6.1s-2.61,3.15-5.58,2.68c-1.69-.28-3.44-.4-5.13-.52L242,237.6l-1.23,11.77c.38.2.72.4,1,.59a9,9,0,0,0,2,1,13,13,0,0,0,4,.53,16.73,16.73,0,0,0,3.47-.61l1.05-.25c1.41-.32,2.74-.62,2.93-2.13a8.58,8.58,0,0,1,3.68-5.7l.52-.4a6.08,6.08,0,0,0,2.45-2.9,3.64,3.64,0,0,1,2.52-1.76c1.85-.4,3.74-.68,5.58-1,.72-.1,1.45-.21,2.17-.33a1.85,1.85,0,0,1,1.95,1.23c.84,2.17,2.68,3.15,4.63,4.17l.21.12c2.31,1.22,4.63,2.67,5.33,5.73a1.43,1.43,0,0,0,.87.69c0-.15,0-.3.05-.45.26-2.1.41-3.39,2.76-4.16a2,2,0,0,0-.29-.15c-3.7-1.47-6.39-4.27-9-7l-.16-.17a3.6,3.6,0,0,1-.73-1.31l-.24-.57-.16-.32,1.15-.64.88.63c.59.41,1.17.87,1.73,1.31A14.2,14.2,0,0,0,285,238c3.75,1.32,5.35,3.19,5.53,6.47.08,1.48.68,2.13,2.08,2.22h.24a2.4,2.4,0,0,1,1.57.49l.09.11a.84.84,0,0,1-.3,1.06l-.09.1V249a4.24,4.24,0,0,0,.25,1.84,1.94,1.94,0,0,0,1.37.28,2.92,2.92,0,0,0,1-1.88,5.06,5.06,0,0,0-.26-1.62,9.3,9.3,0,0,1-.26-1.1v-.1a2.72,2.72,0,0,1,.11-1.79c.79-1.2,4.18-1.61,5.46-1.11a1.79,1.79,0,0,0,1.45-.14l.48-.39c.54-.44,1.1-.89,1.14-1.41a1.81,1.81,0,0,0-.61-1.23c-.43-.48-.09-1.64.2-2.11l.13-.2a56.19,56.19,0,0,1,3.78-5.48,2.49,2.49,0,0,1,2.57-.85,2.18,2.18,0,0,1,1.62,1.81,2.06,2.06,0,0,0,.74,1.54c.58.36,1.48.07,2.2-.16l.34-.1c.35-.11.4-.2.2-1a1.8,1.8,0,0,1,.23-1.91l.08-.08.11,0c.53-.12.65-.26.77-.42a1.05,1.05,0,0,1,.63-.42l.43-.1a3.88,3.88,0,0,1,2.26-.07l.14.07c.54.49.23,1.34,0,2-.07.2-.14.38-.18.55-.33,1.22-.26,2,1.1,2.54a24.24,24.24,0,0,1,4.5,2.56,2.86,2.86,0,0,1,1.41,1.9,2.49,2.49,0,0,1-1,1.93c-2.19,2.1-4.32,1.2-5.73.34-4-2.44-12.84-1.56-16.35,2.68a3.78,3.78,0,0,0-.73,3.1,4,4,0,0,0,1.86,2.79l.47.12a6.28,6.28,0,0,0,1.08.22l.36,0c1.77.16,3.59.33,5.38.4l.67,0a6.59,6.59,0,0,0,2.88-.23c1.23-.53,2.11-.58,2.71-.15s.8,1.16.71,2.33a32.51,32.51,0,0,1-1.15,5.92c-.71,2.65-2.27,3.57-5.22,3.06a7.75,7.75,0,0,0-3,0c-3.61.82-7.31.15-11.33-2a11.44,11.44,0,0,0-6.56-1.1c-.06.24-.1.48-.15.71a5.5,5.5,0,0,1-.66,1.94,3.68,3.68,0,0,1-3,1.48,5.5,5.5,0,0,1-4.45-1.94,6.52,6.52,0,0,0-4.19-2.33c-3.68-.76-5.11-2.43-5.45-6.38a11,11,0,0,0-.43-2c-.07-.26-.15-.54-.22-.83l-1.18.29c-1.1.28-2.13.54-3.18.73l-.94.18a8.73,8.73,0,0,1-3.57.26c-3.8-.82-7.43-.11-11.44,2.24-1.81,1.05-3.33,1.46-5.29.2a3.12,3.12,0,0,0-2.32-.63,2.6,2.6,0,0,0-1.55,1.27,7.14,7.14,0,0,1-1.81,1.74,8.89,8.89,0,0,0-1.34,1.15l-.58.62c-.87.94-1.86,2-1.94,3a7,7,0,0,1-2.69,4.7c-.7.66-1.43,1.31-2.15,2a45.49,45.49,0,0,0-4.21,4.12,17.88,17.88,0,0,0-2.11,3.38c-.4.76-.82,1.54-1.29,2.27-1.95,3-2.22,5.63-.87,8.42,1.07,2.2.67,4.56-1.19,7-.54.7-.4,7.42.17,8.07a.88.88,0,0,0,.24.12,1.23,1.23,0,0,1,.53.35c.55.68,1.15,1.35,1.74,2a21.54,21.54,0,0,1,3.72,5.08c1.76,3.83,5.47,7.6,9.77,7.43,1.58-.07,3.18-.29,4.73-.51a37.36,37.36,0,0,1,6.91-.52c1.84.1,3.91-1,5.74-1.88l.52-.26c2.52-1.27,4.76-.69,6.47,1.68a3.55,3.55,0,0,0,3.6,1.6,2.76,2.76,0,0,1,2.45.73,2.11,2.11,0,0,1,.31,1.78,3.66,3.66,0,0,1,2.4,1.44c.4.77.17,1.8-.3,3.11-1.69,4.73-.94,8.07,2.44,10.83,1,.84,1.51,2.37,2,3.71l.1.32c.37,1.16.69,2.36,1,3.53a44.48,44.48,0,0,0,1.38,4.62,5.32,5.32,0,0,1-.13,4.65,22.22,22.22,0,0,0-1.07,2.74c-.24.7-.49,1.43-.79,2.13-1.5,3.54-1.09,7.18,1.27,11.13a28.82,28.82,0,0,1,3.86,12.3c.22,2.28.5,4.17,1.94,6a18.88,18.88,0,0,1,3.74,7.54c.38,1.84.66,2.77,1.27,3.16s1.43.31,3.2-.11l.81-.21a8,8,0,0,1,3.72-.38c4.84,1.16,7.88-1.63,10.58-4.59,1.83-2,3.6-4.13,5.26-6.31a3.55,3.55,0,0,0,.87-2.4c-.63-2.43.34-4.2,2.82-5.11,2.17-.81,3-2.22,2.64-4.6a20.56,20.56,0,0,0-.65-2.72c-.12-.42-.25-.85-.36-1.29l-.06-.2.15-.16c.72-.76,1.4-1.61,2.07-2.43,2-2.42,4-4.93,7.4-6.12.82-.29,1.84-2.39,1.72-3.56s-.12-2.27-.15-3.38c-.05-3.11-.11-6-1.84-8.82a7.89,7.89,0,0,1,.27-9.06A74,74,0,0,1,338,324.26l.81-.73c2.9-2.61,5.64-5.07,7.15-8.69a30.33,30.33,0,0,1,1.65-3.21c1.35-2.38,2.63-4.63,2.38-7.51-.06-.76-.2-1.19-.43-1.34s-.66-.11-1.32.12c-2.24.76-4.6,1.43-7,2a5.34,5.34,0,0,1-4.1-.6,4.07,4.07,0,0,1-1.85-2.68c-.42-2-1.64-3.23-3.06-4.62a59.85,59.85,0,0,1-4.81-5.23,6.9,6.9,0,0,1-.93-1.76,5.63,5.63,0,0,0-.88-1.65c-1.56-1.81-3.06-3.81-2.73-6.66a1.44,1.44,0,0,0-.29-.54c-.09-.13-.17-.25-.24-.37l-1.4-2.56c-1.09-2-2.23-4.12-3.45-6.1-1-1.69-.83-3.07.61-4.24l.32-.26,2.15,3.28c1.51,2.29,3,4.55,4.47,6.81.27.41.56.82.86,1.23a10.5,10.5,0,0,1,1.89,3.34,14.34,14.34,0,0,0,2.91,5.21l.71.89c2.09,2.62,4.26,5.33,4.24,9.19a2.46,2.46,0,0,0,.77,2,2.41,2.41,0,0,0,2.12.22c4.95-1.35,10.14-3,14.28-6.75a9.56,9.56,0,0,1,2.62-1.49c.49-.22,1-.44,1.46-.69l.6-.33a6.43,6.43,0,0,0,2-1.35A19.89,19.89,0,0,0,361,287a18.24,18.24,0,0,1,1.77-2.53c1.37-1.53,1.93-2.78,1.73-3.82s-1.17-2-3-2.84a6.35,6.35,0,0,1-3.68-4.07l-.28,0a2,2,0,0,0-1,.24A13.26,13.26,0,0,0,355,275.5c-.27.29-.55.57-.83.85a2.91,2.91,0,0,1-2.29,1,2.78,2.78,0,0,1-1.92-1.5,4.8,4.8,0,0,1-.53-1.32c0-.11-.06-.23-.1-.35l-2.28.29-.12-.23-.94-1.7c-.93-1.68-1.9-3.43-2.78-5.19a2.06,2.06,0,0,1,.48-2.07,2.19,2.19,0,0,1,2.12-.14,4.47,4.47,0,0,1,1.85,1.93c1.61,3.85,4.92,4.38,7.95,4.39a15.47,15.47,0,0,1,2.45.3l1.08.18.11,0,.08.07a9.47,9.47,0,0,1,.85.83c.54.56,1.09,1.14,1.59,1.19,2.29.2,4.65.27,6.92.35,1.85.05,3.77.11,5.66.25a7.41,7.41,0,0,1,3.6,1.37,38.25,38.25,0,0,1,3.38,2.82l1.37,1.22.08.07,0,.09a10.23,10.23,0,0,1,.27,1c.13.59.35,1.57.63,1.67,1.64.57,3.37.83,4.83-1.2l.5-.7.17.84c.08.37.16.69.23,1a5.57,5.57,0,0,1,.26,1.52,20.6,20.6,0,0,0,2.53,10.06c1.19,2.36,2.28,4.81,3.34,7.18.74,1.65,1.47,3.29,2.24,4.92.36.76,1,2,1.67,2.3a2,2,0,0,0,1.73-.07,2.51,2.51,0,0,0,1.2-1.67c.11-.46.22-.93.34-1.4a27,27,0,0,0,1.17-7.56,5.11,5.11,0,0,1,1.87-4.39c.58-.56,1.19-1.09,1.79-1.62a23.48,23.48,0,0,0,3.54-3.58,13.75,13.75,0,0,1,1.79-1.86,8.49,8.49,0,0,0,2.48-3.18,5.07,5.07,0,0,1,4.07-2.72c1.94-.32,3.72.12,4.55,1.1.44.53.93,1,1.4,1.53a17.77,17.77,0,0,1,2.3,2.74c1,1.6,1.89,3.33,2.81,5.15.4.79.81,1.61,1.25,2.46a3.62,3.62,0,0,0,1.75-.44,15.41,15.41,0,0,1,1.92-.64.93.93,0,0,1,.83.15,1.33,1.33,0,0,1,.33,1.08,2,2,0,0,0,.07.66c.18.53.32,1.1.45,1.64a9.26,9.26,0,0,0,.95,2.67c1.71,2.76,1.44,5.52.88,8.09-.28,1.33-.36,2.82,1.26,3.83a9.32,9.32,0,0,1,4.35,5.66,6.83,6.83,0,0,1,.15,1.36c0,1.05.12,1.69.69,1.9a11.23,11.23,0,0,1,3.29,2.15,7.12,7.12,0,0,0,1.1.83,10.45,10.45,0,0,0-4.15-9.59c-4.18-2.9-5.76-6.83-5-12.38a2,2,0,0,0,0-.25,1.41,1.41,0,0,1,.76-1.37c1.28-.28,2.3.76,3.19,1.68.25.25.49.49.71.69a16.66,16.66,0,0,1,1.8,2c.29.36.59.72.9,1.06a.91.91,0,0,0,.43.3c2-.17,2.31.89,2.67,2a8,8,0,0,0,.44,1.19c1.08,0,6.42-4.39,6.63-5.17v-.16c.12-5.3-1.17-8.86-4.2-11.55-.34-.29-.74-.61-1.16-.93-1.49-1.18-3.19-2.51-3.1-3.92l0-.1c.67-1.92,3-3.66,5.08-4.54l.08,0H455a1.31,1.31,0,0,1,1.28.93,1.48,1.48,0,0,0,.09.18c1.86,1.79,1.86,1.79,3.68.08l.09-.08a7.06,7.06,0,0,1,2.49-1.68c.83-.27,1.7-.46,2.54-.65a14.71,14.71,0,0,0,3.69-1.13,8.88,8.88,0,0,0,3.7-3.71,17.77,17.77,0,0,0,1.15-3.83,23.31,23.31,0,0,1,.92-3.34c.54-1.38,0-2.49-.59-3.67a5.93,5.93,0,0,1-.88-3l0,0c-.68-.74-1.6-1.6-2.49-2.42-2.37-2.2-3.81-3.6-3.85-4.64.06-.88,1.17-1.66,2.34-2.5.58-.41,1.56-1.1,1.59-1.37l-.37-.67c-.34-.52-1.62-.39-2.75-.26a13.6,13.6,0,0,1-1.49.11c-1.92,0-4-.89-4.37-2.81V247c.2-1.56,2.53-3.32,4.32-3.74.86-.07,1.11.78,1.3,1.52a2.77,2.77,0,0,0,.79,1.6c.5.26,1.55-.36,1.95-.59,1.55-.91,2.51-.12,3.36.76.62.65,1.26,1.28,1.9,1.92.79.77,1.6,1.58,2.37,2.4l.3.31a7.06,7.06,0,0,1,1.76,2.48c.34,1,.65,1.74,1.15,2a2,2,0,0,0,1.61-.22c1.08-.48,1.68-1,1.88-1.53a2.74,2.74,0,0,0-.4-2.11,9.83,9.83,0,0,0-2.27-2.68,26,26,0,0,0-2.52-1.92l-.73-.52-.21-.16.07-.25c.16-.57.32-1.07.47-1.52a10.37,10.37,0,0,0,.54-2.15c.27-3.16,1.18-4,4.22-4,1.22,0,1.76-.31,2-1.22l.39-1.51a31.9,31.9,0,0,0,1-4.88,21.73,21.73,0,0,0-.11-3.53c-.18-2.18-.26-3.44.31-3.88l.12-.1.15,0c1.18.13,2.61,2.57,4.54,6.46.77,1.55,1.51,2.29,3.12,1.71a.2.2,0,0,0,0-.07,1.15,1.15,0,0,0,0-.35,13.28,13.28,0,0,0-1-1.62c-.92-1.35-1.86-2.75-1.46-4.71l-.32-.19a3.88,3.88,0,0,1-.54-.35c-.43-.33-.89-.65-1.34-1a13.67,13.67,0,0,1-3-2.57c-1.33-1.69-2.18-2.76-4.17-1.76-.46.22-1.17-.29-1.38-.55-1.38-1.6-3-2-5.75-1.25-1.08.29-2.59-.39-3.61-1.19-.49-.39-1.32-1.17-1.3-2a7.74,7.74,0,0,1,2.39-5.48,7.53,7.53,0,0,1,5.42-2.11c1.09,0,2.2,0,3.14,0,.38,0,.75,0,1.13-.06a12.72,12.72,0,0,1,2.14,0,18.1,18.1,0,0,1,2.08.37,11.64,11.64,0,0,0,2.78.39,4.71,4.71,0,0,0-.09-.67,3.82,3.82,0,0,1-.07-.56c.06-1.88.51-3,1.38-3.54s2.06-.32,3.67.54c.95.52,1.5.55,1.68.42a9.29,9.29,0,0,0,1.11-1,3.48,3.48,0,0,1,1.59-1.11,1.18,1.18,0,0,1,1.12.32,3.5,3.5,0,0,1,.6,3.05,18.68,18.68,0,0,1-.56,1.94,13.3,13.3,0,0,0-.67,2.66c-.22,1.91-.06,3.21.47,3.85a54.44,54.44,0,0,0,4.19,4.4c1,1,2,2,3,3,.75.81,1.72,1.74,2.59,1.74h0a1.38,1.38,0,0,0,1-.51,3.18,3.18,0,0,0-.09-2.32,5.44,5.44,0,0,1-.27-1.87c.42-4-.32-5.51-3.75-7.66a3.89,3.89,0,0,1-2-2.84,1,1,0,0,1,.06-.77,3.65,3.65,0,0,1,2.45-1.32,12.1,12.1,0,0,1,2.81-.25c.51,0,1,0,1.53,0l.64,0c.49,0,1.41,0,1.54-.25.94-1.48,3.12-2,4.87-2.36a5.38,5.38,0,0,0,1.82-.58c.23-1.33-1.47-1.85-3.71-2.38-1.28-.31-2.21-.53-2.47-1.08a.74.74,0,0,1,0-.67l.8-2.33c.64-.82,1.87-.56,2.61-.4l.14,0a37.75,37.75,0,0,1,4.45,1.42,20.94,20.94,0,0,0,3.78,1.16h0a4.19,4.19,0,0,0-1.33-2.89,3.22,3.22,0,0,0-2.48-.75c-3.27.3-6.3-.64-9.23-1.54-.89-.28-1.78-.55-2.66-.79a152.22,152.22,0,0,0-16.24-3.08,6.46,6.46,0,0,0-2.48.3c-.48.11-1,.23-1.48.3a15.46,15.46,0,0,1-2.72.18c-.73,0-1.46-.12-2.17-.21a13.24,13.24,0,0,0-4-.08,10.71,10.71,0,0,1-5.8-.83l-.77-.26a19.28,19.28,0,0,0-5-.69h-.12c-1-.05-2,0-3,.06a13.16,13.16,0,0,1-5.7-.49,42.31,42.31,0,0,0-11.47-2.68l-1.13-.18c-2-.35-3.84-.67-5.18,1.6-.45.77-1.91.83-3.19.89l-.34,0a9.07,9.07,0,0,1-1.71-.16,3.91,3.91,0,0,0-2.1,0c-1.92.9-3.19.14-4.43-.61-.35-.21-.72-.42-1.09-.6a20.74,20.74,0,0,0-5.63-2,23.5,23.5,0,0,0-5,0,17.9,17.9,0,0,1-7.25-.51,3,3,0,0,0-1.21,0q-.35,0-.69,0c-1.08,0-2.49.13-4,.27-4,.36-6.46.51-7.05-.44l-.06-.1v-.11c0-.84.76-1.22,1.31-1.49a1.74,1.74,0,0,0,.51-.31c.3-.43.79-1.16.7-1.54a1.9,1.9,0,0,0-1.25-.76c-1.34-.16-2.72-.24-4-.32l-2.61-.18a8.05,8.05,0,0,1-2.47-.48c-3.55-1.5-6.2-1.31-8.57.62a3.15,3.15,0,0,1-2.09.75c-3.84-.51-7.45-.83-9.39.69a3.69,3.69,0,0,1-3.4,3,13.27,13.27,0,0,0-3.82,1.29l-1.14.51a20,20,0,0,0-1.8.89c-.5.27-1,.54-1.52.77s-1.21.49-1.86.72l-.85.31-.28.1-.16-.24a6.56,6.56,0,0,0-6.1-2.71c-.77.12-1.32.41-1.42.77a3.78,3.78,0,0,0,.65,3,3.37,3.37,0,0,0,1.38.71c1,.37,2.17.79,2.17,1.87V190l-.08.1c-.4.53-1.53.43-3.08.1a17.83,17.83,0,0,1-1.73-.46,9.88,9.88,0,0,0-2.63-.55,18.53,18.53,0,0,0-3.68.46c-.54.1-1.08.21-1.62.29s-1.13.23-1.7.37a8.91,8.91,0,0,1-3.84.37c-2.57-.54-5.29.44-7.47,1.23a11.14,11.14,0,0,1-2.83.8c-1.17.18-2.42-.75-3.33-1.44-.21-.16-.49-.37-.67-.48-.62,2.93-4.3,5.57-8.4,6.06,0,.07.05.15.07.21a1.57,1.57,0,0,1,0,1.43l-.08.09,0,.06c-.16.21-.55.71-1,.45-.7-.62-1.59-1.3-2.53-2-2.56-2-4.13-3.21-4.08-4.12v-.15l.11-.1a2.41,2.41,0,0,1,2.54-.23,4.25,4.25,0,0,0,.57.14c1.21.15,2.41.31,3.62.48.91.12,1.81.25,2.72.36.72.1,1.2,0,1.43-.26a1.69,1.69,0,0,0,.11-1.42l-4-1.17c-3.91-1.13-8-2.3-12-3.41a14.93,14.93,0,0,0-2.86-.39l-.58-.05a29.27,29.27,0,0,0-12.23,2.09,13.8,13.8,0,0,0-6.47,5,19.59,19.59,0,0,1-9.21,6.91,3.55,3.55,0,0,0-2,1.42,4.36,4.36,0,0,0,4.92,6.12,2.77,2.77,0,0,0,.76-.31,3.4,3.4,0,0,1,1.47-.47,4.16,4.16,0,0,1,2.35,1.69,2.94,2.94,0,0,1,.73,2.16l0,.12-.09.09a2.45,2.45,0,0,1-1.81.86,2.5,2.5,0,0,1-1.68-1.18,2.68,2.68,0,0,0-.49-.54c-.93.18-1.44.42-1.69.81s-.31,1.39.06,2.86l-.73.18c-.43-1.71-.42-2.74,0-3.45a3.25,3.25,0,0,1,2.29-1.15h.15a2,2,0,0,1,1,.82c.34.43.69.88,1.14.91a1.71,1.71,0,0,0,1.14-.57,2.5,2.5,0,0,0-.6-1.48,3.54,3.54,0,0,0-1.78-1.38,2.82,2.82,0,0,0-1.09.39,3.41,3.41,0,0,1-1,.39,5.12,5.12,0,0,1-5.74-7.15c.4-1,1.84-1.62,2.44-1.84a18.91,18.91,0,0,0,8.87-6.66,14.55,14.55,0,0,1,6.82-5.28A30.1,30.1,0,0,1,297.11,186l.58,0a15.27,15.27,0,0,1,3,.42c4,1.11,8.06,2.28,12,3.41l4.45,1.29.06.2a2.46,2.46,0,0,1-.23,2.32,2.24,2.24,0,0,1-2.08.51l-2.74-.37c-1.2-.16-2.39-.33-3.6-.47a5.87,5.87,0,0,1-.7-.17c-.69-.21-1.23-.34-1.66-.06.27.68,2.43,2.33,3.75,3.34.88.67,1.72,1.31,2.36,1.87a1.33,1.33,0,0,0,.12-.16,1.1,1.1,0,0,0,.11-.14c.07-.15-.05-.5-.13-.73s-.24-.68-.06-.95a.57.57,0,0,1,.47-.24c3.85-.4,7.48-3,7.91-5.6A.55.55,0,0,1,321,190c.4-.18.81.14,1.51.67s1.89,1.42,2.8,1.28a10.48,10.48,0,0,0,2.64-.75c2.15-.78,5.1-1.85,7.89-1.26a8.44,8.44,0,0,0,3.51-.37c.57-.14,1.17-.29,1.76-.38s1.05-.18,1.58-.29a18.17,18.17,0,0,1,3.84-.47,10.62,10.62,0,0,1,2.84.58c.52.16,1.05.32,1.6.44a6.08,6.08,0,0,0,2.29.23c-.15-.4-.79-.66-1.64-1a3.52,3.52,0,0,1-1.74-1,4.32,4.32,0,0,1-.76-3.64c.2-.66.94-1.13,2-1.29a7.33,7.33,0,0,1,6.66,2.79l.59-.22c.63-.22,1.23-.43,1.8-.69s1-.49,1.47-.75,1.22-.65,1.87-.93c.37-.15.75-.32,1.12-.49a13.87,13.87,0,0,1,4-1.36,3,3,0,0,0,2.79-2.58l0-.12.1-.08c2.14-1.81,6-1.48,10.06-.94a2.33,2.33,0,0,0,1.51-.6c2.62-2.12,5.5-2.34,9.34-.72a7.7,7.7,0,0,0,2.25.42c.86.07,1.72.12,2.59.18,1.34.08,2.73.17,4.09.32.65.08,1.73.65,1.89,1.34s-.4,1.53-.81,2.13a1.91,1.91,0,0,1-.79.56c-.48.24-.81.42-.88.71.64.52,4,.22,6.27,0,1.51-.14,2.93-.27,4.05-.27q.31,0,.63,0a3.66,3.66,0,0,1,1.51.08,17.27,17.27,0,0,0,7,.47,24.34,24.34,0,0,1,5.12,0,21.51,21.51,0,0,1,5.84,2,11.43,11.43,0,0,1,1.15.64c1.17.7,2.18,1.31,3.73.57a4.45,4.45,0,0,1,2.54-.06,8.46,8.46,0,0,0,1.55.15l.34,0c.82,0,2.34-.1,2.58-.52,1.61-2.72,4-2.3,6-2,.37.07.74.13,1.09.17a43.05,43.05,0,0,1,11.67,2.74,12.51,12.51,0,0,0,5.37.43c1,0,2.06-.11,3.06-.06h.12a19.84,19.84,0,0,1,5.16.73l.77.26a10,10,0,0,0,5.42.8A13.64,13.64,0,0,1,486,188c.7.08,1.42.17,2.12.2a16.25,16.25,0,0,0,2.59-.17,13.93,13.93,0,0,0,1.4-.29,7.33,7.33,0,0,1,2.77-.31,149.35,149.35,0,0,1,16.32,3.1c.89.24,1.79.51,2.69.79,2.86.89,5.81,1.8,8.94,1.51a3.94,3.94,0,0,1,3,.93,5,5,0,0,1,1.59,3.62.62.62,0,0,1-.29.48c-.53.3-1.73-.08-4.53-1.1a36.68,36.68,0,0,0-4.35-1.39l-.14,0c-.54-.11-1.45-.31-1.82.09l-.74,2.19c.08.29,1.2.56,1.94.74,2,.47,4.65,1.11,4.28,3.25-.07.65-1,.86-2.4,1.17s-3.62.82-4.39,2c-.35.54-1.27.57-2.15.6l-.61,0c-.52,0-1.06,0-1.58,0a11.87,11.87,0,0,0-2.64.22,3.36,3.36,0,0,0-2,.94.26.26,0,0,0,0,.23l0,.08V207c-.05.72.79,1.7,1.64,2.23,3.66,2.3,4.54,4.1,4.1,8.37a4.65,4.65,0,0,0,.24,1.6,3.74,3.74,0,0,1,0,2.95,2.09,2.09,0,0,1-1.61.83h0c-1.15,0-2.23-1-3.14-2s-2-2-3-3a53,53,0,0,1-4.25-4.47c-.67-.81-.88-2.25-.64-4.41a14,14,0,0,1,.71-2.8,18.79,18.79,0,0,0,.54-1.87,2.82,2.82,0,0,0-.39-2.35.46.46,0,0,0-.45-.13,3.25,3.25,0,0,0-1.22.92,11.21,11.21,0,0,1-1.19,1c-.64.46-1.7.06-2.48-.37-1.34-.72-2.32-.9-2.93-.55s-1,1.34-1,2.91a3.64,3.64,0,0,0,.06.41c.11.58.2,1.13-.1,1.41a.54.54,0,0,1-.47.14,13.15,13.15,0,0,1-3-.41,16.82,16.82,0,0,0-2-.35,12.45,12.45,0,0,0-2,0l-1.16.06c-1,0-2.07,0-3.18,0a6.76,6.76,0,0,0-4.88,1.9,7,7,0,0,0-2.16,5c0,.34.39.87,1,1.37a4.22,4.22,0,0,0,3,1.06c2.11-.56,4.53-.82,6.5,1.48a1.32,1.32,0,0,0,.56.35c2.46-1.25,3.68.29,5,1.92a13.1,13.1,0,0,0,2.91,2.49c.47.32.94.65,1.38,1a3.31,3.31,0,0,0,.46.29c.46.27.8.47.71.83-.42,1.74.42,3,1.31,4.3a14.17,14.17,0,0,1,1,1.71,1.33,1.33,0,0,1,0,.81,1.92,1.92,0,0,0,0,.22v.24l-.22.09c-2.41,1-3.48-.37-4.28-2-.68-1.38-2.68-5.4-3.76-6a13.11,13.11,0,0,0,.06,3.09,23.33,23.33,0,0,1,.11,3.67,33.53,33.53,0,0,1-1.06,5c-.13.5-.27,1-.39,1.5-.41,1.62-1.68,1.81-2.74,1.79-2.63,0-3.22.51-3.46,3.28a9.94,9.94,0,0,1-.57,2.31c-.12.38-.25.79-.38,1.26l.5.35a28.54,28.54,0,0,1,2.59,2,10.52,10.52,0,0,1,2.44,2.9,3.41,3.41,0,0,1,.44,2.7,3.82,3.82,0,0,1-2.29,2,2.71,2.71,0,0,1-2.21.22c-.85-.38-1.22-1.36-1.56-2.42a6.58,6.58,0,0,0-1.6-2.19l-.29-.32c-.76-.81-1.57-1.61-2.35-2.38s-1.29-1.27-1.92-1.93c-.88-.91-1.44-1.22-2.44-.63s-1.91,1-2.72.58a3.36,3.36,0,0,1-1.13-2c-.15-.59-.3-1-.46-1-1.55.37-3.48,1.95-3.68,3,.32,1.44,2.09,2.11,3.62,2.13a12.43,12.43,0,0,0,1.41-.11c1.41-.15,2.87-.31,3.48.64l.39.73c.38.73-.6,1.42-1.83,2.3-.84.59-2,1.41-2,1.9,0,.75,2,2.59,3.61,4.07.9.84,1.84,1.7,2.53,2.46a.52.52,0,0,1,.26.45,5,5,0,0,0,.78,2.77c.6,1.21,1.28,2.58.62,4.27a22.37,22.37,0,0,0-.89,3.23,18.1,18.1,0,0,1-1.21,4,9.57,9.57,0,0,1-4,4,15.82,15.82,0,0,1-3.87,1.21,25.28,25.28,0,0,0-2.46.62,6.67,6.67,0,0,0-2.22,1.51l-.08.08c-2.23,2.1-2.45,2.1-4.72-.08a1.11,1.11,0,0,1-.26-.44c-.11-.25-.17-.41-.55-.45-1.86.81-4,2.34-4.56,4,0,1,1.55,2.24,2.82,3.24.43.33.84.66,1.18,1,4.12,3.65,4.55,8.4,4.46,12.13a1.37,1.37,0,0,1,0,.3c-.24,1.17-5.63,5.46-7.21,5.74a.68.68,0,0,1-.77-.27,10.75,10.75,0,0,1-.55-1.43c-.35-1.1-.49-1.6-1.89-1.48a1.49,1.49,0,0,1-1-.55c-.32-.35-.62-.72-.92-1.09a15.34,15.34,0,0,0-1.71-1.86c-.24-.21-.49-.47-.76-.74-.75-.78-1.62-1.66-2.42-1.49-.18.09-.21.28-.24.71,0,.1,0,.2,0,.3-.73,5.24.75,8.95,4.67,11.66a11.24,11.24,0,0,1,4.46,10.42l0,.11a.66.66,0,0,1-.47.43c-.48.13-1-.33-1.82-1a10.82,10.82,0,0,0-3.07-2c-1.08-.4-1.14-1.55-1.18-2.57a6.61,6.61,0,0,0-.13-1.22,8.52,8.52,0,0,0-4-5.2c-2-1.27-1.91-3.14-1.59-4.63.6-2.79.7-5.14-.79-7.53a9.78,9.78,0,0,1-1-2.89c-.13-.53-.27-1.07-.44-1.58a2.75,2.75,0,0,1-.11-.89,1.76,1.76,0,0,0-.06-.52s0,0-.05,0l-.14,0a14.77,14.77,0,0,0-1.81.6c-1.07.42-1.92.74-2.51.32l-.12-.13c-.47-.89-.9-1.75-1.31-2.57a57.78,57.78,0,0,0-2.77-5.09,16.79,16.79,0,0,0-2.21-2.62c-.48-.5-1-1-1.44-1.57-.65-.77-2.2-1.11-3.84-.84-1.36.23-3,.94-3.5,2.25a9.13,9.13,0,0,1-2.68,3.46,13.25,13.25,0,0,0-1.68,1.76,24.49,24.49,0,0,1-3.65,3.69c-.6.53-1.2,1.05-1.77,1.6a4.34,4.34,0,0,0-1.64,3.81,27.41,27.41,0,0,1-1.19,7.78c-.12.47-.23.94-.35,1.4a3.27,3.27,0,0,1-1.57,2.16,2.82,2.82,0,0,1-2.35.1c-1-.37-1.61-1.7-2.08-2.68-.77-1.63-1.51-3.28-2.24-4.93-1.06-2.37-2.15-4.81-3.33-7.15A21.35,21.35,0,0,1,389,284.35a5.31,5.31,0,0,0-.23-1.32,2,2,0,0,1-.07-.26c-1.67,1.77-3.63,1.41-5.19.87-.67-.24-.9-1.24-1.12-2.21a6.86,6.86,0,0,0-.21-.84c-.44-.38-.87-.77-1.3-1.16a34.94,34.94,0,0,0-3.32-2.76,6.65,6.65,0,0,0-3.21-1.25c-1.87-.13-3.79-.19-5.64-.25-2.28-.07-4.64-.14-7-.35a3.73,3.73,0,0,1-2.06-1.41c-.23-.25-.48-.5-.71-.71l-1-.17a13.74,13.74,0,0,0-2.33-.29c-3.27,0-6.86-.6-8.63-4.85a3.88,3.88,0,0,0-1.54-1.57,1.49,1.49,0,0,0-1.27.08,1.45,1.45,0,0,0-.28,1.15c.87,1.75,1.84,3.48,2.77,5.16l.82,1.48,2.38-.3.1.29c.08.23.14.45.2.67a4.67,4.67,0,0,0,.44,1.13c.46.72.91,1.1,1.38,1.16a2.24,2.24,0,0,0,1.68-.84c.28-.26.54-.54.81-.82a13.42,13.42,0,0,1,1.65-1.54,2.7,2.7,0,0,1,1.38-.39L358,273l.36-.07.08.35a5.64,5.64,0,0,0,3.37,3.9c2,1,3.12,2.09,3.37,3.37s-.36,2.75-1.89,4.47a17,17,0,0,0-1.7,2.42,18.65,18.65,0,0,1-1.58,2.29,6.88,6.88,0,0,1-2.19,1.54l-.59.31c-.49.27-1,.5-1.52.72a8.92,8.92,0,0,0-2.41,1.37c-4.27,3.88-9.55,5.54-14.6,6.91a3,3,0,0,1-2.76-.35,3.12,3.12,0,0,1-1.07-2.64c0-3.59-2.07-6.19-4.08-8.71l-.71-.9a15.08,15.08,0,0,1-3.05-5.47,10.08,10.08,0,0,0-1.76-3.1c-.31-.42-.61-.84-.89-1.26-1.47-2.26-3-4.52-4.46-6.81l-1.69-2.57c-.65.63-1,1.5-.13,3,1.23,2,2.37,4.11,3.47,6.14.47.85.93,1.71,1.4,2.55a1.8,1.8,0,0,0,.2.31,1.66,1.66,0,0,1,.41,1.06c-.29,2.55,1.05,4.33,2.56,6.08a6.4,6.4,0,0,1,1,1.85,6.43,6.43,0,0,0,.82,1.59,58.89,58.89,0,0,0,4.7,5.11c1.49,1.46,2.84,2.8,3.31,5a3.38,3.38,0,0,0,1.52,2.21,4.62,4.62,0,0,0,3.53.5c2.39-.56,4.73-1.23,6.94-2a2.25,2.25,0,0,1,2,0,2.45,2.45,0,0,1,.77,1.9c.26,3.12-1.13,5.57-2.48,7.95a30.81,30.81,0,0,0-1.61,3.13c-1.57,3.78-4.37,6.29-7.34,9l-.81.72a73.76,73.76,0,0,0-9.19,10.51,7.15,7.15,0,0,0-.23,8.22c1.84,2.95,1.9,6.12,1.95,9.19,0,1.1.05,2.24.15,3.33.14,1.42-1,3.9-2.22,4.33-3.19,1.13-5.16,3.55-7.07,5.9-.63.77-1.28,1.57-2,2.32.1.36.21.72.31,1.08a19.4,19.4,0,0,1,.67,2.81c.4,2.72-.63,4.49-3.12,5.41-2.12.78-2.89,2.16-2.35,4.22a4.29,4.29,0,0,1-1,3.05c-1.66,2.19-3.45,4.33-5.29,6.35-2.86,3.13-6.07,6.07-11.31,4.82a7.27,7.27,0,0,0-3.35.38l-.83.21A10.76,10.76,0,0,1,291.29,397.3ZM288.5,243.65Zm49.31,135.22a3,3,0,0,1-2.29-.85,5.2,5.2,0,0,1-.92-2.81c-.05-.36-.1-.71-.17-1a4.62,4.62,0,0,1,0-1.17,1.7,1.7,0,0,0,0-.22l-.45-.17.13-.35c.13-.37.24-.75.35-1.14a7.7,7.7,0,0,1,1.07-2.53c1.28-1.67,1.22-3.5,1.16-5.43,0-.39,0-.79,0-1.19,0-1.76.69-2.46,2.24-3.37a23.57,23.57,0,0,0,4.68-4.06c.63-.65,1.28-1.32,1.94-1.94.24-.23.49-.44.74-.65l.65-.56.24.34a4.09,4.09,0,0,0,.28.33,1.7,1.7,0,0,1,.57,1c0,.61,0,1.22,0,1.84a19.62,19.62,0,0,1-.32,5.42c-1,3.79-2.19,7.58-3.36,11.24q-.7,2.17-1.38,4.35c-.45,1.42-2.3,2.43-3.85,2.77A6.11,6.11,0,0,1,337.81,378.87Zm-2.91-6.7.26.09v.26c0,.17,0,.34,0,.52a3.84,3.84,0,0,0,0,1c.07.35.12.72.17,1.1a4.77,4.77,0,0,0,.74,2.41A3,3,0,0,0,339,378c1.61-.36,3-1.31,3.29-2.26.45-1.46.92-2.91,1.38-4.35,1.17-3.66,2.39-7.44,3.35-11.21a18.74,18.74,0,0,0,.3-5.21c0-.62,0-1.24,0-1.86,0-.12-.22-.36-.38-.54l-.07-.08-.06,0-.71.62c-.65.61-1.29,1.28-1.91,1.92a24,24,0,0,1-4.83,4.18c-1.44.84-1.88,1.33-1.88,2.73,0,.39,0,.78,0,1.17.06,2,.13,4-1.31,5.91a6.84,6.84,0,0,0-1,2.28C335.07,371.61,335,371.89,334.9,372.17Zm151.54-24.43h-.75a4.16,4.16,0,0,1,1.36-3.48c1.17-.89,3-1,5.56-.32l-.19.73c-2.31-.61-4-.54-4.91.19A3.45,3.45,0,0,0,486.44,347.74Zm61.94-2.5a.81.81,0,0,1-.31-.06,1.21,1.21,0,0,1-.58-.78l-.06-.17a5.46,5.46,0,0,0-.58-.81c-.61-.77-1.38-1.72-.78-2.79v0a1.76,1.76,0,0,1,1.7-.88,1.26,1.26,0,0,1,1,.86c.07.33.15.63.22.93a18,18,0,0,1,.46,2.2l0,.13c.12.44.13,1-.76,1.31A1,1,0,0,1,548.38,345.24Zm0-.75.12,0c.39-.16.38-.21.32-.43a1.74,1.74,0,0,1,0-.22,17.5,17.5,0,0,0-.45-2.12c-.07-.3-.15-.6-.22-.92a.51.51,0,0,0-.42-.31,1,1,0,0,0-.95.54c-.32.59.08,1.15.72,1.95a6.31,6.31,0,0,1,.66.95c0,.07.07.15.1.24s.11.32.17.35Zm-77.4-.26-.7-.26.36-1,.7.26Zm-10-1-.34-.05a58.18,58.18,0,0,1-6.21-1.11l.19-.73a58.32,58.32,0,0,0,6.13,1.1l.33.05Zm3.14-2.69c-1.71-.11-3.44-.27-5.11-.42L458,340l.07-.75.93.09c1.66.16,3.39.32,5.08.42ZM453,340.18l-.66-.36.46-.85.66.36Zm-1.8-1.75a3.79,3.79,0,0,1-2.33-.65,15.33,15.33,0,0,1-3.91-4.66A56.85,56.85,0,0,0,435.83,320l.54-.52a57.82,57.82,0,0,1,9.2,13.32,14.77,14.77,0,0,0,3.72,4.43,4.15,4.15,0,0,0,3.21.3c.14-.05.51-.68.74-2.31.29-2-.61-3.43-2.05-5a28.91,28.91,0,0,1-2.48-3.29,27.94,27.94,0,0,0-2.3-3.1,44.07,44.07,0,0,0-3.69-3.54c-.75-.66-1.49-1.32-2.21-2a6.82,6.82,0,0,0-6.8-1.91l-.17-.73a7.51,7.51,0,0,1,7.49,2.1c.71.68,1.45,1.34,2.19,2a45.48,45.48,0,0,1,3.75,3.6,28.74,28.74,0,0,1,2.36,3.18,30.21,30.21,0,0,0,2.41,3.21c1.37,1.5,2.59,3.22,2.24,5.61-.38,2.68-1.05,2.87-1.27,2.93A5.88,5.88,0,0,1,451.15,338.43Zm28.11-.42a.85.85,0,0,1-.46-.13l-.08-.07a4.38,4.38,0,0,1-.94-2.37,8.65,8.65,0,0,0-.16-.86,4.27,4.27,0,0,1-.17-2.17c.13-.48.25-1,.37-1.44a31.41,31.41,0,0,1,2.07-6.3c.4-.79,1.84-1.08,3.69-1.37l.22,0a.87.87,0,0,1,.48,0,.47.47,0,0,1,.5.13l.14.17v0l.48.74-.24.22a18.69,18.69,0,0,1-1.82,1.39,18.86,18.86,0,0,0-1.64,1.25,5.61,5.61,0,0,0,1.58.27c1.18.11,2.19.21,2.19,1a23.84,23.84,0,0,0,0,2.68c.06,2,.13,4-.65,5.58l-.1.2h-.26c-1.05,0-1.61-1-2.11-1.94a3.25,3.25,0,0,0-.86-1.19c-.65.36-.59,1.07-.42,2.1.13.8.29,1.79-.61,2.06l-.23.07-.15-.17a.34.34,0,0,0-.24,0A1.24,1.24,0,0,1,479.26,338Zm0-.75c.05,0,.11,0,.27-.08a1,1,0,0,1,.83-.07c.1-.15.07-.49,0-1.13-.16-1-.39-2.37,1-3l.1,0,.11,0c.67.1,1.07.83,1.5,1.6s.75,1.36,1.25,1.52a12.64,12.64,0,0,0,.46-5,26,26,0,0,1,0-2.65,5.59,5.59,0,0,0-1.5-.26c-1-.1-1.92-.18-2.21-.69a.7.7,0,0,1,0-.67l.09-.12a20.22,20.22,0,0,1,1.83-1.4c.53-.38,1.08-.77,1.51-1.13l-.12-.18a.53.53,0,0,1-.28,0H484l-.25,0c-1,.16-2.88.46-3.14,1a31.3,31.3,0,0,0-2,6.14c-.13.49-.25,1-.38,1.45a3.79,3.79,0,0,0,.17,1.79c.08.31.13.62.18.93A3.72,3.72,0,0,0,479.24,337.26Zm15.64-9.42h-.18a1.16,1.16,0,0,1-1.17-1.07,8.89,8.89,0,0,0,0-1.78c-.12-1.27-.26-2.7.84-3.52l.09-.07h.12c.84,0,1.39,0,1.76.39.51.57.36,1.7-.08,5A1.28,1.28,0,0,1,494.88,327.84Zm-.19-5.69c-.67.58-.57,1.64-.46,2.77a8.69,8.69,0,0,1,0,1.9c0,.13.25.25.49.27s.64,0,.71-.39c.35-2.63.54-4.09.26-4.42C495.61,322.15,495.22,322.14,494.69,322.15Zm-20.3-13.36a4.93,4.93,0,0,1,1.23-3.73,3.58,3.58,0,0,1,2.65-1.18h0v.74h0a2.88,2.88,0,0,0-2.1.95,4.17,4.17,0,0,0-1,3.17Zm12.9-2.76-.8-.18-.07-.19a5.24,5.24,0,0,1,.66-4.7l.08-.13.14,0a2.6,2.6,0,0,1,2.46.88l.2.18c.48.42,0,1.78-.33,2.23a3.29,3.29,0,0,0-.32.56A2,2,0,0,1,487.29,306Zm-.24-.82.33.08c.79,0,1-.39,1.26-1a3.73,3.73,0,0,1,.4-.69,2.33,2.33,0,0,0,.37-1.27l-.16-.12a2,2,0,0,0-1.62-.74A4.56,4.56,0,0,0,487.05,305.21Zm-368-15.35-.36-1.39,1.49-3,.26,0,1.55.14c1.6.14,3.25.29,4.9.52.43.06.72.46,1,.85a4.41,4.41,0,0,0,.3.39l.27.3-.31.25a2.81,2.81,0,0,0-.31.29,1.89,1.89,0,0,1-1,.65c-1.87.28-3.78.5-5.62.72Zm.44-1.3.12.48,1.54-.18c1.84-.22,3.74-.45,5.6-.72a1.59,1.59,0,0,0,.55-.43l.1-.1-.12-.17c-.14-.2-.38-.53-.5-.55-1.63-.23-3.27-.37-4.85-.51l-1.31-.12Zm-4.37-2.72a11.42,11.42,0,0,1-7.53-3.16c-1.85-1.58-3.54-2.39-5.79-1.18a2.3,2.3,0,0,1-1.38.12,4.91,4.91,0,0,0-.53,0h-.26l-.54-1.36.34-.14a9,9,0,0,0,.82-.41,5.13,5.13,0,0,1,2-.72c4.21-.28,9-.28,12.92,3.17a3.25,3.25,0,0,0,1,.48,4.68,4.68,0,0,1,1,.44,3.47,3.47,0,0,1,.85.86l.3.36.3.33-.37.24a3.69,3.69,0,0,0-.4.29,2.37,2.37,0,0,1-1.1.59A9.32,9.32,0,0,1,115.16,285.84ZM104,280.16a6.58,6.58,0,0,1,4.17,1.95c2.77,2.39,5.55,3.33,8.5,2.86a1.87,1.87,0,0,0,.75-.44l.11-.09-.07-.08a3.12,3.12,0,0,0-.66-.69,4.52,4.52,0,0,0-.83-.37,3.57,3.57,0,0,1-1.21-.62c-3.67-3.26-8.12-3.26-12.37-3a4.47,4.47,0,0,0-1.7.64l-.54.28.09.22.35,0a1.78,1.78,0,0,0,.94,0A5.19,5.19,0,0,1,104,280.16Zm3.42-37.75-.16-.13c-1.35-1.12-1.39-2-1.25-2.78.43-2.35,4.12-4.81,6.56-6.43a17.35,17.35,0,0,0,1.54-1.08,3.92,3.92,0,0,0-1.61-.64c-1.64-.38-4.08-.47-5.56.52-.4.27-1,0-1.6-.25-.26-.11-.54-.23-.81-.32l-.57-.17.4-.44c2.6-2.81,5.76-3.63,8.79-4.08a3.13,3.13,0,0,1,2.47,1.32,3.19,3.19,0,0,1,1,2.71c-.18.61-.17,1.05,0,1.24a1.36,1.36,0,0,0,1.25,0,4.11,4.11,0,0,1,3.64.47,2.49,2.49,0,0,1,1.09,2.06v.09c-.35,1.36-2.18,2.1-3.8,2.75-.51.2-1,.4-1.42.61a2.17,2.17,0,0,1-1.52-.09,1.91,1.91,0,0,1-1.12-.92l-.06-.15.07-.16a7.26,7.26,0,0,1,.89-1.25c.12-.14.27-.32.39-.48a6.29,6.29,0,0,0-5.27,2.29,7.23,7.23,0,0,0-1.13,2.28c-.47,1.28-1,2.61-2,2.94Zm7.46-10.47v0l0,.19c-.06.32-.44.59-1.88,1.54-2.2,1.46-5.87,3.91-6.24,5.94-.07.39-.19,1,.82,1.92a5.16,5.16,0,0,0,1.32-2.4,7.31,7.31,0,0,1,1.3-2.54,7,7,0,0,1,6-2.51.67.67,0,0,1,.72.22c.23.38-.11.79-.68,1.48a7.8,7.8,0,0,0-.7.93,1.54,1.54,0,0,0,.6.37,1.65,1.65,0,0,0,.93.12c.44-.22.94-.43,1.47-.64,1.43-.57,3-1.22,3.34-2.19A1.77,1.77,0,0,0,121,233a3.38,3.38,0,0,0-3-.36,2.06,2.06,0,0,1-2-.2,1.91,1.91,0,0,1-.2-2,2.55,2.55,0,0,0-.81-2,2.51,2.51,0,0,0-1.79-1.07c-3.15.47-5.73,1.26-7.95,3.44l.33.15a3.25,3.25,0,0,0,.91.3c2.41-1.63,6.84-.76,8,.12A.81.81,0,0,1,114.83,231.94Zm1.31,9.95a2.75,2.75,0,0,1-1.41-.4l-.35-.2.24-.34c1.66-2.35,3-2.81,4.79-1.58l.35.24-.28.32C118.29,241.24,117.19,241.89,116.14,241.89Zm-.65-.86c.68.25,1.67.2,3.13-1.28C117.65,239.2,116.78,239.33,115.49,241Zm136.43-17-.13-.21-.62-.92a8.5,8.5,0,0,1-.86-1.44c-.23-.58-.58-1.61-.17-2.1l.58.48-.29-.24.29.24a2.53,2.53,0,0,0,.29,1.33,7.94,7.94,0,0,0,.78,1.31c.15.21.31.46.49.73l1.32-.18a30.62,30.62,0,0,0,4.51-.84c.47-.13.9-.87,1.29-1.52.09-.17.19-.34.29-.49a6.22,6.22,0,0,0-.43-.58c-.45-.57-.86-1.08-1.27-1.58-.58-.72-1.17-1.45-1.73-2.18a22.73,22.73,0,0,1-1.44-2.18,7.75,7.75,0,0,1-.42-.81,7.33,7.33,0,0,0-.47-.88c-.13-.19-.25-.39-.37-.59a4.21,4.21,0,0,0-1.28-1.55,2.19,2.19,0,0,0-1.68.64,2.65,2.65,0,0,0-.3,2,3.7,3.7,0,0,0,1.51,2.33l-.41.63a4.44,4.44,0,0,1-1.84-2.81,3.47,3.47,0,0,1,.41-2.61,2.69,2.69,0,0,1,2.66-.89A4.74,4.74,0,0,1,254.2,211c.11.19.23.39.35.57a6.49,6.49,0,0,1,.52,1c.13.25.25.5.39.74a22.53,22.53,0,0,0,1.39,2.11c.57.73,1.15,1.45,1.73,2.17.41.5.82,1,1.22,1.52.53.67.81,1.06.59,1.4L260,221c-.47.82-1,1.65-1.72,1.87a30.38,30.38,0,0,1-4.63.86c-.53.07-1.05.14-1.53.22Zm-8.64-1.94a4.51,4.51,0,0,1-1.31-.19l-.25-.08v-.26c-.21-3.34.19-5.21,1.35-6.24s2.87-1.18,5.6-.68l.24,0,.06.24a6,6,0,0,1-2,5.59A5.51,5.51,0,0,1,243.28,222.08Zm-.84-.84a4.45,4.45,0,0,0,4.05-1.29,5.38,5.38,0,0,0,1.79-4.63c-2.35-.4-3.85-.22-4.72.55S242.28,218.32,242.44,221.24Zm-51-16.2a7.41,7.41,0,0,1-5-2,2.63,2.63,0,0,1-.81-1.6l-.07-1c-.18-2.43-.36-5-.3-7.42,0-.81.82-1.53,1.53-2.17l.29-.27a16.58,16.58,0,0,1,1.82-1.43l.84-.62c.78-.6,1.17-1.14,1.17-1.63s-.34-1-1-1.53a3.43,3.43,0,0,1-.93-1.59l-.18-.44c-1.5-3.54-3.38-5.4-6.1-6a6.92,6.92,0,0,0-2.22,0,12.51,12.51,0,0,1-1.63.11,22.45,22.45,0,0,1-2.47-.24l-1.07-.15-.27,0-.05-.27c-.2-1-.36-2.17.23-2.84a1.87,1.87,0,0,1,1.6-.52c2.84.18,5.4-.84,7.88-1.83a34.63,34.63,0,0,1,4.3-1.49A29.93,29.93,0,0,1,199.37,169a46.63,46.63,0,0,0,12.42-.36c.92-.13,1.85-.29,2.77-.44a31,31,0,0,1,9.7-.58,3.77,3.77,0,0,0,1.55-.26,5.9,5.9,0,0,1,1.61-.32c4,0,8.52.07,12.8,2a5.84,5.84,0,0,0,2.63.23,13.37,13.37,0,0,1,1.55,0,2.13,2.13,0,0,1,1.63.94l.35.46-.57.13-1.07.26c-.78.18-1.59.38-2.39.51-2.37.37-3.94,1.91-5,4.84a8.85,8.85,0,0,1-6.33,5.55l-2.2.62-.58.16a3,3,0,0,0,1.27.86c.94.43,2.12,1,1.49,2.85l-.06.18-2.39.72c-.17,1.32-1,1.72-2.23,1.9-.77.11-1.55.21-2.33.3a33.78,33.78,0,0,0-9,2l-2.21,1a32.57,32.57,0,0,1-8.07,2.85c-3.57.62-5.65,3.71-7.49,6.43a6.87,6.87,0,0,1-5.85,3.19Zm-9.64-28.54a4.87,4.87,0,0,1,1,.1c3.86.9,5.63,4.12,6.62,6.47.07.15.13.31.19.47a3,3,0,0,0,.7,1.26,2.78,2.78,0,0,1,1.32,2.12,3,3,0,0,1-1.47,2.23l-.86.63a17.76,17.76,0,0,0-1.74,1.37l-.3.27c-.53.49-1.26,1.15-1.28,1.64-.06,2.44.12,4.93.3,7.34l.07,1a1.9,1.9,0,0,0,.57,1.11,6.49,6.49,0,0,0,5.21,1.78,6.28,6.28,0,0,0,4.53-2.81c1.92-2.86,4.09-6.09,8-6.76a31.88,31.88,0,0,0,7.88-2.79c.73-.34,1.47-.68,2.23-1a34.38,34.38,0,0,1,9.18-2l2.31-.31c.94-.13,1.37-.35,1.53-.9l-.89.27,1.77-1.81,0,.5,1.75-.53c.3-1.08-.26-1.34-1.16-1.75a2.92,2.92,0,0,1-1.84-1.67l-.11-.37,1.38-.39,2.2-.62a8.09,8.09,0,0,0,5.82-5.07c1.1-3.17,2.92-4.91,5.55-5.33.78-.13,1.57-.32,2.33-.5l.43-.11a1.27,1.27,0,0,0-.63-.2,14.3,14.3,0,0,0-1.46,0,6.34,6.34,0,0,1-3-.29c-4.14-1.89-8.58-1.93-12.5-2a5.68,5.68,0,0,0-1.38.29,4.38,4.38,0,0,1-1.88.28,30.61,30.61,0,0,0-9.47.58c-.93.16-1.85.31-2.79.44a47.62,47.62,0,0,1-12.62.37,29.22,29.22,0,0,0-10.16,1,34.18,34.18,0,0,0-4.2,1.46c-2.56,1-5.2,2.06-8.21,1.88a1.17,1.17,0,0,0-1,.27c-.31.35-.25,1.12-.11,1.93l.82.11a17.79,17.79,0,0,0,2.37.24,9.84,9.84,0,0,0,1.53-.11A14.32,14.32,0,0,1,181.79,176.5Zm-22.08,25.39a6.54,6.54,0,0,1-5.79-3.12,3.68,3.68,0,0,1-.48-3.67,3.64,3.64,0,0,1,3.14-1.87,7.83,7.83,0,0,1,1.61.11c.38,0,.73.1,1.07.11a2.47,2.47,0,0,0,.68-.11l-1-1.21c-1-1.25-2-2.42-3-3.55a3.29,3.29,0,0,0-3-.89,60.17,60.17,0,0,1-9-.23l-1.3-.1a1.37,1.37,0,0,1-1.15-1,2.89,2.89,0,0,1,.49-2.85c1.75-1.94,4.1-2.75,7.17-2.5.63.05,1.25.14,1.87.22s1.09.14,1.64.19a3.14,3.14,0,0,0,.66,0,1.66,1.66,0,0,1,1.31.17,8.42,8.42,0,0,0,4.16,1.46c1.87.3,3.81.62,5.26,2.33l-.57.48c-1.27-1.49-3-1.77-4.81-2.07a9.07,9.07,0,0,1-4.52-1.62c-.09-.08-.49,0-.75,0a4.36,4.36,0,0,1-.81,0l-1.67-.2c-.61-.08-1.22-.16-1.83-.21a7.46,7.46,0,0,0-6.56,2.25,2.14,2.14,0,0,0-.35,2.07c.07.17.23.46.52.48l1.29.1a61.69,61.69,0,0,0,8.91.24c1.51-.11,2.65,0,3.63,1.12s2,2.33,3,3.58l1.36,1.66.4.47-.6.14-.43.11a3.41,3.41,0,0,1-1,.17,8.61,8.61,0,0,1-1.15-.12,6.64,6.64,0,0,0-1.45-.1,2.89,2.89,0,0,0-2.53,1.45,3,3,0,0,0,.43,2.92c1.57,2.36,3.77,3.19,6.94,2.63l.13.73A10.77,10.77,0,0,1,159.71,201.89Zm71.54-2-.13,0c-.32-.15-.65-.28-1-.42a28.15,28.15,0,0,1-3-1.42.48.48,0,0,1-.23-.35,3.26,3.26,0,0,1,.5-2,2.72,2.72,0,0,1,1.87-.75c2.69-.28,5.86-.6,9-.79a1.28,1.28,0,0,1,.85.47,1.63,1.63,0,0,1,.51,1.09c-.08.68-.51,1.76-1.19,2-1.67.59-3.37,1.07-5.16,1.58l-1.94.55Zm-3.59-2.47a26.41,26.41,0,0,0,2.78,1.31l.86.37,1.82-.52c1.78-.51,3.46-1,5.11-1.57.27-.09.63-.81.7-1.39a1.55,1.55,0,0,0-.61-.71c-3.1.19-6.26.51-8.94.79a2.15,2.15,0,0,0-1.36.47A2.76,2.76,0,0,0,227.66,197.45Zm-62.79-1.37-.74-.13a2.28,2.28,0,0,1,1.6-1.42,1.22,1.22,0,0,1,1,.33,1.65,1.65,0,0,0,.46.25l.76,0c.89,0,2.1-.07,2.36-.46.63-1,.23-2.12-1-3a8.37,8.37,0,0,1-2.16-2.68c-.26-.43-.52-.86-.8-1.25l.61-.44c.29.41.56.86.83,1.3a7.74,7.74,0,0,0,1.94,2.45c1.63,1.13,2.11,2.72,1.24,4-.47.71-1.73.75-3,.79-.25,0-.5,0-.73,0a1.48,1.48,0,0,1-.93-.38,1.93,1.93,0,0,0-.39-.23A1.73,1.73,0,0,0,164.87,196.08Zm-3.31-18.15a4,4,0,0,1-3.41-1.37c-.48-.74.12-2.16.52-2.94a1.21,1.21,0,0,0,.08-.34,1.26,1.26,0,0,1,.74-1.14c.31-.67.7-.75,1-.69l.1,0a6.92,6.92,0,0,1,4.15-.08c1.4.26,2.73.5,4-.18V171l-4.41-.57,0-1.45,24.16-2,.5,1.2-.32.16c-.58.28-1.15.58-1.72.88a22.77,22.77,0,0,1-4,1.81,39.69,39.69,0,0,1-5.25,1.06c-.79.13-1.58.25-2.37.4a2.9,2.9,0,0,0-.76.24L171.81,174c-2.52,1.1-5.13,2.23-7.65,3.42A6.44,6.44,0,0,1,161.56,177.93Zm-1.87-5.06c-.1.06-.14.2-.2.53a1.92,1.92,0,0,1-.15.57c-.57,1.11-.71,1.94-.56,2.18.76,1.18,3.49,1.33,5.06.59,2.53-1.2,5.15-2.33,7.67-3.43l2.79-1.21a4.24,4.24,0,0,1,.92-.29c.8-.15,1.59-.27,2.39-.4a39.29,39.29,0,0,0,5.16-1,22.18,22.18,0,0,0,3.89-1.75l1.42-.74,0,0-22.94,1.85v.1l4.44.57-.09,1.23-.16.11c-1.53.94-3.12.65-4.66.36a6.54,6.54,0,0,0-3.59,0,.49.49,0,0,1-.58.16c-.1,0-.2,0-.37.43l-.09.24Z" transform="translate(-8.22 -167.04)"/><path class="cls-1" d="M51.82,222.19l-.74-.09c.09-.69.14-1.39.2-2.09a20.89,20.89,0,0,1,.75-4.65c1.31-4,.56-5.8-3.11-7.3a5,5,0,0,1-1.1-.7,6.06,6.06,0,0,0-.79-.53c-.88-.45-1.87-.89-3.11-1.38-2.41-1-4.74-.61-7.21-.25a28.87,28.87,0,0,1-3.49.38,15.39,15.39,0,0,0-6.63,2.07,23.64,23.64,0,0,1-3.89,1.64c-1.89.55-3.77,1.3-5.59,2-1.28.51-2.6,1-3.92,1.5a9.76,9.76,0,0,0-1,.41c-1.25.54-2.67,1.16-3.6.39l-.09-.08-.21-.82a.64.64,0,0,1,0-.47c.23-.65,1.61-1.19,4.49-2.16a17.17,17.17,0,0,0,3.27-1.3v0l.06-.1c.06-.1.05-.15,0-.17-.09-.31-.88-.68-1.45-1a5.74,5.74,0,0,1-1.25-.69l-.11-.14c-.33-.8.53-1.44,1.3-2a7.33,7.33,0,0,0,.94-.79,2,2,0,0,0,.41-.8c.68-3.09,1.21-3.33,4.54-3.64,1.86-.17,5.42-1.17,5.91-1.74h0c-.37-.06-.72-.09-1-.13a8.39,8.39,0,0,1-1.93-.36,4.6,4.6,0,0,1-1.36-.9l-.5-.41a.59.59,0,0,1-.23-.63c.2-.75,2-1.15,2.06-1.16,1-.17,1.94-.24,2.88-.32.67-.05,1.34-.1,2-.19.3,0,.69,0,1.1-.07a6.61,6.61,0,0,0,1.69-.18v-.07a7,7,0,0,0,.12-1c.11-1.32.24-3,3.05-3.27a13.54,13.54,0,0,0,3-.84,20.14,20.14,0,0,1,2-.68c8.57-2.2,15.25-2.49,21.68-.93a90.35,90.35,0,0,0,13,2.38,14,14,0,0,0,4.51-.64,26.46,26.46,0,0,1,2.78-.6c.64-.09,1.27-.2,1.9-.32,2.44-.44,5-.9,7.66.19a10.23,10.23,0,0,0,3.7.46,16.81,16.81,0,0,1,2.84.19l.13,0c1.84.33,3.93.71,5.15,2.78,0,0,.31.15,1.65,0a9,9,0,0,1,4.1.94l.64.25a1,1,0,0,0,.78-.61.83.83,0,0,0,.12-.64c-1.81-.44-3.36-.67-4.61-.86-2-.3-3.08-.46-3.23-1.29v-.05l.11-.91a.48.48,0,0,1,.12-.4c.32-.4,1.16-.41,2.87-.36.41,0,.93,0,1.27,0a5.73,5.73,0,0,0-3.07-2.15,4.52,4.52,0,0,0-4,.64,3.76,3.76,0,0,1-2.25.39,9.17,9.17,0,0,0-1,0l-.28,0-.1-.27c-.6-1.66,0-2.45,1.17-3.25,4.56-3.09,9-3.74,13.62-2a5.37,5.37,0,0,1,1.82,1c1.17,1.09,2,1.27,3.1.63.13-.08.8-.46,1.23-.21a3.6,3.6,0,0,0,2.71.16,5.75,5.75,0,0,1,2.89,0l.28.09-.06.81c0,.4-.08.82-.09,1.25,0,.14,0,.28,0,.42a2,2,0,0,0,.09,1c.7,1.11,1,1.79.78,2.37s-1,.83-2,1.06a15,15,0,0,1-5.17.24,4.74,4.74,0,0,0-3.38.55.26.26,0,0,0-.09.16c1,.78,12.08,1.8,14,1.32,0-.3-.45-.67-.8-1-.53-.51-1.09-1-.91-1.66a1,1,0,0,1,.57-.81c1-.62,3.47-1,4.39-.48l.1.06.06.11c.25.54-.17,1.07-.55,1.55-.21.27-.53.68-.43.78a.79.79,0,0,1,.19.22c.12-.13.28-.29.44-.44.38-.37.82-.79.83-1.09.07-2.51,1.24-3.79,3.68-4a10.7,10.7,0,0,1,1.27,0h1l0,.32c.05.34.07.7.09,1,.11,1.54.19,2.76,2.15,2.89.42,0,.41.47.39.85s0,1.28.36,1.63c.43,0,1-.7,1.57-1.31a5.22,5.22,0,0,1,1.93-1.64,8.56,8.56,0,0,1,4.84-.12c.25.08.71.33.6,1.15-.22,1.51-2.53,4.62-5,4.76a22.86,22.86,0,0,0-5,1.65A22.42,22.42,0,0,1,134,197.3l-.08-.75a23,23,0,0,0,4-1.37,22.62,22.62,0,0,1,5.3-1.71c2-.11,4.12-2.82,4.3-4.11,0-.07,0-.3-.05-.33a8,8,0,0,0-4.4.1,5.12,5.12,0,0,0-1.61,1.43c-.76.87-1.48,1.7-2.33,1.55l-.14-.05c-.83-.55-.79-1.71-.77-2.34a.34.34,0,0,0,0-.1c-2.33-.3-2.45-2.1-2.54-3.56,0-.23,0-.45-.06-.67h-.33a9.2,9.2,0,0,0-1.18,0c-2.07.18-2.94,1.14-3,3.28,0,.61-.55,1.12-1.06,1.61a7.69,7.69,0,0,0-.57.58l-.08.07a.56.56,0,0,1-.48.12.61.61,0,0,1-.4-.36.64.64,0,0,0-.13-.18c-.6-.6,0-1.29.36-1.8a3.91,3.91,0,0,0,.44-.65,5.85,5.85,0,0,0-3.46.51c-.19.13-.22.21-.22.22v.08l0,.07c-.06.19.38.61.71.92.57.55,1.23,1.17,1,1.93l0,.15L127,192c-1.26.67-12.13-.16-14.54-1.11-.39-.16-.59-.32-.67-.54a1,1,0,0,1,.26-.94c.71-.77,2.6-1,4-.78a14.47,14.47,0,0,0,4.9-.23c.59-.13,1.37-.33,1.49-.62s-.27-1-.72-1.68a2.37,2.37,0,0,1-.19-1.45c0-.13,0-.26,0-.38,0-.45,0-.89.09-1.31l0-.19a5.66,5.66,0,0,0-2.24.13,4.33,4.33,0,0,1-3.24-.25,2,2,0,0,0-.45.2c-1.73,1-3,.16-4-.72a4.76,4.76,0,0,0-1.58-.84c-4.36-1.64-8.59-1-12.93,1.93-1,.64-1.27,1.09-1,2.11h.83a3.27,3.27,0,0,0,1.79-.25,5.23,5.23,0,0,1,4.65-.75,6,6,0,0,1,3.72,2.91l.06.17-.09.24c-.2.33-.71.33-2.13.29a10.25,10.25,0,0,0-2.22.07l-.09.8c.15.28,1.39.47,2.59.65s2.84.42,4.74.89a.93.93,0,0,1,.49,1.19,1.84,1.84,0,0,1-1.73,1.52l-.11,0-.72-.28a8.36,8.36,0,0,0-3.75-.89c-1.2.11-2.07.08-2.35-.4-1-1.77-2.88-2.1-4.65-2.42l-.12,0a16.1,16.1,0,0,0-2.71-.18,11,11,0,0,1-4-.52c-2.5-1-4.81-.58-7.25-.14-.64.12-1.28.23-1.92.32-.9.13-1.82.36-2.71.58a14.16,14.16,0,0,1-4.76.66,91.23,91.23,0,0,1-13.09-2.39c-6.31-1.53-12.88-1.24-21.32.93a20.62,20.62,0,0,0-2,.65,13.62,13.62,0,0,1-3.13.88c-2.2.25-2.29,1.28-2.39,2.59a8.62,8.62,0,0,1-.12,1,.59.59,0,0,1-.13.42c-.3.4-1.07.45-2.29.49-.38,0-.75,0-1,.07-.67.08-1.35.14-2,.19-.93.07-1.89.15-2.81.31a4.28,4.28,0,0,0-1.38.55l.41.34a4,4,0,0,0,1.12.76,7,7,0,0,0,1.77.32l1.13.14.11,0c.51.26.53.61.5.8-.26,1.32-5.69,2.31-6.62,2.39-3.15.29-3.29.4-3.88,3.05a2.63,2.63,0,0,1-.57,1.13,7.57,7.57,0,0,1-1.07.9c-.42.31-1,.77-1.06,1a9,9,0,0,0,1,.53c.82.38,1.66.77,1.85,1.4a.94.94,0,0,1-.07.7c-.11.54-1.11.92-3.78,1.83-1.37.47-3.65,1.24-4,1.66l.16.64c.61.36,1.73-.13,2.73-.56.37-.16.73-.32,1.06-.43,1.31-.46,2.62-1,3.89-1.49,1.84-.73,3.73-1.49,5.66-2.05A22.87,22.87,0,0,0,26.26,207a16.14,16.14,0,0,1,6.94-2.15,28,28,0,0,0,3.4-.37c2.46-.36,5-.74,7.6.29a33.41,33.41,0,0,1,3.17,1.42,5,5,0,0,1,.9.6,4.36,4.36,0,0,0,.93.59c4,1.67,5,3.82,3.54,8.24a20.55,20.55,0,0,0-.71,4.47C52,220.78,51.91,221.49,51.82,222.19Z" transform="translate(-8.22 -167.04)"/><path class="cls-1" d="M510.32,406.56H510a31.64,31.64,0,0,1-3.54-.69c-.88-.2-1.78-.42-2.67-.56-1.94-.32-2.75-1.37-2.56-3.31,0-.24.06-.48.09-.72a3.06,3.06,0,0,0-.16-2.24,2.12,2.12,0,0,0-1.5-.68c-.43-.06-.57-.55-.77-1.22-.07-.24-.14-.49-.23-.72l0-.08v-.08c0-.36,0-.5-.08-.53s-.62.06-1,.16c-.81.26-2,.64-2.63-.54a7.44,7.44,0,0,0-8.2-3.55l-.56.11a16.85,16.85,0,0,0-4.64,1.36,26.55,26.55,0,0,1-7.85,2.51c-1.13.21-2.26.54-3.36.86a35.52,35.52,0,0,1-3.45.87,33.28,33.28,0,0,1-4.21.39c-.61,0-1.23.05-1.84.1h-.22l-.76-1.15.09-.19c.13-.3.26-.61.38-.92a12.24,12.24,0,0,1,1-2.06c1.08-1.63,1.91-3.14,1.28-5.25a10.81,10.81,0,0,1-.18-3.94l0-.67c.21-3.49.43-7.11.89-10.66a3.57,3.57,0,0,1,2-2.4c1.34-.53,2.73-1,4.07-1.41a44.77,44.77,0,0,0,5.82-2.18,15.4,15.4,0,0,0,3.67-2.84c.54-.52,1.11-1.05,1.69-1.54.28-.23.57-.45.87-.67a12.68,12.68,0,0,0,1.31-1.07l.1-.11a38.89,38.89,0,0,0,3.33-3.59,5.67,5.67,0,0,1,8.72-1.09c2.75-5.72,7.27-7.23,14.6-4.9l.12,0,.07.1c1.09,1.51.05,2.69-.87,3.73a6.9,6.9,0,0,0-1.25,1.74l-.69-.29a7,7,0,0,1,1.38-1.95c1-1.09,1.49-1.77.89-2.69-7-2.19-11.25-.66-13.77,5l-.2.46-.38-.33a5.74,5.74,0,0,0-4.3-1.67,5.52,5.52,0,0,0-3.72,2.34,39.38,39.38,0,0,1-3.4,3.66l-.1.11a13.57,13.57,0,0,1-1.39,1.14c-.29.21-.57.43-.84.65-.56.47-1.12,1-1.65,1.5a16.22,16.22,0,0,1-3.86,3,47.43,47.43,0,0,1-5.92,2.21c-1.33.43-2.71.88-4,1.39a2.94,2.94,0,0,0-1.56,1.81c-.45,3.52-.67,7.12-.88,10.61l0,.68a10.4,10.4,0,0,0,.16,3.67c.72,2.41-.24,4.15-1.37,5.87a10.44,10.44,0,0,0-.93,1.93c-.1.26-.21.51-.32.76l.3.44,1.64-.08a31.56,31.56,0,0,0,4.11-.38,32.58,32.58,0,0,0,3.37-.85,35.35,35.35,0,0,1,3.44-.88,25.45,25.45,0,0,0,7.63-2.44,17.41,17.41,0,0,1,4.85-1.43l.55-.11a8.2,8.2,0,0,1,9,3.95c.28.55.77.47,1.74.17.62-.2,1.21-.38,1.64-.05a1.26,1.26,0,0,1,.37,1.09c.09.23.16.48.23.71a5.58,5.58,0,0,0,.24.7,2.76,2.76,0,0,1,1.91,1,3.69,3.69,0,0,1,.3,2.8l-.09.68c-.15,1.56.37,2.24,1.94,2.5.92.15,1.83.36,2.72.57a31.08,31.08,0,0,0,3.46.67,4.42,4.42,0,0,0,1.91-.45c.26-.11.53-.21.78-.29L513,405c1.28-.42,2.59-.85,3.84-1.37l.22-.09a6.14,6.14,0,0,0,2.14-1.19c.89-.91,1.75-1.9,2.58-2.85a36.51,36.51,0,0,1,4.82-4.89c2.2-1.74,3.83-3.14,4.85-5.37,2.51-5.53,4.24-10.54-.1-15.82a45.14,45.14,0,0,1-4.39-6.89c-.51-.91-1-1.83-1.55-2.73a1.3,1.3,0,0,1,0-.91,1.18,1.18,0,0,0,0-.43l-.33-1.93a54,54,0,0,0-1.18-5.76,10.77,10.77,0,0,0-1.6-3l-.56-.85c-.29-.46-.71-.82-.88-.82h0a1.37,1.37,0,0,0-.75.78,30.56,30.56,0,0,0-.91,4.71c-.23,2.33-1.65,3.84-3,5.31-.29.31-.59.63-.87,1a1.61,1.61,0,0,1-1.74.06l.44-.61a1.11,1.11,0,0,0,.76,0c.26-.3.56-.62.86-.94,1.35-1.44,2.62-2.8,2.82-4.87a33,33,0,0,1,.93-4.83,2,2,0,0,1,1.46-1.34h0c.76,0,1.44,1,1.52,1.16.17.28.36.56.55.84a11.63,11.63,0,0,1,1.69,3.21,52.34,52.34,0,0,1,1.2,5.85l.33,1.92a2.09,2.09,0,0,1,0,.71,1.47,1.47,0,0,0,0,.38c.53.9,1,1.83,1.56,2.75a44.88,44.88,0,0,0,4.31,6.77c4.62,5.61,2.82,10.85.2,16.61-1.17,2.57-3.15,4.14-5.07,5.65a36.15,36.15,0,0,0-4.71,4.79c-.84,1-1.7,2-2.61,2.88a7.12,7.12,0,0,1-2.39,1.37l-.22.09c-1.28.52-2.61,1-3.89,1.38l-.18.06c-.25.08-.49.18-.74.27A5.65,5.65,0,0,1,510.32,406.56Z" transform="translate(-8.22 -167.04)"/><path class="cls-1" d="M537.41,349.76l-.29-.1c-.66-.22-1.34-.41-2-.6a16.58,16.58,0,0,1-4.54-1.78,8.11,8.11,0,0,1-2.13-2.51c-.78-1.2-1.52-2.33-2.53-2.38-.46,0-.58.08-.59.1s0,.12,0,.2a.65.65,0,0,1-.18.56,8.86,8.86,0,0,0-.78.9c-.82,1-1.74,2.17-3.62,1.55-.9-.3-1.79-.65-2.64-1-.66-.27-1.31-.53-2-.77s-1.08-.33-1.72-.49l-1-.26-.28-.08v-.29s0-.11,0-.19c-.05-.35-.12-.82.17-1.09a2,2,0,0,0,.86-1.57c-.07-.71-.84-1.32-1.48-1.71-1.87-1.12-3.85-2.12-5.95-3.17l-2.83-1.44-.23-.12,0-.25a2.6,2.6,0,0,0-2-3.1c-.38-.12-.45-.58-.54-1.12a2.73,2.73,0,0,0-.08-.46l-.1-.41.41-.06c.35,0,.69-.1,1-.16a16.9,16.9,0,0,1,2.67-.28c.66,0,1.36.75,1.67,1.25.48.8.89,1.65,1.28,2.47.11.21.21.42.31.64l1-.64a12.06,12.06,0,0,1,2.53-1.43c1.79-.64,3.08-.77,3.93-.38,4.69,2.13,9.22,4.47,14.24,7.09a3,3,0,0,1,1.54,2.17c.07,3.55,2.25,5.58,4.59,7.24a8.79,8.79,0,0,1,1.42,1.37l.57.64.21.21Zm-11.55-8.12h.08c1.4.07,2.28,1.42,3.12,2.72a7.78,7.78,0,0,0,1.92,2.29,15.92,15.92,0,0,0,4.33,1.68c.59.17,1.19.34,1.77.53l.27-.45L537,348a8.49,8.49,0,0,0-1.29-1.26c-2.39-1.69-4.83-3.94-4.91-7.84a2.33,2.33,0,0,0-1.14-1.52c-5-2.61-9.53-4.94-14.2-7.07-.66-.29-1.79-.16-3.37.41a11.34,11.34,0,0,0-2.37,1.34c-.41.28-.85.58-1.33.87l-.35.22-.18-.37c-.17-.34-.34-.68-.5-1-.41-.84-.79-1.64-1.26-2.4-.27-.46-.78-.89-1-.89h0a16.2,16.2,0,0,0-2.49.27l-.65.11a.59.59,0,0,0,0,.13,3.73,3.73,0,0,0,.1.54,3.28,3.28,0,0,1,2.45,3.61l2.61,1.32c2.11,1.06,4.1,2.06,6,3.2a3.22,3.22,0,0,1,1.83,2.28,2.68,2.68,0,0,1-1.1,2.2s0,.29.07.42h0l.74.19c.66.17,1.23.31,1.79.51s1.35.52,2,.78c.85.35,1.72.7,2.59,1,1.32.43,1.92-.21,2.8-1.31a7.84,7.84,0,0,1,.81-.92.13.13,0,0,0,0-.06,1,1,0,0,1,.25-.74A1.43,1.43,0,0,1,525.86,341.64Zm-1.25,1.06Z" transform="translate(-8.22 -167.04)"/><path class="cls-1" d="M159.71,201.89a6.54,6.54,0,0,1-5.79-3.12,3.68,3.68,0,0,1-.48-3.67,3.64,3.64,0,0,1,3.14-1.87,7.83,7.83,0,0,1,1.61.11c.38,0,.73.1,1.07.11a2.47,2.47,0,0,0,.68-.11l-1-1.21c-1-1.25-2-2.42-3-3.55a3.29,3.29,0,0,0-3-.89,60.17,60.17,0,0,1-9-.23l-1.3-.1a1.37,1.37,0,0,1-1.15-1,2.89,2.89,0,0,1,.49-2.85c1.75-1.94,4.1-2.75,7.17-2.5.63.05,1.25.14,1.87.22s1.09.14,1.64.19a3.14,3.14,0,0,0,.66,0,1.66,1.66,0,0,1,1.31.17,8.42,8.42,0,0,0,4.16,1.46c1.87.3,3.81.62,5.26,2.33a6.91,6.91,0,0,0,2.54,1.65l.14-.1.22.26.46.2-.26.17c.21.31.41.64.61,1a7.74,7.74,0,0,0,1.94,2.45c1.63,1.13,2.11,2.72,1.24,4-.47.71-1.73.75-3,.79-.25,0-.5,0-.73,0a1.48,1.48,0,0,1-.93-.38,1.93,1.93,0,0,0-.39-.23,1.73,1.73,0,0,0-1,.83,3.16,3.16,0,0,0,.1,1.13,2.38,2.38,0,0,1-.23,2.13,6.33,6.33,0,0,1-2.71,2.18l0,0-.45.14A10.77,10.77,0,0,1,159.71,201.89ZM156.92,194h-.28a2.89,2.89,0,0,0-2.53,1.45,3,3,0,0,0,.43,2.92c1.56,2.34,3.74,3.18,6.89,2.64a6.79,6.79,0,0,0,2.68-2,1.79,1.79,0,0,0,.13-1.58,3.67,3.67,0,0,1-.11-1.42,2.28,2.28,0,0,1,1.6-1.42,1.22,1.22,0,0,1,1,.33,1.65,1.65,0,0,0,.46.25l.76,0c.89,0,2.1-.07,2.36-.46.63-1,.23-2.12-1-3a8.37,8.37,0,0,1-2.16-2.68c-.2-.32-.4-.65-.6-1h0l-.22-.25a7.6,7.6,0,0,1-2.81-1.86c-1.27-1.49-3-1.77-4.81-2.07a9.07,9.07,0,0,1-4.52-1.62c-.09-.08-.49,0-.75,0a3.64,3.64,0,0,1-.81.05l-1.67-.2c-.61-.08-1.22-.16-1.83-.21a7.46,7.46,0,0,0-6.56,2.25,2.14,2.14,0,0,0-.35,2.07c.07.17.23.46.52.48l1.29.1a61.69,61.69,0,0,0,8.91.24c1.52-.11,2.65,0,3.63,1.12s2,2.33,3,3.58l1.36,1.66.4.47-.6.14-.43.11a3.41,3.41,0,0,1-1,.17,8.61,8.61,0,0,1-1.15-.12A10,10,0,0,0,156.92,194Z" transform="translate(-8.22 -167.04)"/><path class="cls-2" d="M107.37,240.89" transform="translate(-8.22 -167.04)"/><path class="cls-1" d="M491,262.07c-2-.87-2.86-1.63-3-2.52s.31-1.55,1.36-2.5l.51.55c-.84.76-1.21,1.36-1.13,1.83s.91,1.22,2.57,1.95Zm5.79-3.77a19.39,19.39,0,0,1-2.82-.52,40.79,40.79,0,0,0-5.08-.92l-.54,0,.23-.49c.64-1.37,1.5-2.83,3.68-2.89,2.94-.08,4.65-2,6.46-4.11l.68-.78c.06-.06.14-.49-.21-1.59l.71-.23c.57,1.76.19,2.18.06,2.32l-.68.77c-1.83,2.11-3.73,4.28-7,4.37a3,3,0,0,0-2.79,2c1.39.16,3.17.55,4.64.87a17.66,17.66,0,0,0,2.69.5.33.33,0,0,0-.21.2l.27.1.34-.28.05.52C497.14,258.22,497,258.3,496.74,258.3Zm4.16-3-.07-.74a2.58,2.58,0,0,0,2-.89,3.07,3.07,0,0,0,.14-2.56,28.51,28.51,0,0,1-.8-4.15,3.85,3.85,0,0,0-1.25-2.78,3.47,3.47,0,0,0-2.76-.37L498,243a4.11,4.11,0,0,1,3.35.5,4.48,4.48,0,0,1,1.54,3.3,26.81,26.81,0,0,0,.79,4,3.76,3.76,0,0,1-.26,3.19A3.26,3.26,0,0,1,500.9,255.26Z" transform="translate(-8.22 -167.04)"/><path class="cls-1" d="M451.15,338.43a3.79,3.79,0,0,1-2.33-.65,15.33,15.33,0,0,1-3.91-4.66A56.85,56.85,0,0,0,435.83,320c-.22-.22-.49-.45-.76-.69-1-.87-2.27-2-1.81-3.43l.07-.2.21,0a7.51,7.51,0,0,1,7.49,2.1c.71.68,1.45,1.34,2.19,2a45.48,45.48,0,0,1,3.75,3.6,28.74,28.74,0,0,1,2.36,3.18,30.21,30.21,0,0,0,2.41,3.21c1.37,1.5,2.59,3.22,2.24,5.61-.38,2.68-1.05,2.87-1.27,2.93A5.88,5.88,0,0,1,451.15,338.43Zm-17.22-22.15c-.13.91.76,1.69,1.63,2.44.29.25.57.49.81.73a57.82,57.82,0,0,1,9.2,13.32,14.77,14.77,0,0,0,3.72,4.43,4.15,4.15,0,0,0,3.21.3c.14-.05.51-.68.74-2.31.29-2-.61-3.43-2.05-5a28.91,28.91,0,0,1-2.48-3.29,27.94,27.94,0,0,0-2.3-3.1,44.07,44.07,0,0,0-3.69-3.54c-.75-.66-1.49-1.32-2.21-2A6.78,6.78,0,0,0,433.93,316.28Z" transform="translate(-8.22 -167.04)"/><path class="cls-1" d="M471.16,334.5a9.23,9.23,0,0,1-1.3-.13c-2.26-.36-4.52-.79-6.73-1.3-.46-.11-2-.53-2.23-1.35s-.53-1.58-.83-2.36c-.75-2-1.53-4-1-5.82l0-.14.11-.07c.9-.59,1.73-1.12,2.51-1.61a27.13,27.13,0,0,0,5.56-4.15,26.18,26.18,0,0,1,6.74-4.68,2,2,0,0,1,1.44,0,3.59,3.59,0,0,1,2,1.34c.53,1,.54,3.08-.23,3.91-1.38,1.51-.89,2.45.11,4a3.83,3.83,0,0,1,.14,3.2c-.49,1.05-1.08,2.05-1.66,3a23.54,23.54,0,0,0-2.09,4.09A2.55,2.55,0,0,1,471.16,334.5Zm-11.41-10.63c-.38,1.57.3,3.34,1,5.22.31.79.63,1.62.86,2.43a2.83,2.83,0,0,0,1.67.82c2.19.5,4.43.94,6.67,1.28,1.45.23,2.41.38,3-1.41a25.48,25.48,0,0,1,2.15-4.23,32.51,32.51,0,0,0,1.63-3,3.08,3.08,0,0,0-.09-2.48c-1.1-1.68-1.74-3,0-4.88a3.49,3.49,0,0,0,.11-3.06,3,3,0,0,0-1.54-1,1.41,1.41,0,0,0-.87-.08,25.57,25.57,0,0,0-6.55,4.54,27.92,27.92,0,0,1-5.7,4.27C461.39,322.82,460.6,323.32,459.75,323.87Z" transform="translate(-8.22 -167.04)"/><path class="cls-1" d="M337.81,378.87a3,3,0,0,1-2.29-.85,5.2,5.2,0,0,1-.92-2.81c-.05-.36-.1-.71-.17-1a4.62,4.62,0,0,1,0-1.17,1.7,1.7,0,0,0,0-.22l-.45-.17.13-.35c.13-.37.24-.75.35-1.14a7.7,7.7,0,0,1,1.07-2.53c1.28-1.67,1.22-3.5,1.16-5.43,0-.39,0-.79,0-1.19,0-1.76.69-2.46,2.24-3.37a23.57,23.57,0,0,0,4.68-4.06c.63-.65,1.28-1.32,1.94-1.94.24-.23.49-.44.74-.65l.65-.56.24.34a4.09,4.09,0,0,0,.28.33,1.7,1.7,0,0,1,.57,1c0,.61,0,1.22,0,1.84a19.62,19.62,0,0,1-.32,5.42c-1,3.79-2.19,7.58-3.36,11.24q-.7,2.17-1.38,4.35c-.45,1.42-2.3,2.43-3.85,2.77A6.11,6.11,0,0,1,337.81,378.87Zm-2.91-6.7.26.09v.26c0,.17,0,.34,0,.52a3.84,3.84,0,0,0,0,1c.07.35.12.72.17,1.1a4.77,4.77,0,0,0,.74,2.41A3,3,0,0,0,339,378c1.61-.36,3-1.31,3.29-2.26.45-1.46.92-2.91,1.38-4.35,1.17-3.66,2.39-7.44,3.35-11.21a18.74,18.74,0,0,0,.3-5.21c0-.62,0-1.24,0-1.86,0-.12-.22-.36-.38-.54l-.07-.08-.06,0-.71.62c-.65.61-1.29,1.28-1.91,1.92a24,24,0,0,1-4.83,4.18c-1.44.84-1.88,1.33-1.88,2.73,0,.39,0,.78,0,1.17.06,2,.13,4-1.31,5.91a6.84,6.84,0,0,0-1,2.28C335.07,371.61,335,371.89,334.9,372.17Z" transform="translate(-8.22 -167.04)"/><path class="cls-1" d="M538.05,421.78a14,14,0,0,1-1.56-.09l-.23,0-.08-.22c-.62-1.74,0-3.06,1.89-3.92,3.21-1.47,6.53-3,9.73-4.65a13.46,13.46,0,0,0,2-1.43,15.23,15.23,0,0,1,1.71-1.24,5.34,5.34,0,0,0,.62-.52,2.56,2.56,0,0,1,3-.83l.14.11a2.61,2.61,0,0,1,.34,2.9,3.49,3.49,0,0,0-.25,1.1v.25l-.23.1a27.93,27.93,0,0,0-5.9,3.64C546,419.33,542.63,421.78,538.05,421.78Zm-1.23-.81c5,.49,8.53-2.11,12-4.63a30.18,30.18,0,0,1,5.83-3.63,4.71,4.71,0,0,1,.28-1.09,1.94,1.94,0,0,0-.14-2.11c-.93-.34-1.46.16-2.07.72a4.63,4.63,0,0,1-.74.6,17.07,17.07,0,0,0-1.63,1.2,13.72,13.72,0,0,1-2.17,1.5c-3.21,1.67-6.54,3.2-9.76,4.68C536.92,418.88,536.44,419.71,536.82,421Z" transform="translate(-8.22 -167.04)"/><path class="cls-1" d="M251.92,224l-.13-.21-.62-.92a8.5,8.5,0,0,1-.86-1.44c-.23-.58-.58-1.61-.17-2.1a7.55,7.55,0,0,1,1.56-1.21c.71-.47,1.67-1.11,1.75-1.54-.48-.92-.83-.93-1.22-.93a1.51,1.51,0,0,1-.83-.2,4.44,4.44,0,0,1-1.84-2.81,3.47,3.47,0,0,1,.41-2.61,2.69,2.69,0,0,1,2.66-.89A4.74,4.74,0,0,1,254.2,211c.11.19.23.39.35.57a7.63,7.63,0,0,1,.53,1c.12.25.24.5.38.74a22.53,22.53,0,0,0,1.39,2.11c.57.73,1.15,1.45,1.73,2.17.41.5.82,1,1.22,1.52.53.67.81,1.06.59,1.4L260,221c-.47.82-1,1.65-1.72,1.87a30.38,30.38,0,0,1-4.63.86c-.53.07-1.05.14-1.53.22Zm.19-14.23a2.33,2.33,0,0,0-1.51.67,2.65,2.65,0,0,0-.3,2,3.7,3.7,0,0,0,1.51,2.33.72.72,0,0,0,.43.08c.64,0,1.27.12,1.92,1.43l0,.15c0,.85-1,1.54-2.08,2.26a7.52,7.52,0,0,0-1.4,1.07,2.53,2.53,0,0,0,.29,1.33,7.94,7.94,0,0,0,.78,1.31c.15.21.31.46.49.73l1.32-.18a30.62,30.62,0,0,0,4.51-.84c.47-.13.9-.87,1.29-1.52.09-.17.19-.34.29-.49-.09-.16-.32-.44-.42-.58L258,218c-.58-.72-1.17-1.45-1.73-2.18a22.73,22.73,0,0,1-1.44-2.18,7.75,7.75,0,0,1-.42-.81,7.33,7.33,0,0,0-.47-.88c-.13-.19-.25-.39-.37-.59a4.21,4.21,0,0,0-1.28-1.55A.4.4,0,0,0,252.11,209.79Z" transform="translate(-8.22 -167.04)"/><path class="cls-1" d="M468.48,344.83A16.59,16.59,0,0,1,464,344a21.32,21.32,0,0,0-3.06-.75l-.34-.05a58.18,58.18,0,0,1-6.21-1.11c-.77-.2-2.25-1.25-2.14-2.11l0-.13.56-1,.19,0a11.17,11.17,0,0,1,3.36.24c.57.1,1.15.2,1.71.25l.93.09c1.66.16,3.39.31,5.08.42,3.64.23,6.06,1.29,7.18,3.15l.1.15-.49,1.32-.17.06A6.61,6.61,0,0,1,468.48,344.83ZM453,340.09a3,3,0,0,0,1.59,1.24,58.32,58.32,0,0,0,6.13,1.1l.33.05a21.54,21.54,0,0,1,3.17.77c2.11.61,4.11,1.2,6.12.56l.24-.64c-1-1.55-3.22-2.44-6.49-2.64-1.71-.11-3.44-.27-5.11-.42L458,340c-.59,0-1.19-.16-1.77-.26a11.2,11.2,0,0,0-2.95-.26Z" transform="translate(-8.22 -167.04)"/><path class="cls-1" d="M558.43,412.15a2,2,0,0,1-1.13-.37l-.08-.07-.7-.9a5.5,5.5,0,0,1,4.33-6.66,1.75,1.75,0,0,0,1-1c.37-1.22.82-1.86,1.43-2,.82-.2,1.55.57,2.32,1.38l.18.18a1.45,1.45,0,0,0,.4.25c.29.15.62.32.72.65.47,1.53.51,2.27.11,2.61a43.74,43.74,0,0,1-5.69,4.29,7.42,7.42,0,0,0-.7.52A3.72,3.72,0,0,1,558.43,412.15Zm-.67-1c.8.51,1.44.07,2.39-.69a9.22,9.22,0,0,1,.78-.58,43.74,43.74,0,0,0,5.59-4.21s.12-.34-.34-1.83a1.78,1.78,0,0,0-.34-.2,2.1,2.1,0,0,1-.6-.4l-.18-.18c-.57-.59-1.21-1.28-1.61-1.17-.17,0-.52.29-.88,1.49a2.47,2.47,0,0,1-1.54,1.47,4.77,4.77,0,0,0-3.8,5.67Z" transform="translate(-8.22 -167.04)"/><path class="cls-1" d="M536.62,340.4a4.77,4.77,0,0,1-1-.1l-.41,0c-.51,0-1.28-.07-1.49-.93-.29-1.1,1.29-1.78,3-2.51,1.24-.53,2.78-1.2,2.93-1.87-.18-.49-.88-.75-1.56-1s-1.66-.62-1.56-1.47l0-.2.19-.09a3.74,3.74,0,0,1,4.82,1.06c.65.77.3,2.64-.24,3.64C540.47,338.44,539.1,340.4,536.62,340.4Zm.7-7.66a2.94,2.94,0,0,0,1,.5c.8.3,1.79.67,2,1.59l0,.06V335c-.11,1.13-1.7,1.82-3.39,2.55-1.12.49-2.65,1.15-2.53,1.63h0c.07.29.23.34.8.37a3.68,3.68,0,0,1,.5.05c2.06.39,3.51-.52,4.86-3,.49-.9.66-2.4.33-2.8A3,3,0,0,0,537.32,332.74Z" transform="translate(-8.22 -167.04)"/><path class="cls-1" d="M231.25,199.92l-.13,0c-.32-.15-.65-.28-1-.42a28.15,28.15,0,0,1-3-1.42.48.48,0,0,1-.23-.35,3.26,3.26,0,0,1,.5-2,2.72,2.72,0,0,1,1.87-.75c2.69-.28,5.86-.6,9-.79a1.24,1.24,0,0,1,.85.47,1.63,1.63,0,0,1,.51,1.09c-.08.68-.51,1.76-1.19,2-1.67.59-3.37,1.07-5.16,1.58l-1.94.55Zm-3.59-2.47a26.41,26.41,0,0,0,2.78,1.31l.86.37,1.82-.52c1.78-.51,3.46-1,5.11-1.57.27-.09.63-.81.7-1.39a1.55,1.55,0,0,0-.61-.71c-3.1.19-6.26.51-8.94.79a2.15,2.15,0,0,0-1.36.47A2.76,2.76,0,0,0,227.66,197.45Z" transform="translate(-8.22 -167.04)"/><path class="cls-1" d="M496.28,241.18l-.22-.72c.48-.15.92-.34,1.35-.51a3.79,3.79,0,0,1,2.31-.5c1.68.45,2.2-.29,2.8-1.49l.67.34c-.51,1-1.28,2.51-3.66,1.88a3.43,3.43,0,0,0-1.83.46C497.28,240.81,496.8,241,496.28,241.18Z" transform="translate(-8.22 -167.04)"/><path class="cls-1" d="M488.78,315.29l-.19-.2a23.28,23.28,0,0,0-2.19-1.88c-1.26-1-2.26-1.78-2.41-2.86l0-.09,0-.09c.56-1.58,2.25-2.21,3.89-2.82a13.29,13.29,0,0,0,2.19-1l.23-.14.21.18c1.2,1.05,2.79,5.48,1.56,7a5.92,5.92,0,0,1-2.44,1.51,5.39,5.39,0,0,0-.61.27Zm-4-5c.17.75,1,1.44,2.13,2.29a24.73,24.73,0,0,1,2.06,1.75l.43-.18a5.35,5.35,0,0,0,2.14-1.29c.8-1-.33-4.58-1.29-5.73a15.75,15.75,0,0,1-2.06.88C486.65,308.61,485.22,309.15,484.74,310.33Z" transform="translate(-8.22 -167.04)"/><path class="cls-1" d="M243.28,222.08a4.51,4.51,0,0,1-1.31-.19l-.25-.08v-.26c-.21-3.34.19-5.21,1.35-6.24s2.87-1.18,5.6-.68l.24,0,.06.24a6,6,0,0,1-2,5.59A5.51,5.51,0,0,1,243.28,222.08Zm-.84-.84a4.48,4.48,0,0,0,4.05-1.29,5.38,5.38,0,0,0,1.79-4.63c-2.35-.4-3.85-.22-4.72.55S242.28,218.32,242.44,221.24Z" transform="translate(-8.22 -167.04)"/><path class="cls-1" d="M119.09,289.86l-.36-1.39,1.49-3,.26,0,1.55.14c1.6.14,3.25.29,4.9.52.43.06.72.46,1,.85a4.41,4.41,0,0,0,.3.39l.27.3-.31.25a2.81,2.81,0,0,0-.31.29,1.89,1.89,0,0,1-1,.65c-1.87.28-3.78.5-5.62.72Zm.44-1.3.12.48,1.54-.18c1.84-.22,3.74-.45,5.6-.72a1.59,1.59,0,0,0,.55-.43l.1-.1-.12-.17c-.14-.2-.38-.53-.5-.55-1.63-.23-3.27-.37-4.85-.51l-1.31-.12Z" transform="translate(-8.22 -167.04)"/><path class="cls-1" d="M505.76,415.5a10.33,10.33,0,0,1-1.22-.07h-.16l-.1-.14c-1.71-2.37-.29-4,1.33-5.44,1-1.51,2.55-.78,3.79-.19a6.26,6.26,0,0,0,1.72.63l.27,0,.05.27a3.55,3.55,0,0,1-.89,3.18A6.39,6.39,0,0,1,505.76,415.5Zm-1-.79c2.23.21,4.18-.33,5.21-1.46a2.77,2.77,0,0,0,.75-2.27,8.23,8.23,0,0,1-1.67-.65c-1.38-.65-2.25-1-2.86,0l-.07.08C504.35,412,503.67,413.05,504.79,414.71Z" transform="translate(-8.22 -167.04)"/><path class="cls-1" d="M282.2,250.45c-1.79,0-4.13-.39-4.57-1.07a.6.6,0,0,1,0-.68l.09-.13.17,0,.7-.13c1.46-.3,3.67-.75,4.72.15a1.69,1.69,0,0,1,.55,1.43v.3l-.29,0A7.76,7.76,0,0,1,282.2,250.45Zm-3.59-1.27a12,12,0,0,0,4.5.48.86.86,0,0,0-.28-.52c-.77-.66-2.93-.22-4.09,0Z" transform="translate(-8.22 -167.04)"/><path class="cls-1" d="M116.14,241.89a2.75,2.75,0,0,1-1.41-.4l-.35-.2.24-.34c1.66-2.35,3-2.81,4.79-1.58l.35.24-.28.32C118.29,241.24,117.19,241.89,116.14,241.89Zm-.65-.86c.68.25,1.67.2,3.13-1.28C117.65,239.2,116.78,239.33,115.49,241Z" transform="translate(-8.22 -167.04)"/><path class="cls-1" d="M406.6,313.79a1.22,1.22,0,0,1-.58-.19,2,2,0,0,1-1-1.07,34.85,34.85,0,0,1-.45-3.61c0-.53-.11-1.11-.17-1.73l-.08-.72.63.35a5.62,5.62,0,0,1,3.15,5.21,2.19,2.19,0,0,1-1.31,1.72A.46.46,0,0,1,406.6,313.79Zm-1.36-5.92c0,.34.06.67.09,1a35.23,35.23,0,0,0,.45,3.53,1.61,1.61,0,0,0,.83.66,1.66,1.66,0,0,0,.77-1A4.8,4.8,0,0,0,405.24,307.87Z" transform="translate(-8.22 -167.04)"/><path class="cls-1" d="M485.69,348.37v-.63a4.16,4.16,0,0,1,1.36-3.48c1.17-.89,3-1,5.56-.32l.31.08,0,.31c-.18,2.59-2.28,2.87-4.14,3.13a7.9,7.9,0,0,0-2.51.61Zm4-4.12a3.54,3.54,0,0,0-2.19.61,3.11,3.11,0,0,0-1.05,2.3,11.08,11.08,0,0,1,2.18-.44c2-.27,3.23-.53,3.47-2.13A10.53,10.53,0,0,0,489.7,344.25Z" transform="translate(-8.22 -167.04)"/><path class="cls-1" d="M476.56,280.58a.75.75,0,0,1-.5-.16,2.68,2.68,0,0,1-.63-2.68,3.78,3.78,0,0,1,2.8-2.62l.18.74a3,3,0,0,0-2.26,2.08,2,2,0,0,0,.39,1.89,1.9,1.9,0,0,0,.8-.22.27.27,0,0,0-.07.12l.73.17c0,.16-.16.39-.79.57A2.33,2.33,0,0,1,476.56,280.58Zm-.06-.76Z" transform="translate(-8.22 -167.04)"/><path class="cls-1" d="M474.41,309.14l0-.35a4.93,4.93,0,0,1,1.23-3.73,3.58,3.58,0,0,1,2.65-1.18h.15l.11.09a2,2,0,0,1,.27,2.31,4.5,4.5,0,0,1-4,2.86Zm3.7-4.51a2.87,2.87,0,0,0-1.94.94,4.15,4.15,0,0,0-1.05,2.79,3.77,3.77,0,0,0,3-2.35A1.53,1.53,0,0,0,478.11,304.63Z" transform="translate(-8.22 -167.04)"/><path class="cls-1" d="M456.89,289.36a1.47,1.47,0,0,1-.89-.28l-.09-.08a2.33,2.33,0,0,1,0-3.11c.53-.61,1.5-.43,2.35-.27a6.38,6.38,0,0,0,1,.14l.16,0a.73.73,0,0,1,.41.66,3.8,3.8,0,0,1-2,2.61A2.25,2.25,0,0,1,456.89,289.36Zm-.42-.86c.51.3,1.15-.08,1.49-.34a3,3,0,0,0,1.18-1.66,9.23,9.23,0,0,1-1-.14c-.66-.13-1.4-.27-1.64,0A1.6,1.6,0,0,0,456.47,288.5Z" transform="translate(-8.22 -167.04)"/><path class="cls-1" d="M360.52,194.23a1,1,0,0,1-.44-.14c-.17-.08-1-.53-1-1s0-1,0-1.46a19.43,19.43,0,0,1,.09-2.63l0-.35.6,0,.4-.11c.54-.16,1-.29,1.21,0l.42.52c.65.79,1.39,1.7,1.32,2.58s-1,1.45-1.84,2.07l-.57.4A.38.38,0,0,1,360.52,194.23Zm-.66-1.21a2.57,2.57,0,0,0,.6.43l.46-.33c.66-.46,1.49-1,1.52-1.51s-.59-1.36-1.15-2l-.35-.43c-.13,0-.35.09-.49.13l-.51.13h0c-.06.73-.05,1.44-.05,2.19C359.87,192.07,359.87,192.54,359.86,193Zm0,0Z" transform="translate(-8.22 -167.04)"/><path class="cls-1" d="M496.88,258.3a.38.38,0,0,1-.17,0c-.14-.07-.28-.22-.19-.56l.23.07-.1-.14a2.83,2.83,0,0,0,.19-.24c.59-.78,2-2.6,4-2.87a2.78,2.78,0,0,0,2.06-1,3,3,0,0,0,.11-2.46,28.51,28.51,0,0,1-.8-4.15,3.85,3.85,0,0,0-1.25-2.78,3.32,3.32,0,0,0-2.53-.41c-.1.55.28,1.08.7,1.68a5.27,5.27,0,0,1,.75,1.32c.57,1.76.19,2.18.06,2.32l-.68.77c-1.83,2.11-3.73,4.28-7,4.37-1.6,0-2.29.9-3,2.46l-.68-.32c.64-1.37,1.5-2.83,3.68-2.89,2.94-.08,4.65-2,6.46-4.11l.68-.78c.06-.06.14-.49-.21-1.59a4.88,4.88,0,0,0-.65-1.12,2.7,2.7,0,0,1-.74-2.57l.07-.2.21,0a4.11,4.11,0,0,1,3.35.5,4.48,4.48,0,0,1,1.54,3.3,26.81,26.81,0,0,0,.79,4,3.7,3.7,0,0,1-.21,3.07,3.43,3.43,0,0,1-2.58,1.32c-1.7.23-2.95,1.88-3.49,2.59C497.23,258.11,497.08,258.3,496.88,258.3Zm.05-.49.32.09a.39.39,0,0,0-.21-.31Z" transform="translate(-8.22 -167.04)"/><path class="cls-1" d="M491.4,262.27l-.45-.2c-2-.87-2.86-1.63-3-2.52s.31-1.55,1.36-2.5l.42-.38.19.53a9.66,9.66,0,0,0,.66,1.39,5,5,0,0,1,.9,3.2Zm-2-4.29c-.56.58-.81,1.06-.74,1.45s.75,1.09,2.07,1.72a5.71,5.71,0,0,0-.84-2.21C489.75,258.63,489.58,258.31,489.43,258Z" transform="translate(-8.22 -167.04)"/><path class="cls-1" d="M481.07,302.12l-.81-.57a2,2,0,0,1-1.09-1.42,1.28,1.28,0,0,1,.3-1,3.32,3.32,0,0,1,0-.78c0-.42,0-.59-.11-.74a5.1,5.1,0,0,1-1.13-6.32,1.68,1.68,0,0,0,.06-.7,1.61,1.61,0,0,1,.6-1.6l.15-.05a2.62,2.62,0,0,1,2.45,1,3.58,3.58,0,0,1,.5,3.47l-.13.33c-.42,1.13-.57,1.65.35,2.25l.95.6,1.76,1.14a2.1,2.1,0,0,0,.33.15,1.49,1.49,0,0,1,.92.69.88.88,0,0,1,0,.74l-.05.13-.12.06c-.6.3-1.13.54-1.64.77a16,16,0,0,0-3.06,1.69Zm-1.82-12.44c-.19.16-.21.41-.19.89a2.4,2.4,0,0,1-.13,1.05,4.35,4.35,0,0,0,1,5.47,1.49,1.49,0,0,1,.33,1.34,2.69,2.69,0,0,0,0,.75l0,.21-.16.15a.56.56,0,0,0-.21.5,1.28,1.28,0,0,0,.74.86l0,0,.39.27a16.57,16.57,0,0,1,3-1.61c.46-.21.94-.43,1.46-.69,0,0,0,0,0,0s-.33-.21-.5-.28a2.26,2.26,0,0,1-.47-.22c-.58-.39-1.17-.76-1.76-1.14l-.94-.6c-1.48-.95-1-2.12-.65-3.14l.12-.33a2.8,2.8,0,0,0-.37-2.73A1.89,1.89,0,0,0,479.25,289.68Z" transform="translate(-8.22 -167.04)"/><path class="cls-1" d="M496.11,241.23l-.15-.1a3.62,3.62,0,0,1-1.34-3.37c.05-1.45.59-3.27,1.05-3.53l.09,0h.1c1.23,0,2.88,1,4.64,2.13.85.53,1.72,1.07,2.53,1.49l.33.17-.17.33c-.51,1-1.28,2.51-3.66,1.88a3.43,3.43,0,0,0-1.83.46c-.42.17-.9.37-1.42.54Zm-.11-6.29a7.74,7.74,0,0,0-.6,3.74,2.48,2.48,0,0,0,.84,1.72c.41-.14.8-.3,1.17-.45a3.79,3.79,0,0,1,2.31-.5,1.94,1.94,0,0,0,2.63-1.16c-.73-.4-1.5-.88-2.25-1.34C498.59,236,497,235,496,234.94Z" transform="translate(-8.22 -167.04)"/><path class="cls-1" d="M406.6,313.79a1.22,1.22,0,0,1-.58-.19,2,2,0,0,1-1-1.07,34.85,34.85,0,0,1-.45-3.61c0-.53-.11-1.11-.17-1.73l-.08-.72.63.35a5.62,5.62,0,0,1,3.15,5.21,2.19,2.19,0,0,1-1.31,1.72A.46.46,0,0,1,406.6,313.79Zm-1.36-5.92c0,.34.06.67.09,1a35.23,35.23,0,0,0,.45,3.53,1.61,1.61,0,0,0,.83.66,1.66,1.66,0,0,0,.77-1A4.8,4.8,0,0,0,405.24,307.87Z" transform="translate(-8.22 -167.04)"/><path class="cls-1" d="M476.56,280.58a.75.75,0,0,1-.5-.16,2.68,2.68,0,0,1-.63-2.68,3.78,3.78,0,0,1,2.8-2.62l.21,0,.15.15c.87.89.32,2.26-.16,3.48a9.84,9.84,0,0,0-.43,1.19c0,.16-.16.39-.79.57A2.33,2.33,0,0,1,476.56,280.58Zm0-.75a1.94,1.94,0,0,0,.76-.19,10.45,10.45,0,0,1,.43-1.21c.38-.95.77-1.93.45-2.51a3,3,0,0,0-2,2A2,2,0,0,0,476.54,279.83Zm0,0Z" transform="translate(-8.22 -167.04)"/><path class="cls-1" d="M269.34,218.12l0-.75c.25,0,2.09-.26,4.22-.54,8.13-1.05,12.35-1.57,12.85-1.49,1.58.27,2.82-.39,3.89-2.07l.63.4c-1.24,1.94-2.76,2.73-4.65,2.41-.61-.06-8.42.95-12.62,1.5C271.29,217.88,269.61,218.1,269.34,218.12Zm14.4-6.89L283,211a7.36,7.36,0,0,1,2.43-3.31,2.19,2.19,0,0,0,1-1.38,2.48,2.48,0,0,0-.81-1.78c-1-1.23-1.53-1.89-1.46-2.61s.74-1.31,1.75-2.12c.66-.53,1.31-1.07,2-1.61,1-.85,2.07-1.71,3.13-2.53l.46.6c-1,.81-2.08,1.66-3.11,2.51l-2,1.61c-.95.76-1.43,1.22-1.47,1.61s.38,1,1.29,2.06a3.29,3.29,0,0,1,1,2.35,2.84,2.84,0,0,1-1.33,1.9A6.5,6.5,0,0,0,283.74,211.23Zm10.59-1c-.82-1.61-1.16-2.55-.77-3.19s1.29-.77,3.09-.81h1.06a8.94,8.94,0,0,0,3.16-.31l-.06-1.24.75,0,.08,1.57-.1.11c-.54.62-1.94.65-3.84.65h-1c-1.08,0-2.25.08-2.46.44s.26,1.4.8,2.47Zm-.52-4.82h-.43c-2.18-.09-3.22-1.16-3.28-3.37a6.39,6.39,0,0,1,1.43-3.88,12.48,12.48,0,0,0,.77-1.26l.67.34a13,13,0,0,1-.82,1.34,5.74,5.74,0,0,0-1.3,3.44c0,2.1,1.06,2.58,2.56,2.64a18.06,18.06,0,0,0,2.84-.18c.59-.07,1.18-.13,1.77-.17l0,.75c-.57,0-1.15.1-1.73.17A23.54,23.54,0,0,1,293.81,205.43Z" transform="translate(-8.22 -167.04)"/><path class="cls-1" d="M275.4,215.39a13.58,13.58,0,0,1-4.29-.58l.34-.67c.76.39,6.84,1.11,8-.61a3.38,3.38,0,0,1,2-1.27c.74-.25,1.32-.44,1.61-1.28a7.36,7.36,0,0,1,2.43-3.31,2.19,2.19,0,0,0,1-1.38,2.48,2.48,0,0,0-.81-1.78c-1-1.23-1.53-1.89-1.46-2.61s.74-1.31,1.75-2.12c.66-.53,1.31-1.07,2-1.61,1-.85,2.07-1.71,3.13-2.53a2.31,2.31,0,0,0,.19-.16,1.36,1.36,0,0,1,1.71-.38c.54.37.54,1.13,0,2.15a13,13,0,0,1-.82,1.34,5.74,5.74,0,0,0-1.3,3.44c0,2.1,1.06,2.58,2.56,2.64a18.06,18.06,0,0,0,2.84-.18c.59-.07,1.18-.13,1.77-.17a3.49,3.49,0,0,0,.92-.22,2.12,2.12,0,0,1,2.53.34l.08.1.08,1.55-.75,0-.06-1.28c-.42-.39-.91-.27-1.65,0a4.27,4.27,0,0,1-1.11.26c-.57,0-1.15.1-1.73.17a19.24,19.24,0,0,1-2.95.18c-2.18-.09-3.22-1.16-3.28-3.37a6.39,6.39,0,0,1,1.43-3.88,12.48,12.48,0,0,0,.77-1.26c.33-.63.38-1.09.25-1.18s-.39,0-.8.32l-.23.19c-1,.81-2.08,1.66-3.11,2.51l-2,1.61c-.95.76-1.43,1.22-1.47,1.61s.38,1,1.29,2.06a3.29,3.29,0,0,1,1,2.35,2.84,2.84,0,0,1-1.33,1.9,6.5,6.5,0,0,0-2.16,2.95,2.76,2.76,0,0,1-2.08,1.74,2.69,2.69,0,0,0-1.58,1C279.33,215.05,277.33,215.39,275.4,215.39Z" transform="translate(-8.22 -167.04)"/><path class="cls-1" d="M287,216.15a4.48,4.48,0,0,1-.8-.07l.13-.74c1.58.27,2.82-.39,3.89-2.07a2.81,2.81,0,0,0,.1-1.32,2.32,2.32,0,0,1,.29-1.69.87.87,0,0,1,.66-.26c.37,0,.94,0,1.48,0a10.1,10.1,0,0,0,1.44,0c-.74-1.48-1-2.37-.66-3s1.29-.77,3.09-.81V207c-1.08,0-2.25.08-2.46.44s.26,1.4.8,2.47a.56.56,0,0,1,0,.55c-.26.4-.95.38-2.25.31a13.77,13.77,0,0,0-1.41,0c-.12,0-.14,0-.15,0s-.1.71-.08,1.13a3.05,3.05,0,0,1-.22,1.76A4.52,4.52,0,0,1,287,216.15Zm7.3-5.9h0Z" transform="translate(-8.22 -167.04)"/><path class="cls-1" d="M347.82,252.18a2.55,2.55,0,0,1-1-.22l-.18-.08A16.63,16.63,0,0,1,343,250c-1-.75-2.24-1.69-1.71-3.85a6.18,6.18,0,0,0-2-6.12l-.61-.56a8.81,8.81,0,0,1-2.84-3.75l0-.09,0-.09c.27-1.27,1.78-2.23,3.24-3.16a17.88,17.88,0,0,0,1.58-1.08,3.21,3.21,0,0,1,2.94-.48,3,3,0,0,1,2.06,1.85c.1.29,0,.74-1.17,1.79a4.91,4.91,0,0,1-.95.58,3.89,3.89,0,0,0-.61.37c.05.83.16,2.42.83,3a8,8,0,0,0,2.46,1.31,17,17,0,0,1,1.7.76,4.93,4.93,0,0,0,.56.25c.7.29,1.67.69,1.63,1.74a6.51,6.51,0,0,1-.58,2,2.48,2.48,0,0,0,.42,3.17,2.79,2.79,0,0,1,.41,2.62C349.94,250.91,349.14,252.18,347.82,252.18ZM336.6,235.57a8.3,8.3,0,0,0,2.59,3.31l.63.58A6.91,6.91,0,0,1,342,246.3c-.42,1.68.44,2.33,1.43,3.07a16,16,0,0,0,3.49,1.82l.17.08c1.13.48,1.81-.16,2.61-1.43a2.21,2.21,0,0,0-.36-1.76,3.19,3.19,0,0,1-.52-3.93,5.8,5.8,0,0,0,.52-1.75c0-.47-.43-.69-1.17-1a6.24,6.24,0,0,1-.63-.28,14.75,14.75,0,0,0-1.62-.72,8.69,8.69,0,0,1-2.68-1.45c-.81-.72-1-2.16-1.09-3.61,0-.44.44-.69,1-1a4.58,4.58,0,0,0,.8-.49c.71-.61.93-1,.95-1.05a2.3,2.3,0,0,0-1.56-1.3,2.52,2.52,0,0,0-2.27.35,17.2,17.2,0,0,1-1.64,1.12C338.26,233.76,336.87,234.65,336.6,235.57Zm6.33-.27Z" transform="translate(-8.22 -167.04)"/><path class="cls-1" d="M271.05,248.17a2.76,2.76,0,0,1-1.24-.53l-.16-.1a1.87,1.87,0,0,1-.89-1.39,3.13,3.13,0,0,1,.39-1.49c.2-.34,1-1.06,1.6-.89h0c.92.26.85,2.06.8,2.7.31,1.35-.07,1.56-.2,1.63A.6.6,0,0,1,271.05,248.17Zm-.5-3.68a1.54,1.54,0,0,0-.75.55,2.44,2.44,0,0,0-.29,1,1.13,1.13,0,0,0,.51.84l.19.11a7.06,7.06,0,0,0,.7.39,3.3,3.3,0,0,0-.11-.81v-.12C270.89,245.48,270.74,244.57,270.55,244.49Z" transform="translate(-8.22 -167.04)"/><path class="cls-1" d="M270.22,243.64h-.06c-.28,0-.41-.3-.53-.53l-.06-.11-.13-.15a1.65,1.65,0,0,1-.35-.48,5.52,5.52,0,0,1-.12-1.3c.08-.81.25-.95.32-1A.74.74,0,0,1,270,240h0c0-.07.05-.17.07-.26v0c.3-1,.55-1.1.65-1.15l.15-.07.22.07c.16.08.5.24.22,1.82a7.22,7.22,0,0,1,.13,1.58,3.44,3.44,0,0,1-.38,1C270.77,243.4,270.49,243.64,270.22,243.64Zm-.45-2.93c0,.09,0,.25,0,.4a5,5,0,0,0,.08,1,1.63,1.63,0,0,0,.19.23c.08.09.16.17.21.24l.08.15s.08-.12.12-.18a2.75,2.75,0,0,0,.29-.7,6.86,6.86,0,0,0-.13-1.33.5.5,0,0,1-.09.12.73.73,0,0,1-.68.07Z" transform="translate(-8.22 -167.04)"/></svg>